  0
SECTION
  2
HEADER
  9
$ACADVER
  1
AC1015
  9
$ACADMAINTVER
 70
     6
  9
$DWGCODEPAGE
  3
ANSI_1252
  9
$INSBASE
 10
0.0
 20
0.0
 30
0.0
  9
$EXTMIN
 10
0.0
 20
0.0
 30
0.0
  9
$EXTMAX
 10
4.469675
 20
3.601314
 30
2.0
  9
$LIMMIN
 10
0.0
 20
0.0
  9
$LIMMAX
 10
17.0
 20
11.0
  9
$ORTHOMODE
 70
     0
  9
$REGENMODE
 70
     1
  9
$FILLMODE
 70
     1
  9
$QTEXTMODE
 70
     0
  9
$MIRRTEXT
 70
     1
  9
$LTSCALE
 40
1.0
  9
$ATTMODE
 70
     1
  9
$TEXTSIZE
 40
0.2
  9
$TRACEWID
 40
0.05
  9
$TEXTSTYLE
  7
Standard
  9
$CLAYER
  8
0
  9
$CELTYPE
  6
ByLayer
  9
$CECOLOR
 62
   256
  9
$CELTSCALE
 40
1.0
  9
$DISPSILH
 70
     0
  9
$DIMSCALE
 40
1.0
  9
$DIMASZ
 40
0.18
  9
$DIMEXO
 40
0.0625
  9
$DIMDLI
 40
0.38
  9
$DIMRND
 40
0.0
  9
$DIMDLE
 40
0.0
  9
$DIMEXE
 40
0.18
  9
$DIMTP
 40
0.0
  9
$DIMTM
 40
0.0
  9
$DIMTXT
 40
0.18
  9
$DIMCEN
 40
0.09
  9
$DIMTSZ
 40
0.0
  9
$DIMTOL
 70
     0
  9
$DIMLIM
 70
     0
  9
$DIMTIH
 70
     1
  9
$DIMTOH
 70
     1
  9
$DIMSE1
 70
     0
  9
$DIMSE2
 70
     0
  9
$DIMTAD
 70
     0
  9
$DIMZIN
 70
     0
  9
$DIMBLK
  1

  9
$DIMASO
 70
     1
  9
$DIMSHO
 70
     1
  9
$DIMPOST
  1

  9
$DIMAPOST
  1

  9
$DIMALT
 70
     0
  9
$DIMALTD
 70
     2
  9
$DIMALTF
 40
25.4
  9
$DIMLFAC
 40
1.0
  9
$DIMTOFL
 70
     0
  9
$DIMTVP
 40
0.0
  9
$DIMTIX
 70
     0
  9
$DIMSOXD
 70
     0
  9
$DIMSAH
 70
     0
  9
$DIMBLK1
  1

  9
$DIMBLK2
  1

  9
$DIMSTYLE
  2
STANDARD
  9
$DIMCLRD
 70
     0
  9
$DIMCLRE
 70
     0
  9
$DIMCLRT
 70
     0
  9
$DIMTFAC
 40
1.0
  9
$DIMGAP
 40
0.09
  9
$DIMJUST
 70
     0
  9
$DIMSD1
 70
     0
  9
$DIMSD2
 70
     0
  9
$DIMTOLJ
 70
     1
  9
$DIMTZIN
 70
     0
  9
$DIMALTZ
 70
     0
  9
$DIMALTTZ
 70
     0
  9
$DIMUPT
 70
     0
  9
$DIMDEC
 70
     4
  9
$DIMTDEC
 70
     4
  9
$DIMALTU
 70
     2
  9
$DIMALTTD
 70
     2
  9
$DIMTXSTY
  7
Standard
  9
$DIMAUNIT
 70
     0
  9
$DIMADEC
 70
     0
  9
$DIMALTRND
 40
0.0
  9
$DIMAZIN
 70
     0
  9
$DIMDSEP
 70
    46
  9
$DIMATFIT
 70
     0
  9
$DIMFRAC
 70
     0
  9
$DIMLDRBLK
  1

  9
$DIMLUNIT
 70
     2
  9
$DIMLWD
 70
    -2
  9
$DIMLWE
 70
    -2
  9
$DIMTMOVE
 70
     0
  9
$LUNITS
 70
     2
  9
$LUPREC
 70
     4
  9
$SKETCHINC
 40
0.1
  9
$FILLETRAD
 40
0.125
  9
$AUNITS
 70
     0
  9
$AUPREC
 70
     0
  9
$MENU
  1
.
  9
$ELEVATION
 40
0.0
  9
$PELEVATION
 40
0.0
  9
$THICKNESS
 40
0.0
  9
$LIMCHECK
 70
     0
  9
$CHAMFERA
 40
0.125
  9
$CHAMFERB
 40
0.125
  9
$CHAMFERC
 40
0.0
  9
$CHAMFERD
 40
0.0
  9
$SKPOLY
 70
     0
  9
$TDCREATE
 40
2447892.666666667
  9
$TDUCREATE
 40
0.0
  9
$TDUPDATE
 40
2458829.380075035
  9
$TDUUPDATE
 40
2458829.713408368
  9
$TDINDWG
 40
0.0
  9
$TDUSRTIMER
 40
0.0
  9
$USRTIMER
 70
     1
  9
$ANGBASE
 50
0.0
  9
$ANGDIR
 70
     0
  9
$PDMODE
 70
     0
  9
$PDSIZE
 40
0.0
  9
$PLINEWID
 40
0.0
  9
$SPLFRAME
 70
     0
  9
$SPLINETYPE
 70
     6
  9
$SPLINESEGS
 70
     8
  9
$HANDSEED
  5
119
  9
$SURFTAB1
 70
     6
  9
$SURFTAB2
 70
     6
  9
$SURFTYPE
 70
     6
  9
$SURFU
 70
     6
  9
$SURFV
 70
     6
  9
$UCSBASE
  2

  9
$UCSNAME
  2

  9
$UCSORG
 10
0.0
 20
0.0
 30
0.0
  9
$UCSXDIR
 10
1.0
 20
0.0
 30
0.0
  9
$UCSYDIR
 10
0.0
 20
1.0
 30
0.0
  9
$UCSORTHOREF
  2

  9
$UCSORTHOVIEW
 70
     1
  9
$UCSORGTOP
 10
0.0
 20
0.0
 30
0.0
  9
$UCSORGBOTTOM
 10
0.0
 20
0.0
 30
0.0
  9
$UCSORGLEFT
 10
0.0
 20
0.0
 30
0.0
  9
$UCSORGRIGHT
 10
0.0
 20
0.0
 30
0.0
  9
$UCSORGFRONT
 10
0.0
 20
0.0
 30
0.0
  9
$UCSORGBACK
 10
0.0
 20
0.0
 30
0.0
  9
$PUCSBASE
  2

  9
$PUCSNAME
  2

  9
$PUCSORG
 10
0.0
 20
0.0
 30
0.0
  9
$PUCSXDIR
 10
1.0
 20
0.0
 30
0.0
  9
$PUCSYDIR
 10
0.0
 20
1.0
 30
0.0
  9
$PUCSORTHOREF
  2

  9
$PUCSORTHOVIEW
 70
     0
  9
$PUCSORGTOP
 10
0.0
 20
0.0
 30
0.0
  9
$PUCSORGBOTTOM
 10
0.0
 20
0.0
 30
0.0
  9
$PUCSORGLEFT
 10
0.0
 20
0.0
 30
0.0
  9
$PUCSORGRIGHT
 10
0.0
 20
0.0
 30
0.0
  9
$PUCSORGFRONT
 10
0.0
 20
0.0
 30
0.0
  9
$PUCSORGBACK
 10
0.0
 20
0.0
 30
0.0
  9
$USERI1
 70
     0
  9
$USERI2
 70
     0
  9
$USERI3
 70
     0
  9
$USERI4
 70
     0
  9
$USERI5
 70
     0
  9
$USERR1
 40
0.0
  9
$USERR2
 40
0.0
  9
$USERR3
 40
0.0
  9
$USERR4
 40
0.0
  9
$USERR5
 40
0.0
  9
$WORLDVIEW
 70
     1
  9
$SHADEDGE
 70
     3
  9
$SHADEDIF
 70
    70
  9
$TILEMODE
 70
     1
  9
$MAXACTVP
 70
    64
  9
$PINSBASE
 10
0.0
 20
0.0
 30
0.0
  9
$PLIMCHECK
 70
     0
  9
$PEXTMIN
 10
0.0
 20
0.0
 30
0.0
  9
$PEXTMAX
 10
4.469675
 20
3.601314
 30
2.0
  9
$PLIMMIN
 10
0.0
 20
0.0
  9
$PLIMMAX
 10
12.0
 20
9.0
  9
$UNITMODE
 70
     0
  9
$VISRETAIN
 70
     0
  9
$PLINEGEN
 70
     0
  9
$PSLTSCALE
 70
     1
  9
$TREEDEPTH
 70
  3020
  9
$CMLSTYLE
  2
Standard
  9
$CMLJUST
 70
     0
  9
$CMLSCALE
 40
1.0
  9
$PROXYGRAPHICS
 70
     1
  9
$MEASUREMENT
 70
     0
  9
$CELWEIGHT
370
    -1
  9
$ENDCAPS
280
     0
  9
$JOINSTYLE
280
     0
  9
$LWDISPLAY
290
     0
  9
$INSUNITS
 70
     0
  9
$HYPERLINKBASE
  1

  9
$STYLESHEET
  1

  9
$XEDIT
290
     1
  9
$CEPSNTYPE
380
     0
  9
$PSTYLEMODE
290
     0
  9
$FINGERPRINTGUID
  2
{BD368152-B21E-46FB-A9DE-3BFCF956AEC1}
  9
$VERSIONGUID
  2
{FAEB1C32-E019-11D5-929B-00C0DF256EC4}
  9
$EXTNAMES
290
     1
  9
$PSVPSCALE
 40
0.0
  9
$OLESTARTUP
290
     0
  0
ENDSEC
  0
SECTION
  2
CLASSES
  0
CLASS
  1
ACDBDICTIONARYWDFLT
  2
AcDbDictionaryWithDefault
  3
ObjectDBX Classes
 90
        0
280
     0
281
     0
  0
CLASS
  1
VISUALSTYLE
  2
AcDbVisualStyle
  3
ObjectDBX Classes
 90
     4095
280
     0
281
     0
  0
CLASS
  1
MATERIAL
  2
AcDbMaterial
  3
ObjectDBX Classes
 90
     1153
280
     0
281
     0
  0
CLASS
  1
SCALE
  2
AcDbScale
  3
ObjectDBX Classes
 90
     1153
280
     0
281
     0
  0
CLASS
  1
TABLESTYLE
  2
AcDbTableStyle
  3
ObjectDBX Classes
 90
     4095
280
     0
281
     0
  0
CLASS
  1
MLEADERSTYLE
  2
AcDbMLeaderStyle
  3
ACDB_MLEADERSTYLE_CLASS
 90
     4095
280
     0
281
     0
  0
CLASS
  1
SUN
  2
AcDbSun
  3
SCENEOE
 90
     1153
280
     0
281
     0
  0
CLASS
  1
ACDBPLACEHOLDER
  2
AcDbPlaceHolder
  3
ObjectDBX Classes
 90
        0
280
     0
281
     0
  0
CLASS
  1
LAYOUT
  2
AcDbLayout
  3
ObjectDBX Classes
 90
        0
280
     0
281
     0
  0
ENDSEC
  0
SECTION
  2
TABLES
  0
TABLE
  2
VPORT
  5
8
330
0
100
AcDbSymbolTable
 70
     1
  0
VPORT
  5
29
330
8
100
AcDbSymbolTableRecord
100
AcDbViewportTableRecord
  2
*Active
 70
     0
 10
0.0
 20
0.0
 11
1.0
 21
1.0
 12
10.429907
 22
4.5
 13
0.0
 23
0.0
 14
0.5
 24
0.5
 15
0.5
 25
0.5
 16
0.0
 26
0.0
 36
1.0
 17
0.0
 27
0.0
 37
0.0
 40
9.0
 41
1.972973
 42
50.0
 43
0.0
 44
0.0
 50
0.0
 51
0.0
 71
     0
 72
   100
 73
     1
 74
     3
 75
     0
 76
     0
 77
     0
 78
     0
281
     0
 65
     1
110
0.0
120
0.0
130
0.0
111
1.0
121
0.0
131
0.0
112
0.0
122
1.0
132
0.0
 79
     0
146
0.0
  0
ENDTAB
  0
TABLE
  2
LTYPE
  5
5
330
0
100
AcDbSymbolTable
 70
     1
  0
LTYPE
  5
14
330
5
100
AcDbSymbolTableRecord
100
AcDbLinetypeTableRecord
  2
ByBlock
 70
     0
  3

 72
    65
 73
     0
 40
0.0
  0
LTYPE
  5
15
330
5
100
AcDbSymbolTableRecord
100
AcDbLinetypeTableRecord
  2
ByLayer
 70
     0
  3

 72
    65
 73
     0
 40
0.0
  0
LTYPE
  5
16
330
5
100
AcDbSymbolTableRecord
100
AcDbLinetypeTableRecord
  2
Continuous
 70
     0
  3
Solid line
 72
    65
 73
     0
 40
0.0
  0
ENDTAB
  0
TABLE
  2
LAYER
  5
2
330
0
100
AcDbSymbolTable
 70
     1
  0
LAYER
  5
10
330
2
100
AcDbSymbolTableRecord
100
AcDbLayerTableRecord
  2
0
 70
     0
 62
     7
  6
Continuous
370
    13
390
F
  0
ENDTAB
  0
TABLE
  2
STYLE
  5
3
330
0
100
AcDbSymbolTable
 70
     2
  0
STYLE
  5
11
330
3
100
AcDbSymbolTableRecord
100
AcDbTextStyleTableRecord
  2
Standard
 70
     0
 40
0.0
 41
1.0
 50
0.0
 71
     0
 42
0.0
  3
isocp.shx
  4

  0
STYLE
  5
6E
330
3
100
AcDbSymbolTableRecord
100
AcDbTextStyleTableRecord
  2
GDT
 70
     0
 40
0.0
 41
1.0
 50
0.0
 71
     0
 42
0.2
  3
gdt.shx
  4

  0
ENDTAB
  0
TABLE
  2
VIEW
  5
6
330
0
100
AcDbSymbolTable
 70
     0
  0
ENDTAB
  0
TABLE
  2
UCS
  5
7
330
0
100
AcDbSymbolTable
 70
     0
  0
ENDTAB
  0
TABLE
  2
APPID
  5
9
330
0
100
AcDbSymbolTable
 70
     1
  0
APPID
  5
12
330
9
100
AcDbSymbolTableRecord
100
AcDbRegAppTableRecord
  2
ACAD
 70
     0
  0
ENDTAB
  0
TABLE
  2
DIMSTYLE
  5
A
330
0
100
AcDbSymbolTable
 70
     1
100
AcDbDimStyleTable
  0
DIMSTYLE
105
27
330
A
100
AcDbSymbolTableRecord
100
AcDbDimStyleTableRecord
  2
STANDARD
 70
     0
178
     0
289
     0
340
0
  0
ENDTAB
  0
TABLE
  2
BLOCK_RECORD
  5
1
330
0
100
AcDbSymbolTable
 70
    11
  0
BLOCK_RECORD
  5
1F
330
1
100
AcDbSymbolTableRecord
100
AcDbBlockTableRecord
  2
*Model_Space
340
22
  0
BLOCK_RECORD
  5
1B
330
1
100
AcDbSymbolTableRecord
100
AcDbBlockTableRecord
  2
*Paper_Space
340
1E
  0
BLOCK_RECORD
  5
23
330
1
100
AcDbSymbolTableRecord
100
AcDbBlockTableRecord
  2
*Paper_Space0
340
26
  0
BLOCK_RECORD
  5
6F
330
1
100
AcDbSymbolTableRecord
100
AcDbBlockTableRecord
  2
BLOCK1
340
0
102
{BLKREFS
331
10F
102
}
  0
BLOCK_RECORD
  5
72
330
1
100
AcDbSymbolTableRecord
100
AcDbBlockTableRecord
  2
BLOCK2
340
0
102
{BLKREFS
331
110
102
}
  0
BLOCK_RECORD
  5
75
330
1
100
AcDbSymbolTableRecord
100
AcDbBlockTableRecord
  2
BLOCK3
340
0
102
{BLKREFS
331
111
102
}
  0
BLOCK_RECORD
  5
78
330
1
100
AcDbSymbolTableRecord
100
AcDbBlockTableRecord
  2
BLOCK4
340
0
102
{BLKREFS
331
112
102
}
  0
BLOCK_RECORD
  5
7B
330
1
100
AcDbSymbolTableRecord
100
AcDbBlockTableRecord
  2
BLOCK5
340
0
102
{BLKREFS
331
113
102
}
  0
BLOCK_RECORD
  5
7E
330
1
100
AcDbSymbolTableRecord
100
AcDbBlockTableRecord
  2
BLOCK6
340
0
102
{BLKREFS
331
114
102
}
  0
BLOCK_RECORD
  5
81
330
1
100
AcDbSymbolTableRecord
100
AcDbBlockTableRecord
  2
BLOCK7
340
0
102
{BLKREFS
331
115
102
}
  0
BLOCK_RECORD
  5
84
330
1
100
AcDbSymbolTableRecord
100
AcDbBlockTableRecord
  2
BLOCK8
340
0
102
{BLKREFS
331
116
102
}
  0
BLOCK_RECORD
  5
87
330
1
100
AcDbSymbolTableRecord
100
AcDbBlockTableRecord
  2
BLOCK9
340
0
102
{BLKREFS
331
117
102
}
  0
BLOCK_RECORD
  5
8A
330
1
100
AcDbSymbolTableRecord
100
AcDbBlockTableRecord
  2
BLOCK10
340
0
102
{BLKREFS
331
118
102
}
  0
ENDTAB
  0
ENDSEC
  0
SECTION
  2
BLOCKS
  0
BLOCK
  5
20
330
1F
100
AcDbEntity
  8
0
100
AcDbBlockBegin
  2
*Model_Space
 70
     0
 10
0.0
 20
0.0
 30
0.0
  3
*Model_Space
  1

  0
ENDBLK
  5
21
330
1F
100
AcDbEntity
  8
0
100
AcDbBlockEnd
  0
BLOCK
  5
1C
330
1B
100
AcDbEntity
 67
     1
  8
0
100
AcDbBlockBegin
  2
*Paper_Space
 70
     0
 10
0.0
 20
0.0
 30
0.0
  3
*Paper_Space
  1

  0
ENDBLK
  5
1D
330
1B
100
AcDbEntity
 67
     1
  8
0
100
AcDbBlockEnd
  0
BLOCK
  5
24
330
23
100
AcDbEntity
  8
0
100
AcDbBlockBegin
  2
*Paper_Space0
 70
     0
 10
0.0
 20
0.0
 30
0.0
  3
*Paper_Space0
  1

  0
ENDBLK
  5
25
330
23
100
AcDbEntity
  8
0
100
AcDbBlockEnd
  0
BLOCK
  5
70
330
6F
100
AcDbEntity
  8
0
100
AcDbBlockBegin
  2
BLOCK1
 70
     0
 10
0.0
 20
0.0
 30
0.0
  3
BLOCK1
  1

  0
TEXT
  5
8D
330
6F
100
AcDbEntity
  8
0
 62
     7
370
    15
100
AcDbText
 10
-2.340765
 20
2.59798
 30
0.0
 40
0.7
  1
CORE 1
 41
1.141304
 72
     5
 11
2.034235
 21
2.59798
 31
0.0
100
AcDbText
  0
ENDBLK
  5
71
330
6F
100
AcDbEntity
  8
0
100
AcDbBlockEnd
  0
BLOCK
  5
73
330
72
100
AcDbEntity
  8
0
100
AcDbBlockBegin
  2
BLOCK2
 70
     0
 10
0.0
 20
0.0
 30
0.0
  3
BLOCK2
  1

  0
SPLINE
  5
8E
330
72
100
AcDbEntity
  8
0
 62
     7
370
    30
100
AcDbSpline
210
0.0
220
0.0
230
1.0
 70
     8
 71
     5
 72
    39
 73
    33
 74
     0
 42
0.000000001
 43
0.0
 40
0.0
 40
0.0
 40
0.0
 40
0.0
 40
0.0
 40
0.0
 40
13.41732138177558
 40
13.41732138177558
 40
13.41732138177558
 40
18.79380473325881
 40
18.79380473325881
 40
18.79380473325881
 40
22.81861477549212
 40
22.81861477549212
 40
22.81861477549212
 40
26.84342481772543
 40
26.84342481772543
 40
26.84342481772543
 40
40.29199363271581
 40
40.29199363271581
 40
40.29199363271581
 40
64.49041354845768
 40
64.49041354845768
 40
64.49041354845768
 40
83.31437150576373
 40
83.31437150576373
 40
83.31437150576373
 40
94.06679601344824
 40
94.06679601344824
 40
94.06679601344824
 40
107.5069507794113
 40
107.5069507794113
 40
107.5069507794113
 40
123.6200436330832
 40
123.6200436330832
 40
123.6200436330832
 40
123.6200436330832
 40
123.6200436330832
 40
123.6200436330832
 10
-0.0000000007349205
 20
0.0000000011414813
 30
0.0
 10
0.0498630292637839
 20
0.0000000011415142
 30
0.0
 10
0.0997415770012552
 20
0.0013083405724185
 30
0.0
 10
0.1497349175211591
 20
0.003949985807644
 30
0.0
 10
0.2195871949690322
 20
0.0094701480553129
 30
0.0
 10
0.289081211797062
 20
0.017533181779887
 30
0.0
 10
0.3089288383764852
 20
0.0200477854810662
 30
0.0
 10
0.3435674233873121
 20
0.0248085052958308
 30
0.0
 10
0.378088997625952
 20
0.0302045563658904
 30
0.0
 10
0.3928457739559366
 20
0.0326310316286134
 30
0.0
 10
0.4223260301303091
 20
0.0377169247227406
 30
0.0
 10
0.4517203986310387
 20
0.0432642265051639
 30
0.0
 10
0.4663930429103482
 20
0.0461525045135292
 30
0.0
 10
0.5299711175110823
 20
0.0591866228860846
 30
0.0
 10
0.5930151556226385
 20
0.0743701991702727
 30
0.0
 10
0.6411292997087447
 20
0.0873141310451244
 30
0.0
 10
0.7751789275208835
 20
0.1271593899579286
 30
0.0
 10
0.906186168752341
 20
0.176822403064336
 30
0.0
 10
0.9887917043520471
 20
0.212738763797569
 30
0.0
 10
1.132138180374002
 20
0.2832616546206686
 30
0.0
 10
1.269024983931196
 20
0.3655758162252432
 30
0.0
 10
1.327606966522041
 20
0.4038129247682033
 30
0.0
 10
1.417345873173874
 20
0.4672184479587814
 30
0.0
 10
1.503195206295735
 20
0.5356513411722764
 30
0.0
 10
1.533879997612204
 20
0.5611867237861784
 30
0.0
 10
1.60165573308001
 20
0.6200529849828502
 30
0.0
 10
1.666525325266751
 20
0.6820283907428789
 30
0.0
 10
1.701659270129312
 20
0.717402167531047
 30
0.0
 10
1.776900085102367
 20
0.7972746085923206
 30
0.0
 10
1.847446811310715
 20
0.881426415060448
 30
0.0
 10
1.884466959295539
 20
0.9285271317317806
 30
0.0
 10
1.919886830082795
 20
0.9766549557714342
 30
0.0
 10
1.953754326317688
 20
1.025851286508008
 30
0.0
  0
POLYLINE
  5
8F
330
72
100
AcDbEntity
  8
0
 62
     7
370
    30
100
AcDb2dPolyline
 66
     1
 10
0.0
 20
0.0
 30
0.0
  0
VERTEX
  5
90
330
8F
100
AcDbEntity
  8
0
370
     0
100
AcDbVertex
100
AcDb2dVertex
 10
2.508236
 20
1.830603
 30
0.0
 42
0.000199
  0
VERTEX
  5
91
330
8F
100
AcDbEntity
  8
0
370
     0
100
AcDbVertex
100
AcDb2dVertex
 10
1.953754
 20
1.025851
 30
0.0
  0
SEQEND
  5
92
330
8F
100
AcDbEntity
  8
0
 62
     7
370
    30
  0
SPLINE
  5
93
330
72
100
AcDbEntity
  8
0
 62
     7
370
    30
100
AcDbSpline
210
0.0
220
0.0
230
1.0
 70
     8
 71
     5
 72
    48
 73
    42
 74
     0
 42
0.000000001
 43
0.0
 40
0.0
 40
0.0
 40
0.0
 40
0.0
 40
0.0
 40
0.0
 40
13.42320649372508
 40
13.42320649372508
 40
13.42320649372508
 40
18.79782830401529
 40
18.79782830401529
 40
18.79782830401529
 40
22.81971269653365
 40
22.81971269653365
 40
22.81971269653365
 40
51.04095290258804
 40
51.04095290258804
 40
51.04095290258804
 40
64.4732364294324
 40
64.4732364294324
 40
64.4732364294324
 40
69.84575967080207
 40
69.84575967080207
 40
69.84575967080207
 40
77.89851094350252
 40
77.89851094350252
 40
77.89851094350252
 40
83.26922259819568
 40
83.26922259819568
 40
83.26922259819568
 40
91.31465303795804
 40
91.31465303795804
 40
91.31465303795804
 40
102.0509707852646
 40
102.0509707852646
 40
102.0509707852646
 40
107.4098948738452
 40
107.4098948738452
 40
107.4098948738452
 40
112.77084249884
 40
112.77084249884
 40
112.77084249884
 40
130.3911541733627
 40
130.3911541733627
 40
130.3911541733627
 40
130.3911541733627
 40
130.3911541733627
 40
130.3911541733627
 10
2.508235281743874
 20
1.830603010193764
 30
0.0
 10
2.536479891652892
 20
1.871561790822181
 30
0.0
 10
2.563647484026269
 20
1.913262830983161
 30
0.0
 10
2.589810393457373
 20
1.955854611322271
 30
0.0
 10
2.624852226662238
 20
2.016397773397587
 30
0.0
 10
2.657581587941042
 20
2.078070658285319
 30
0.0
 10
2.666762388493105
 20
2.095820651266925
 30
0.0
 10
2.682445828558692
 20
2.126945697300979
 30
0.0
 10
2.697536763052538
 20
2.158325813973837
 30
0.0
 10
2.703892467729017
 20
2.171813523807928
 30
0.0
 10
2.753986041578924
 20
2.280326403337481
 30
0.0
 10
2.797207080871934
 20
2.39195330189947
 30
0.0
 10
2.82963977667511
 20
2.491703694119515
 30
0.0
 10
2.869281882761416
 20
2.641447398744865
 30
0.0
 10
2.896571290618644
 20
2.793812358832122
 30
0.0
 10
2.904079048747322
 20
2.843173595709461
 30
0.0
 10
2.912772392863167
 20
2.912548417882918
 30
0.0
 10
2.918903537528192
 20
2.982194067349415
 30
0.0
 10
2.920445320491201
 20
3.00210865369599
 30
0.0
 10
2.923772745872841
 20
3.051910599772476
 30
0.0
 10
2.925788190617962
 20
3.101759480563984
 30
0.0
 10
2.926526379255875
 20
3.131725712885026
 30
0.0
 10
2.926970719590969
 20
3.181694029045634
 30
0.0
 10
2.926102457843793
 20
3.231661240464287
 30
0.0
 10
2.925544661525218
 20
3.251646965478029
 30
0.0
 10
2.92362418509446
 20
3.301536798728336
 30
0.0
 10
2.920390841764384
 20
3.351349701651197
 30
0.0
 10
2.917982183243168
 20
3.381194742510483
 30
0.0
 10
2.911267276373578
 20
3.450738330845307
 30
0.0
 10
2.901998618352168
 20
3.519998225822001
 30
0.0
 10
2.895863108811266
 20
3.559498077159165
 30
0.0
 10
2.885413063612991
 20
3.618533081691979
 30
0.0
 10
2.873092332953824
 20
3.677266928464398
 30
0.0
 10
2.86878241454686
 20
3.696789525324028
 30
0.0
 10
2.859752730519858
 20
3.735744949926423
 30
0.0
 10
2.849900706922939
 20
3.774524732062391
 30
0.0
 10
2.844776878663469
 20
3.793837212093061
 30
0.0
 10
2.821897910035988
 20
3.87652604667969
 30
0.0
 10
2.79522769940256
 20
3.958326213249045
 30
0.0
 10
2.772544205329948
 20
4.020562847578097
 30
0.0
 10
2.747821712182092
 20
4.081650244495201
 30
0.0
 10
2.721014665004968
 20
4.141806812867461
 30
0.0
  0
POLYLINE
  5
94
330
72
100
AcDbEntity
  8
0
 62
     7
370
    30
100
AcDb2dPolyline
 66
     1
 10
0.0
 20
0.0
 30
0.0
  0
VERTEX
  5
95
330
94
100
AcDbEntity
  8
0
370
     0
100
AcDbVertex
100
AcDb2dVertex
 10
2.721015
 20
4.141807
 30
0.0
 42
0.000729
  0
VERTEX
  5
96
330
94
100
AcDbEntity
  8
0
370
     0
100
AcDbVertex
100
AcDb2dVertex
 10
2.545637
 20
4.533786
 30
0.0
  0
SEQEND
  5
97
330
94
100
AcDbEntity
  8
0
 62
     7
370
    30
  0
SPLINE
  5
98
330
72
100
AcDbEntity
  8
0
 62
     7
370
    30
100
AcDbSpline
210
0.0
220
0.0
230
1.0
 70
     8
 71
     5
 72
    48
 73
    42
 74
     0
 42
0.000000001
 43
0.0
 40
0.0
 40
0.0
 40
0.0
 40
0.0
 40
0.0
 40
0.0
 40
21.34520853199657
 40
21.34520853199657
 40
21.34520853199657
 40
34.66991481313062
 40
34.66991481313062
 40
34.66991481313062
 40
45.31591219016954
 40
45.31591219016954
 40
45.31591219016954
 40
53.29609632039606
 40
53.29609632039606
 40
53.29609632039606
 40
58.61777718693071
 40
58.61777718693071
 40
58.61777718693071
 40
71.91586594299959
 40
71.91586594299959
 40
71.91586594299959
 40
82.55819241019847
 40
82.55819241019847
 40
82.55819241019847
 40
90.53245072044234
 40
90.53245072044234
 40
90.53245072044234
 40
103.8351729799387
 40
103.8351729799387
 40
103.8351729799387
 40
119.8085295088443
 40
119.8085295088443
 40
119.8085295088443
 40
125.1394619471316
 40
125.1394619471316
 40
125.1394619471316
 40
133.1344963352292
 40
133.1344963352292
 40
133.1344963352292
 40
142.8533893085571
 40
142.8533893085571
 40
142.8533893085571
 40
142.8533893085571
 40
142.8533893085571
 40
142.8533893085571
 10
2.54563790413923
 20
4.533785970217814
 30
0.0
 10
2.512942302346918
 20
4.606583239323125
 30
0.0
 10
2.477190275853312
 20
4.678005425910394
 30
0.0
 10
2.438287538626266
 20
4.748196465119808
 30
0.0
 10
2.370504143984683
 20
4.859142616671721
 30
0.0
 10
2.295345849051024
 20
4.965136938853969
 30
0.0
 10
2.265388679291762
 20
5.005119493384838
 30
0.0
 10
2.209634779646112
 20
5.075583775564934
 30
0.0
 10
2.150587694748266
 20
5.143345769450545
 30
0.0
 10
2.123718696720463
 20
5.172898747813941
 30
0.0
 10
2.075636598583639
 20
5.223593970479061
 30
0.0
 10
2.025705446213269
 20
5.272496649666792
 30
0.0
 10
2.003976756072129
 20
5.293116010786592
 30
0.0
 10
1.967231841131222
 20
5.32689861711158
 30
0.0
 10
1.929612120085107
 20
5.359703983261419
 30
0.0
 10
1.914423115763333
 20
5.37267138795705
 30
0.0
 10
1.860834215201217
 20
5.417457696185795
 30
0.0
 10
1.805659814961816
 20
5.460216764000165
 30
0.0
 10
1.765456057180232
 20
5.489702165326624
 30
0.0
 10
1.691579415682539
 20
5.540962452814115
 30
0.0
 10
1.615405668245024
 20
5.58864296363871
 30
0.0
 10
1.581147764096755
 20
5.609096496763403
 30
0.0
 10
1.520470058524186
 20
5.643605937252084
 30
0.0
 10
1.458554032919724
 20
5.675859240885282
 30
0.0
 10
1.43179439730832
 20
5.689267469103141
 30
0.0
 10
1.359863364785077
 20
5.723905854911742
 30
0.0
 10
1.286542340038389
 20
5.755483863097581
 30
0.0
 10
1.240185171692268
 20
5.774015866880163
 30
0.0
 10
1.137143102640184
 20
5.812093533177448
 30
0.0
 10
1.032106509178605
 20
5.844140337145851
 30
0.0
 10
0.974246522487887
 20
5.859816238740012
 30
0.0
 10
0.8965717088498111
 20
5.878253313448169
 30
0.0
 10
0.8182444224248594
 20
5.893400834651874
 30
0.0
 10
0.7986082917981435
 20
5.896984738735438
 30
0.0
 10
0.7494294091454737
 20
5.905425787559198
 30
0.0
 10
0.7000137862990602
 20
5.912572596940314
 30
0.0
 10
0.6702939773976909
 20
5.916392688831174
 30
0.0
 10
0.6043291609546595
 20
5.923819220424745
 30
0.0
 10
0.5381829719919007
 20
5.928940849516966
 30
0.0
 10
0.5018592150182533
 20
5.931055115045825
 30
0.0
 10
0.4655524539762878
 20
5.932469425789325
 30
0.0
 10
0.4292316247239042
 20
5.933189416790821
 30
0.0
  0
POLYLINE
  5
99
330
72
100
AcDbEntity
  8
0
 62
     7
370
    30
100
AcDb2dPolyline
 66
     1
 10
0.0
 20
0.0
 30
0.0
  0
VERTEX
  5
9A
330
99
100
AcDbEntity
  8
0
370
     0
100
AcDbVertex
100
AcDb2dVertex
 10
0.429232
 20
5.933189
 30
0.0
 42
0.000707
  0
VERTEX
  5
9B
330
99
100
AcDbEntity
  8
0
370
     0
100
AcDbVertex
100
AcDb2dVertex
 10
0.000009
 20
5.941103
 30
0.0
  0
SEQEND
  5
9C
330
99
100
AcDbEntity
  8
0
 62
     7
370
    30
  0
SPLINE
  5
9D
330
72
100
AcDbEntity
  8
0
 62
     7
370
    30
100
AcDbSpline
210
0.0
220
0.0
230
1.0
 70
     8
 71
     5
 72
    39
 73
    33
 74
     0
 42
0.000000001
 43
0.0
 40
0.0
 40
0.0
 40
0.0
 40
0.0
 40
0.0
 40
0.0
 40
18.70450840093381
 40
18.70450840093381
 40
18.70450840093381
 40
24.058498475192
 40
24.058498475192
 40
24.058498475192
 40
32.08555116861881
 40
32.08555116861881
 40
32.08555116861881
 40
48.17767706168674
 40
48.17767706168674
 40
48.17767706168674
 40
69.66006962220966
 40
69.66006962220966
 40
69.66006962220966
 40
77.72195168119387
 40
77.72195168119387
 40
77.72195168119387
 40
96.52772840784525
 40
96.52772840784525
 40
96.52772840784525
 40
107.2785561732301
 40
107.2785561732301
 40
107.2785561732301
 40
126.1013967655376
 40
126.1013967655376
 40
126.1013967655376
 40
130.3969466803821
 40
130.3969466803821
 40
130.3969466803821
 40
130.3969466803821
 40
130.3969466803821
 40
130.3969466803821
 10
0.0000089874555615
 20
5.941102339188634
 30
0.0
 10
-0.0698751507511808
 20
5.942289370270751
 30
0.0
 10
-0.1398045208004972
 20
5.940905903521267
 30
0.0
 10
-0.2098288392572081
 20
5.936917838102594
 30
0.0
 10
-0.2993768571192252
 20
5.928530977745953
 30
0.0
 10
-0.3882341454493897
 20
5.915956058044507
 30
0.0
 10
-0.4079748556017301
 20
5.912949991544153
 30
0.0
 10
-0.4572085664958108
 20
5.904920983250171
 30
0.0
 10
-0.5062061142451222
 20
5.895601467750518
 30
0.0
 10
-0.535518712853113
 20
5.889546901874868
 30
0.0
 10
-0.623258430939333
 20
5.869976930982093
 30
0.0
 10
-0.7099455153397737
 20
5.846289016923183
 30
0.0
 10
-0.7672220991684987
 20
5.828678527570829
 30
0.0
 10
-0.8995039314083512
 20
5.783406368340891
 30
0.0
 10
-1.028107619448237
 20
5.728531975126228
 30
0.0
 10
-1.100315310135175
 20
5.694051516808935
 30
0.0
 10
-1.19744324923208
 20
5.642551655810094
 30
0.0
 10
-1.291277997050047
 20
5.585618855820414
 30
0.0
 10
-1.316608079052476
 20
5.569697161995829
 30
0.0
 10
-1.400234051162647
 20
5.51527434234214
 30
0.0
 10
-1.480960197452314
 20
5.456482788563638
 30
0.0
 10
-1.535946375772922
 20
5.413233761322127
 30
0.0
 10
-1.61971024527138
 20
5.342210195496948
 30
0.0
 10
-1.699095776633418
 20
5.266587324079202
 30
0.0
 10
-1.727380722562506
 20
5.238481868313593
 30
0.0
 10
-1.803511825204052
 20
5.159579651657348
 30
0.0
 10
-1.875010955085177
 20
5.076326516473928
 30
0.0
 10
-1.91860136941236
 20
5.021615730081122
 30
0.0
 10
-1.969564040905269
 20
4.952574588158846
 30
0.0
 10
-2.017286394198168
 20
4.881385734911625
 30
0.0
 10
-2.026041141399209
 20
4.86808495817704
 30
0.0
 10
-2.034681943759896
 20
4.854713245402045
 30
0.0
 10
-2.0432096950594
 20
4.841269723323962
 30
0.0
  0
POLYLINE
  5
9E
330
72
100
AcDbEntity
  8
0
 62
     7
370
    30
100
AcDb2dPolyline
 66
     1
 10
0.0
 20
0.0
 30
0.0
  0
VERTEX
  5
9F
330
9E
100
AcDbEntity
  8
0
370
     0
100
AcDbVertex
100
AcDb2dVertex
 10
-2.567024
 20
4.016231
 30
0.0
 42
0.000199
  0
VERTEX
  5
A0
330
9E
100
AcDbEntity
  8
0
370
     0
100
AcDbVertex
100
AcDb2dVertex
 10
-2.04321
 20
4.84127
 30
0.0
  0
SEQEND
  5
A1
330
9E
100
AcDbEntity
  8
0
 62
     7
370
    30
  0
SPLINE
  5
A2
330
72
100
AcDbEntity
  8
0
 62
     7
370
    30
100
AcDbSpline
210
0.0
220
0.0
230
1.0
 70
     8
 71
     5
 72
    39
 73
    33
 74
     0
 42
0.000000001
 43
0.0
 40
0.0
 40
0.0
 40
0.0
 40
0.0
 40
0.0
 40
0.0
 40
18.81496145877705
 40
18.81496145877705
 40
18.81496145877705
 40
37.63275204206414
 40
37.63275204206414
 40
37.63275204206414
 40
53.75594481164656
 40
53.75594481164656
 40
53.75594481164656
 40
67.18947732415054
 40
67.18947732415054
 40
67.18947732415054
 40
77.93460208380037
 40
77.93460208380037
 40
77.93460208380037
 40
85.98864316542857
 40
85.98864316542857
 40
85.98864316542857
 40
96.75211619967068
 40
96.75211619967068
 40
96.75211619967068
 40
102.1291066854501
 40
102.1291066854501
 40
102.1291066854501
 40
115.5542522790079
 40
115.5542522790079
 40
115.5542522790079
 40
123.6299439675127
 40
123.6299439675127
 40
123.6299439675127
 40
123.6299439675127
 40
123.6299439675127
 40
123.6299439675127
 10
-2.567024170899763
 20
4.016230608284054
 30
0.0
 10
-2.604431689852379
 20
3.957363003423202
 30
0.0
 10
-2.639670752435348
 20
3.897116040946212
 30
0.0
 10
-2.672747180780303
 20
3.835435300482832
 30
0.0
 10
-2.734225054263411
 20
3.709915367387928
 30
0.0
 10
-2.786247609140224
 20
3.580334494437763
 30
0.0
 10
-2.809867530343119
 20
3.514576306709902
 30
0.0
 10
-2.849177673580853
 20
3.391007582342497
 30
0.0
 10
-2.879964730310695
 20
3.264965509867136
 30
0.0
 10
-2.892340892321846
 20
3.206309142446456
 30
0.0
 10
-2.911603707961244
 20
3.098201038029263
 30
0.0
 10
-2.92458046634002
 20
2.989218408971439
 30
0.0
 10
-2.92917133292372
 20
2.939506745692057
 30
0.0
 10
-2.935084086083309
 20
2.849756027193891
 30
0.0
 10
-2.936749333674816
 20
2.759828512550175
 30
0.0
 10
-2.936648944340996
 20
2.719856994308953
 30
0.0
 10
-2.934999424468171
 20
2.650017437023871
 30
0.0
 10
-2.930781108437223
 20
2.580332540905653
 30
0.0
 10
-2.9285048613181
 20
2.550507913578874
 30
0.0
 10
-2.922101134661469
 20
2.480968194510857
 30
0.0
 10
-2.913151581451112
 20
2.411746400879998
 30
0.0
 10
-2.907196424384765
 20
2.372255310726737
 30
0.0
 10
-2.897014124801262
 20
2.313208774691981
 30
0.0
 10
-2.884964484219388
 20
2.254455202280109
 30
0.0
 10
-2.880743071670172
 20
2.234915274867403
 30
0.0
 10
-2.865268973642154
 20
2.166752400563965
 30
0.0
 10
-2.847300108503281
 20
2.099206258921805
 30
0.0
 10
-2.83314366347847
 20
2.051169180072204
 30
0.0
 10
-2.808487202696433
 20
1.974893901018726
 30
0.0
 10
-2.780682202867982
 20
1.899801280020373
 30
0.0
 10
-2.7697962946287
 20
1.871772899425465
 30
0.0
 10
-2.758479414525647
 20
1.843958411239405
 30
0.0
 10
-2.74672832516143
 20
1.81633483843772
 30
0.0
  0
LINE
  5
A3
330
72
100
AcDbEntity
  8
0
 62
     7
370
    30
100
AcDbLine
 10
-2.746728
 20
1.816335
 30
0.0
 11
-2.587896
 21
1.443055
 31
0.0
  0
SPLINE
  5
A4
330
72
100
AcDbEntity
  8
0
 62
     7
370
    30
100
AcDbSpline
210
0.0
220
0.0
230
1.0
 70
     8
 71
     5
 72
    45
 73
    39
 74
     0
 42
0.000000001
 43
0.0
 40
0.0
 40
0.0
 40
0.0
 40
0.0
 40
0.0
 40
0.0
 40
26.86600126539821
 40
26.86600126539821
 40
26.86600126539821
 40
40.29371185377836
 40
40.29371185377836
 40
40.29371185377836
 40
59.0825345445262
 40
59.0825345445262
 40
59.0825345445262
 40
67.13838217449876
 40
67.13838217449876
 40
67.13838217449876
 40
72.51283264917231
 40
72.51283264917231
 40
72.51283264917231
 40
80.56103241536094
 40
80.56103241536094
 40
80.56103241536094
 40
93.9947289919126
 40
93.9947289919126
 40
93.9947289919126
 40
99.36665301609719
 40
99.36665301609719
 40
99.36665301609719
 40
118.1625001499499
 40
118.1625001499499
 40
118.1625001499499
 40
131.5998657495075
 40
131.5998657495075
 40
131.5998657495075
 40
145.0273521992743
 40
145.0273521992743
 40
145.0273521992743
 40
149.1261847413562
 40
149.1261847413562
 40
149.1261847413562
 40
149.1261847413562
 40
149.1261847413562
 40
149.1261847413562
 10
-2.587895600720769
 20
1.443055431538701
 30
0.0
 10
-2.548799095708699
 20
1.351183365882237
 30
0.0
 10
-2.50489904331627
 20
1.261425631652614
 30
0.0
 10
-2.456266740553644
 20
1.173932274013016
 30
0.0
 10
-2.376526792178469
 20
1.046796696461623
 30
0.0
 10
-2.287131975959634
 20
0.9264880900471105
 30
0.0
 10
-2.256302965425931
 20
0.887196656749612
 30
0.0
 10
-2.179920384013968
 20
0.7949473271773818
 30
0.0
 10
-2.097852141385984
 20
0.7076816082427595
 30
0.0
 10
-2.048073795293421
 20
0.658520292071681
 30
0.0
 10
-1.974479548753883
 20
0.5910120858865153
 30
0.0
 10
-1.897484179287189
 20
0.5274988819150301
 30
0.0
 10
-1.874061281248717
 20
0.5087901054074498
 30
0.0
 10
-1.834593504794038
 20
0.47827018466253
 30
0.0
 10
-1.794354443406135
 20
0.4488153366766086
 30
0.0
 10
-1.778126737990332
 20
0.4371981868763067
 30
0.0
 10
-1.737293461849141
 20
0.4086142657640117
 30
0.0
 10
-1.695695624290197
 20
0.3810981353689686
 30
0.0
 10
-1.670469418660733
 20
0.3649752747234422
 30
0.0
 10
-1.602497270711961
 20
0.3230266476807885
 30
0.0
 10
-1.532863388418418
 20
0.2839945919310483
 30
0.0
 10
-1.488781661264395
 20
0.2607948151171533
 30
0.0
 10
-1.426110167097559
 20
0.2298899913319067
 30
0.0
 10
-1.362325875110723
 20
0.2012995170264619
 30
0.0
 10
-1.34402245271661
 20
0.193325338731949
 30
0.0
 10
-1.261290658828007
 20
0.1583136118991784
 30
0.0
 10
-1.17694668052544
 20
0.1272381628752514
 30
0.0
 10
-1.110445199599348
 20
0.1054888389340156
 30
0.0
 10
-0.9952683909580334
 20
0.072464478053775
 30
0.0
 10
-0.8782738375604264
 20
0.0467705532642756
 30
0.0
 10
-0.8291795962573206
 20
0.0373324910225645
 30
0.0
 10
-0.730655733736971
 20
0.0210636289070906
 30
0.0
 10
-0.6312934965567061
 20
0.0099954319434894
 30
0.0
 10
-0.5814341343701945
 20
0.0057659443220387
 30
0.0
 10
-0.5163450497773118
 20
0.0019579923442383
 30
0.0
 10
-0.4512348541481929
 20
0.0003865815598413
 30
0.0
 10
-0.4360059371231905
 20
0.0001414693456566
 30
0.0
 10
-0.4207776703490502
 20
0.0000187659422305
 30
0.0
 10
-0.4055479260986817
 20
0.0000181360648864
 30
0.0
  0
LINE
  5
A5
330
72
100
AcDbEntity
  8
0
 62
     7
370
    30
100
AcDbLine
 10
-0.405548
 20
0.000018
 30
0.0
 11
0.0
 21
0.0
 31
0.0
  0
ENDBLK
  5
74
330
72
100
AcDbEntity
  8
0
100
AcDbBlockEnd
  0
BLOCK
  5
76
330
75
100
AcDbEntity
  8
0
100
AcDbBlockBegin
  2
BLOCK3
 70
     0
 10
0.0
 20
0.0
 30
0.0
  3
BLOCK3
  1

  0
TEXT
  5
A6
330
75
100
AcDbEntity
  8
0
 62
     7
370
    15
100
AcDbText
 10
-0.06245
 20
2.28373
 30
0.0
 40
0.7
  1
CORE 2
 41
1.084711
 72
     5
 11
4.31255
 21
2.28373
 31
0.0
100
AcDbText
  0
ENDBLK
  5
77
330
75
100
AcDbEntity
  8
0
100
AcDbBlockEnd
  0
BLOCK
  5
79
330
78
100
AcDbEntity
  8
0
100
AcDbBlockBegin
  2
BLOCK4
 70
     0
 10
0.0
 20
0.0
 30
0.0
  3
BLOCK4
  1

  0
POLYLINE
  5
A7
330
78
100
AcDbEntity
  8
0
 62
     7
370
    30
100
AcDb2dPolyline
 66
     1
 10
0.0
 20
0.0
 30
0.0
  0
VERTEX
  5
A8
330
A7
100
AcDbEntity
  8
0
370
     0
100
AcDbVertex
100
AcDb2dVertex
 10
-2.041728
 20
3.573833
 30
0.0
 42
0.044894
  0
VERTEX
  5
A9
330
A7
100
AcDbEntity
  8
0
370
     0
100
AcDbVertex
100
AcDb2dVertex
 10
-2.224573
 20
3.189403
 30
0.0
  0
SEQEND
  5
AA
330
A7
100
AcDbEntity
  8
0
 62
     7
370
    30
  0
POLYLINE
  5
AB
330
78
100
AcDbEntity
  8
0
 62
     7
370
    30
100
AcDb2dPolyline
 66
     1
 10
0.0
 20
0.0
 30
0.0
  0
VERTEX
  5
AC
330
AB
100
AcDbEntity
  8
0
370
     0
100
AcDbVertex
100
AcDb2dVertex
 10
-1.681567
 20
4.182556
 30
0.0
 42
0.000239
  0
VERTEX
  5
AD
330
AB
100
AcDbEntity
  8
0
370
     0
100
AcDbVertex
100
AcDb2dVertex
 10
-2.041726
 20
3.573832
 30
0.0
  0
SEQEND
  5
AE
330
AB
100
AcDbEntity
  8
0
 62
     7
370
    30
  0
POLYLINE
  5
AF
330
78
100
AcDbEntity
  8
0
 62
     7
370
    30
100
AcDb2dPolyline
 66
     1
 10
0.0
 20
0.0
 30
0.0
  0
VERTEX
  5
B0
330
AF
100
AcDbEntity
  8
0
370
     0
100
AcDbVertex
100
AcDb2dVertex
 10
0.409985
 20
5.344033
 30
0.0
 42
0.270872
  0
VERTEX
  5
B1
330
AF
100
AcDbEntity
  8
0
370
     0
100
AcDbVertex
100
AcDb2dVertex
 10
-1.681576
 20
4.182562
 30
0.0
  0
SEQEND
  5
B2
330
AF
100
AcDbEntity
  8
0
 62
     7
370
    30
  0
SPLINE
  5
B3
330
78
100
AcDbEntity
  8
0
 62
     7
370
    30
100
AcDbSpline
210
0.0
220
0.0
230
1.0
 70
     8
 71
     5
 72
    12
 73
     6
 74
     0
 42
0.000000001
 43
0.0
 40
0.0
 40
0.0
 40
0.0
 40
0.0
 40
0.0
 40
0.0
 40
167.0516494160656
 40
167.0516494160656
 40
167.0516494160656
 40
167.0516494160656
 40
167.0516494160656
 40
167.0516494160656
 10
4.254376831510617
 20
5.254182263376445
 30
0.0
 10
3.489643106070177
 20
5.272645824646039
 30
0.0
 10
2.725002111775035
 20
5.291259690841624
 30
0.0
 10
1.93812308166729
 20
5.309704370401946
 30
0.0
 10
1.173987368041844
 20
5.327082816153671
 30
0.0
 10
0.4099852259713781
 20
5.344033534734695
 30
0.0
  0
POLYLINE
  5
B4
330
78
100
AcDbEntity
  8
0
 62
     7
370
    30
100
AcDb2dPolyline
 66
     1
 10
0.0
 20
0.0
 30
0.0
  0
VERTEX
  5
B5
330
B4
100
AcDbEntity
  8
0
370
     0
100
AcDbVertex
100
AcDb2dVertex
 10
5.993209
 20
4.431341
 30
0.0
 42
0.211963
  0
VERTEX
  5
B6
330
B4
100
AcDbEntity
  8
0
370
     0
100
AcDbVertex
100
AcDb2dVertex
 10
4.254377
 20
5.25419
 30
0.0
  0
SEQEND
  5
B7
330
B4
100
AcDbEntity
  8
0
 62
     7
370
    30
  0
POLYLINE
  5
B8
330
78
100
AcDbEntity
  8
0
 62
     7
370
    30
100
AcDb2dPolyline
 66
     1
 10
0.0
 20
0.0
 30
0.0
  0
VERTEX
  5
B9
330
B8
100
AcDbEntity
  8
0
370
     0
100
AcDbVertex
100
AcDb2dVertex
 10
5.588476
 20
0.537818
 30
0.0
 42
0.210001
  0
VERTEX
  5
BA
330
B8
100
AcDbEntity
  8
0
370
     0
100
AcDbVertex
100
AcDb2dVertex
 10
6.513539
 20
2.204631
 30
0.0
  0
SEQEND
  5
BB
330
B8
100
AcDbEntity
  8
0
 62
     7
370
    30
  0
LINE
  5
BC
330
78
100
AcDbEntity
  8
0
 62
     7
370
    30
100
AcDbLine
 10
6.54319
 20
2.523817
 30
0.0
 11
6.513536
 21
2.204632
 31
0.0
  0
SPLINE
  5
BD
330
78
100
AcDbEntity
  8
0
 62
     7
370
    30
100
AcDbSpline
210
0.0
220
0.0
230
1.0
 70
     8
 71
     5
 72
    60
 73
    54
 74
     0
 42
0.000000001
 43
0.0
 40
0.0
 40
0.0
 40
0.0
 40
0.0
 40
0.0
 40
0.0
 40
35.46816745961138
 40
35.46816745961138
 40
35.46816745961138
 40
50.248072499402
 40
50.248072499402
 40
50.248072499402
 40
76.89454402708434
 40
76.89454402708434
 40
76.89454402708434
 40
91.68359119846939
 40
91.68359119846939
 40
91.68359119846939
 40
106.4739939981035
 40
106.4739939981035
 40
106.4739939981035
 40
112.3903236723671
 40
112.3903236723671
 40
112.3903236723671
 40
133.0748718620388
 40
133.0748718620388
 40
133.0748718620388
 40
147.8468659505823
 40
147.8468659505823
 40
147.8468659505823
 40
162.6215554220089
 40
162.6215554220089
 40
162.6215554220089
 40
177.3953785907843
 40
177.3953785907843
 40
177.3953785907843
 40
183.3039552403235
 40
183.3039552403235
 40
183.3039552403235
 40
192.1658308280712
 40
192.1658308280712
 40
192.1658308280712
 40
198.0780247906767
 40
198.0780247906767
 40
198.0780247906767
 40
215.7993724884482
 40
215.7993724884482
 40
215.7993724884482
 40
224.655030828378
 40
224.655030828378
 40
224.655030828378
 40
251.2235170855879
 40
251.2235170855879
 40
251.2235170855879
 40
270.175948460957
 40
270.175948460957
 40
270.175948460957
 40
270.175948460957
 40
270.175948460957
 40
270.175948460957
 10
-2.224575258071363
 20
3.189403441813308
 30
0.0
 10
-2.266048650948922
 20
3.077217495088157
 30
0.0
 10
-2.300426201583007
 20
2.962409763092954
 30
0.0
 10
-2.32748339164413
 20
2.845531852211982
 30
0.0
 10
-2.355235485438865
 20
2.67817074076575
 30
0.0
 10
-2.367885805857551
 20
2.509338823102047
 30
0.0
 10
-2.370296280505057
 20
2.459558778417501
 30
0.0
 10
-2.373375217135078
 20
2.320015060789703
 30
0.0
 10
-2.366169575889963
 20
2.180616557556275
 30
0.0
 10
-2.357289057397982
 20
2.091299091284595
 30
0.0
 10
-2.33692349032764
 20
1.953210620244691
 30
0.0
 10
-2.306410304222838
 20
1.816881898922235
 30
0.0
 10
-2.29421450219726
 20
1.768439786136734
 30
0.0
 10
-2.267330510013524
 20
1.672365712482432
 30
0.0
 10
-2.235440521713679
 20
1.577876449881531
 30
0.0
 10
-2.218241087561112
 20
1.531032361283021
 30
0.0
 10
-2.192426261339029
 20
1.466057362812196
 30
0.0
 10
-2.164238494478842
 20
1.402076668929569
 30
0.0
 10
-2.155993681830034
 20
1.383884771800152
 30
0.0
 10
-2.118071790400365
 20
1.302507218644742
 30
0.0
 10
-2.076307010484689
 20
1.222960517618787
 30
0.0
 10
-2.04149464054757
 20
1.162185748195618
 30
0.0
 10
-1.978097904730474
 20
1.060420780473634
 30
0.0
 10
-1.908414412249354
 20
0.9628745414049229
 30
0.0
 10
-1.878307539620635
 20
0.9229792550359395
 30
0.0
 10
-1.816075687083526
 20
0.8448761865118599
 30
0.0
 10
-1.749846752020125
 20
0.7701861836965231
 30
0.0
 10
-1.715757084771771
 20
0.733723107395028
 30
0.0
 10
-1.645638031753777
 20
0.6625506849181819
 30
0.0
 10
-1.571910358714278
 20
0.5951913593195032
 30
0.0
 10
-1.534130976004338
 20
0.5624617321498204
 30
0.0
 10
-1.480064183342399
 20
0.5180543940613491
 30
0.0
 10
-1.424409733398382
 20
0.4756729999590266
 30
0.0
 10
-1.408382917102473
 20
0.4637325850476556
 30
0.0
 10
-1.368014428565985
 20
0.4343122700439268
 30
0.0
 10
-1.326899776059689
 20
0.4059730442386347
 30
0.0
 10
-1.301974905723278
 20
0.3893682523237754
 30
0.0
 10
-1.259990556153916
 20
0.3623403565510797
 30
0.0
 10
-1.217361060700202
 20
0.3364545072858076
 30
0.0
 10
-1.200184481526682
 20
0.3262704199427177
 30
0.0
 10
-1.131109950730146
 20
0.2862944667818357
 30
0.0
 10
-1.060344100930376
 20
0.2492257868670421
 30
0.0
 10
-1.006345742116078
 20
0.2230767862535822
 30
0.0
 10
-0.9242570295477985
 20
0.1864766475652707
 30
0.0
 10
-0.840534943447397
 20
0.1538126738131831
 30
0.0
 10
-0.8124507427132461
 20
0.1433643983476268
 30
0.0
 10
-0.6995104268170772
 20
0.1033597304900322
 30
0.0
 10
-0.5842090488495834
 20
0.0705267819874798
 30
0.0
 10
-0.4967464691366075
 20
0.0500505498579653
 30
0.0
 10
-0.3453234437974211
 20
0.0221107338257135
 30
0.0
 10
-0.192106943559813
 20
0.0065121667306022
 30
0.0
 10
-0.1280670018269002
 20
0.0021636708579541
 30
0.0
 10
-0.0640354180451081
 20
0.0000000183044418
 30
0.0
 10
-0.0000000000979056
 20
-0.0000000001201116
 30
0.0
  0
SPLINE
  5
BE
330
78
100
AcDbEntity
  8
0
 62
     7
370
    30
100
AcDbSpline
210
0.0
220
0.0
230
1.0
 70
     8
 71
     5
 72
    15
 73
     9
 74
     0
 42
0.000000001
 43
0.0
 40
0.0
 40
0.0
 40
0.0
 40
0.0
 40
0.0
 40
0.0
 40
131.284099238458
 40
131.284099238458
 40
131.284099238458
 40
187.5371767772355
 40
187.5371767772355
 40
187.5371767772355
 40
187.5371767772355
 40
187.5371767772355
 40
187.5371767772355
 10
-0.0000000001025447
 20
-0.0000000001202542
 30
0.0
 10
0.5923176287666327
 20
-0.0000000001202529
 30
0.0
 10
1.184733830205124
 20
0.0017279730508976
 30
0.0
 10
1.776803672530219
 20
0.0056913139827157
 30
0.0
 10
2.622822904821801
 20
0.0156225848728225
 30
0.0
 10
3.468648593250174
 20
0.0337516293540316
 30
0.0
 10
3.722358958395068
 20
0.0400091566643707
 30
0.0
 10
3.976050766320329
 20
0.0471781524827941
 30
0.0
 10
4.229746127072254
 20
0.0553673314450302
 30
0.0
  0
POLYLINE
  5
BF
330
78
100
AcDbEntity
  8
0
 62
     7
370
    30
100
AcDb2dPolyline
 66
     1
 10
0.0
 20
0.0
 30
0.0
  0
VERTEX
  5
C0
330
BF
100
AcDbEntity
  8
0
370
     0
100
AcDbVertex
100
AcDb2dVertex
 10
4.229746
 20
0.05536
 30
0.0
 42
0.155657
  0
VERTEX
  5
C1
330
BF
100
AcDbEntity
  8
0
370
     0
100
AcDbVertex
100
AcDb2dVertex
 10
5.58845
 20
0.537837
 30
0.0
  0
SEQEND
  5
C2
330
BF
100
AcDbEntity
  8
0
 62
     7
370
    30
  0
SPLINE
  5
C3
330
78
100
AcDbEntity
  8
0
 62
     7
370
    30
100
AcDbSpline
210
0.0
220
0.0
230
1.0
 70
     8
 71
     5
 72
    39
 73
    33
 74
     0
 42
0.000000001
 43
0.0
 40
0.0
 40
0.0
 40
0.0
 40
0.0
 40
0.0
 40
0.0
 40
13.35164805886337
 40
13.35164805886337
 40
13.35164805886337
 40
18.7265653481051
 40
18.7265653481051
 40
18.7265653481051
 40
24.10108283434011
 40
24.10108283434011
 40
24.10108283434011
 40
40.18870016295293
 40
40.18870016295293
 40
40.18870016295293
 40
45.53092889251253
 40
45.53092889251253
 40
45.53092889251253
 40
56.20046118369569
 40
56.20046118369569
 40
56.20046118369569
 40
66.84576780304604
 40
66.84576780304604
 40
66.84576780304604
 40
77.45995695745268
 40
77.45995695745268
 40
77.45995695745268
 40
90.70733084187955
 40
90.70733084187955
 40
90.70733084187955
 40
101.7444918527599
 40
101.7444918527599
 40
101.7444918527599
 40
101.7444918527599
 40
101.7444918527599
 40
101.7444918527599
 10
5.99319682407836
 20
4.431309675276382
 30
0.0
 10
6.02534677699759
 20
4.394019248183784
 30
0.0
 10
6.056502516695746
 20
4.35587229757621
 30
0.0
 10
6.086870079408777
 20
4.316628341668239
 30
0.0
 10
6.127949157023378
 20
4.260575547252335
 30
0.0
 10
6.166900449841057
 20
4.203105582241053
 30
0.0
 10
6.177907256494321
 20
4.186491275809431
 30
0.0
 10
6.199574842056877
 20
4.153026550784154
 30
0.0
 10
6.220561581703055
 20
4.119065125606416
 30
0.0
 10
6.230871962696472
 20
4.101980762930735
 30
0.0
 10
6.271388620517831
 20
4.033217331005904
 30
0.0
 10
6.308999424946813
 20
3.962784291206184
 30
0.0
 10
6.335461758148991
 20
3.909230603554516
 30
0.0
 10
6.368620699123768
 20
3.836378297348987
 30
0.0
 10
6.398719682384488
 20
3.762102725230005
 30
0.0
 10
6.406027128212946
 20
3.743509932064857
 30
0.0
 10
6.427342919721258
 20
3.687551549053858
 30
0.0
 10
6.446897751357518
 20
3.630900621087129
 30
0.0
 10
6.459144882871181
 20
3.592838227321496
 30
0.0
 10
6.48202141742203
 20
3.516241310304292
 30
0.0
 10
6.501680110069501
 20
3.43865641505627
 30
0.0
 10
6.510664221783225
 20
3.399773637714954
 30
0.0
 10
6.527002761464547
 20
3.321552108118589
 30
0.0
 10
6.540055532179857
 20
3.2425836716431
 30
0.0
 10
6.545748382747306
 20
3.202991912948202
 30
0.0
 10
6.556660648740957
 20
3.113797726918584
 30
0.0
 10
6.56332617141929
 20
3.024215625831652
 30
0.0
 10
6.56571451440941
 20
2.974401639412728
 30
0.0
 10
6.567692000766637
 20
2.882898493076345
 30
0.0
 10
6.565255607212451
 20
2.791350614986546
 30
0.0
 10
6.563234041049927
 20
2.74975679451069
 30
0.0
 10
6.560296171548291
 20
2.708257163352397
 30
0.0
 10
6.556447761342166
 20
2.666842837281486
 30
0.0
  0
LINE
  5
C4
330
78
100
AcDbEntity
  8
0
 62
     7
370
    30
100
AcDbLine
 10
6.543157
 20
2.52382
 30
0.0
 11
6.556448
 21
2.666843
 31
0.0
  0
ENDBLK
  5
7A
330
78
100
AcDbEntity
  8
0
100
AcDbBlockEnd
  0
BLOCK
  5
7C
330
7B
100
AcDbEntity
  8
0
100
AcDbBlockBegin
  2
BLOCK5
 70
     0
 10
0.0
 20
0.0
 30
0.0
  3
BLOCK5
  1

  0
TEXT
  5
C5
330
7B
100
AcDbEntity
  8
0
 62
     7
370
    15
100
AcDbText
 10
0.094674
 20
2.440856
 30
0.0
 40
0.7
  1
CORE 3
 41
1.084711
 72
     5
 11
4.469674
 21
2.440856
 31
0.0
100
AcDbText
  0
ENDBLK
  5
7D
330
7B
100
AcDbEntity
  8
0
100
AcDbBlockEnd
  0
BLOCK
  5
7F
330
7E
100
AcDbEntity
  8
0
100
AcDbBlockBegin
  2
BLOCK6
 70
     0
 10
0.0
 20
0.0
 30
0.0
  3
BLOCK6
  1

  0
POLYLINE
  5
C6
330
7E
100
AcDbEntity
  8
0
 62
     7
370
    30
100
AcDb2dPolyline
 66
     1
 10
0.0
 20
0.0
 30
0.0
  0
VERTEX
  5
C7
330
C6
100
AcDbEntity
  8
0
370
     0
100
AcDbVertex
100
AcDb2dVertex
 10
-1.904007
 20
0.957584
 30
0.0
 42
0.237191
  0
VERTEX
  5
C8
330
C6
100
AcDbEntity
  8
0
370
     0
100
AcDbVertex
100
AcDb2dVertex
 10
0.0
 20
-0.000033
 30
0.0
  0
SEQEND
  5
C9
330
C6
100
AcDbEntity
  8
0
 62
     7
370
    30
  0
SPLINE
  5
CA
330
7E
100
AcDbEntity
  8
0
 62
     7
370
    30
100
AcDbSpline
210
0.0
220
0.0
230
1.0
 70
     8
 71
     5
 72
    15
 73
     9
 74
     0
 42
0.000000001
 43
0.0
 40
0.0
 40
0.0
 40
0.0
 40
0.0
 40
0.0
 40
0.0
 40
132.4976837511711
 40
132.4976837511711
 40
132.4976837511711
 40
189.2755793444948
 40
189.2755793444948
 40
189.2755793444948
 40
189.2755793444948
 40
189.2755793444948
 40
189.2755793444948
 10
-0.0000000000022307
 20
-0.000000000000047
 30
0.0
 10
0.5978604764863142
 20
0.0000000114700914
 30
0.0
 10
1.195559814308472
 20
0.0050311028102515
 30
0.0
 10
1.792755821102935
 20
0.0138171435847718
 30
0.0
 10
2.646662315317754
 20
0.0305343699119422
 30
0.0
 10
3.500569230526393
 20
0.0518016442521059
 30
0.0
 10
3.756714906297069
 20
0.0585378535407122
 30
0.0
 10
4.012841733112414
 20
0.0655854913477154
 30
0.0
 10
4.26894747831422
 20
0.072909852193865
 30
0.0
  0
SPLINE
  5
CB
330
7E
100
AcDbEntity
  8
0
 62
     7
370
    30
100
AcDbSpline
210
0.0
220
0.0
230
1.0
 70
     8
 71
     5
 72
    63
 73
    57
 74
     0
 42
0.000000001
 43
0.0
 40
0.0
 40
0.0
 40
0.0
 40
0.0
 40
0.0
 40
0.0
 40
26.55256727135309
 40
26.55256727135309
 40
26.55256727135309
 40
41.30071495721091
 40
41.30071495721091
 40
41.30071495721091
 40
56.05762037171543
 40
56.05762037171543
 40
56.05762037171543
 40
64.9157975757253
 40
64.9157975757253
 40
64.9157975757253
 40
73.78058759205075
 40
73.78058759205075
 40
73.78058759205075
 40
94.49547073701551
 40
94.49547073701551
 40
94.49547073701551
 40
100.4116224237788
 40
100.4116224237788
 40
100.4116224237788
 40
115.1699677964288
 40
115.1699677964288
 40
115.1699677964288
 40
124.0241062364574
 40
124.0241062364574
 40
124.0241062364574
 40
147.6659384180155
 40
147.6659384180155
 40
147.6659384180155
 40
168.3601642982964
 40
168.3601642982964
 40
168.3601642982964
 40
177.2264911852289
 40
177.2264911852289
 40
177.2264911852289
 40
197.9077515308026
 40
197.9077515308026
 40
197.9077515308026
 40
206.776088799925
 40
206.776088799925
 40
206.776088799925
 40
233.4018797736728
 40
233.4018797736728
 40
233.4018797736728
 40
242.2737238843971
 40
242.2737238843971
 40
242.2737238843971
 40
254.1040651634433
 40
254.1040651634433
 40
254.1040651634433
 40
271.2089935926654
 40
271.2089935926654
 40
271.2089935926654
 40
271.2089935926654
 40
271.2089935926654
 40
271.2089935926654
 10
4.268947478314233
 20
0.0729098521938661
 30
0.0
 10
4.358637330754424
 20
0.075474875303009
 30
0.0
 10
4.448199451965464
 20
0.0822845444400677
 30
0.0
 10
4.537848171542415
 20
0.0934157557029129
 30
0.0
 10
4.675531418454363
 20
0.117146995693149
 30
0.0
 10
4.810967248630322
 20
0.1509198683112821
 30
0.0
 10
4.859071541562464
 20
0.1642703751754737
 30
0.0
 10
4.954602579735071
 20
0.1935095480690941
 30
0.0
 10
5.048491229118701
 20
0.2277358964331118
 30
0.0
 10
5.094860480863958
 20
0.2460400069125466
 30
0.0
 10
5.168362094637434
 20
0.2773149803036366
 30
0.0
 10
5.240404082351151
 20
0.3116006915260592
 30
0.0
 10
5.267200252300603
 20
0.3248745789412367
 30
0.0
 10
5.320388968431142
 20
0.352278311731881
 30
0.0
 10
5.37268702725115
 20
0.3813526604185042
 30
0.0
 10
5.398625238932796
 20
0.3963149482943017
 30
0.0
 10
5.484346146475184
 20
0.4475735404814564
 30
0.0
 10
5.56724564838823
 20
0.5032464565352309
 30
0.0
 10
5.6237633273801
 20
0.5443010982590952
 30
0.0
 10
5.694594286310928
 20
0.5998370788968971
 30
0.0
 10
5.762711682490942
 20
0.6586622958724903
 30
0.0
 10
5.777708425187304
 20
0.6718921348988989
 30
0.0
 10
5.829642714639947
 20
0.718691873894723
 30
0.0
 10
5.879899402595157
 20
0.7674507709981417
 30
0.0
 10
5.91490170166532
 20
0.8032405237483398
 30
0.0
 10
5.969319666881677
 20
0.8618880253138449
 30
0.0
 10
6.021138696746136
 20
0.9226748096209605
 30
0.0
 10
6.040196307412868
 20
0.9457621058273402
 30
0.0
 10
6.10877329778714
 20
1.031548082837605
 30
0.0
 10
6.172306126892397
 20
1.121167092158019
 30
0.0
 10
6.215735767597515
 20
1.188255654249363
 30
0.0
 10
6.291844695389398
 20
1.317420106067646
 30
0.0
 10
6.357475101990263
 20
1.452038214759878
 30
0.0
 10
6.385796135898278
 20
1.516000733670315
 30
0.0
 10
6.42280735126922
 20
1.608686646869034
 30
0.0
 10
6.454902231330245
 20
1.703223178673175
 30
0.0
 10
6.46408374215354
 20
1.73173799188825
 30
0.0
 10
6.493178591170735
 20
1.827223532328466
 30
0.0
 10
6.517204929534579
 20
1.924067160817752
 30
0.0
 10
6.531530545291584
 20
1.992594449011082
 30
0.0
 10
6.548343694366642
 20
2.090914199962652
 30
0.0
 10
6.559935792803414
 20
2.18978254833871
 30
0.0
 10
6.56294370718685
 20
2.219500890609707
 30
0.0
 10
6.573105246548077
 20
2.338652148139579
 30
0.0
 10
6.575740119798296
 20
2.458394465783976
 30
0.0
 10
6.573460507175153
 20
2.548164153396404
 30
0.0
 10
6.564738100804193
 20
2.667542907905065
 30
0.0
 10
6.548500237648061
 20
2.786057042393245
 30
0.0
 10
6.543972735044438
 20
2.815619686587441
 30
0.0
 10
6.532322271892335
 20
2.884414522472819
 30
0.0
 10
6.518140161498772
 20
2.952758590609258
 30
0.0
 10
6.509213060562508
 20
2.991639206155768
 30
0.0
 10
6.485368761897221
 20
3.086273142173603
 30
0.0
 10
6.45664662422524
 20
3.179650881119856
 30
0.0
 10
6.437973767691913
 20
3.234362726676517
 30
0.0
 10
6.41766370078639
 20
3.288407313078566
 30
0.0
 10
6.395725382350925
 20
3.341783472913857
 30
0.0
  0
POLYLINE
  5
CC
330
7E
100
AcDbEntity
  8
0
 62
     7
370
    30
100
AcDb2dPolyline
 66
     1
 10
0.0
 20
0.0
 30
0.0
  0
VERTEX
  5
CD
330
CC
100
AcDbEntity
  8
0
370
     0
100
AcDbVertex
100
AcDb2dVertex
 10
-0.184294
 20
5.219759
 30
0.0
 42
0.293996
  0
VERTEX
  5
CE
330
CC
100
AcDbEntity
  8
0
370
     0
100
AcDbVertex
100
AcDb2dVertex
 10
-2.267415
 20
3.722034
 30
0.0
  0
SEQEND
  5
CF
330
CC
100
AcDbEntity
  8
0
 62
     7
370
    30
  0
SPLINE
  5
D0
330
7E
100
AcDbEntity
  8
0
 62
     7
370
    30
100
AcDbSpline
210
0.0
220
0.0
230
1.0
 70
     8
 71
     5
 72
    12
 73
     6
 74
     0
 42
0.000000001
 43
0.0
 40
0.0
 40
0.0
 40
0.0
 40
0.0
 40
0.0
 40
0.0
 40
158.9931626108891
 40
158.9931626108891
 40
158.9931626108891
 40
158.9931626108891
 40
158.9931626108891
 40
158.9931626108891
 10
3.460137543664791
 20
5.403947011301545
 30
0.0
 10
2.733436289069899
 20
5.368173815003754
 30
0.0
 10
2.006745795630918
 20
5.33186049445265
 30
0.0
 10
1.269476095201469
 20
5.294474055308068
 30
0.0
 10
0.5426058371523482
 20
5.257080691676997
 30
0.0
 10
-0.184293095619142
 20
5.219741956334526
 30
0.0
  0
POLYLINE
  5
D1
330
7E
100
AcDbEntity
  8
0
 62
     7
370
    30
100
AcDb2dPolyline
 66
     1
 10
0.0
 20
0.0
 30
0.0
  0
VERTEX
  5
D2
330
D1
100
AcDbEntity
  8
0
370
     0
100
AcDbVertex
100
AcDb2dVertex
 10
5.209016
 20
4.755052
 30
0.0
 42
0.205016
  0
VERTEX
  5
D3
330
D1
100
AcDbEntity
  8
0
370
     0
100
AcDbVertex
100
AcDb2dVertex
 10
3.460138
 20
5.403948
 30
0.0
  0
SEQEND
  5
D4
330
D1
100
AcDbEntity
  8
0
 62
     7
370
    30
  0
LINE
  5
D5
330
7E
100
AcDbEntity
  8
0
 62
     7
370
    30
100
AcDbLine
 10
5.835048
 20
4.160453
 30
0.0
 11
5.209022
 21
4.755058
 31
0.0
  0
POLYLINE
  5
D6
330
7E
100
AcDbEntity
  8
0
 62
     7
370
    30
100
AcDb2dPolyline
 66
     1
 10
0.0
 20
0.0
 30
0.0
  0
VERTEX
  5
D7
330
D6
100
AcDbEntity
  8
0
370
     0
100
AcDbVertex
100
AcDb2dVertex
 10
6.395711
 20
3.341778
 30
0.0
 42
0.105648
  0
VERTEX
  5
D8
330
D6
100
AcDbEntity
  8
0
370
     0
100
AcDbVertex
100
AcDb2dVertex
 10
5.835055
 20
4.16046
 30
0.0
  0
SEQEND
  5
D9
330
D6
100
AcDbEntity
  8
0
 62
     7
370
    30
  0
LINE
  5
DA
330
7E
100
AcDbEntity
  8
0
 62
     7
370
    30
100
AcDbLine
 10
-2.401428
 20
2.461117
 30
0.0
 11
-2.413383
 21
2.555239
 31
0.0
  0
POLYLINE
  5
DB
330
7E
100
AcDbEntity
  8
0
 62
     7
370
    30
100
AcDb2dPolyline
 66
     1
 10
0.0
 20
0.0
 30
0.0
  0
VERTEX
  5
DC
330
DB
100
AcDbEntity
  8
0
370
     0
100
AcDbVertex
100
AcDb2dVertex
 10
-2.267422
 20
3.722045
 30
0.0
 42
0.126065
  0
VERTEX
  5
DD
330
DB
100
AcDbEntity
  8
0
370
     0
100
AcDbVertex
100
AcDb2dVertex
 10
-2.413364
 20
2.555242
 30
0.0
  0
SEQEND
  5
DE
330
DB
100
AcDbEntity
  8
0
 62
     7
370
    30
  0
LINE
  5
DF
330
7E
100
AcDbEntity
  8
0
 62
     7
370
    30
100
AcDbLine
 10
-2.401456
 20
2.46111
 30
0.0
 11
-2.351784
 21
2.070155
 31
0.0
  0
POLYLINE
  5
E0
330
7E
100
AcDbEntity
  8
0
 62
     7
370
    30
100
AcDb2dPolyline
 66
     1
 10
0.0
 20
0.0
 30
0.0
  0
VERTEX
  5
E1
330
E0
100
AcDbEntity
  8
0
370
     0
100
AcDbVertex
100
AcDb2dVertex
 10
-2.351776
 20
2.070156
 30
0.0
 42
0.128829
  0
VERTEX
  5
E2
330
E0
100
AcDbEntity
  8
0
370
     0
100
AcDbVertex
100
AcDb2dVertex
 10
-1.904022
 20
0.95758
 30
0.0
  0
SEQEND
  5
E3
330
E0
100
AcDbEntity
  8
0
 62
     7
370
    30
  0
ENDBLK
  5
80
330
7E
100
AcDbEntity
  8
0
100
AcDbBlockEnd
  0
BLOCK
  5
82
330
81
100
AcDbEntity
  8
0
100
AcDbBlockBegin
  2
BLOCK7
 70
     0
 10
0.0
 20
0.0
 30
0.0
  3
BLOCK7
  1

  0
TEXT
  5
E4
330
81
100
AcDbEntity
  8
0
 62
     7
370
    15
100
AcDbText
 10
-0.219575
 20
2.519418
 30
0.0
 40
0.7
  1
CORE 4
 41
1.07582
 72
     5
 11
4.155425
 21
2.519418
 31
0.0
100
AcDbText
  0
ENDBLK
  5
83
330
81
100
AcDbEntity
  8
0
100
AcDbBlockEnd
  0
BLOCK
  5
85
330
84
100
AcDbEntity
  8
0
100
AcDbBlockBegin
  2
BLOCK8
 70
     0
 10
0.0
 20
0.0
 30
0.0
  3
BLOCK8
  1

  0
SPLINE
  5
E5
330
84
100
AcDbEntity
  8
0
 62
     7
370
    30
100
AcDbSpline
210
0.0
220
0.0
230
1.0
 70
     8
 71
     5
 72
    45
 73
    39
 74
     0
 42
0.000000001
 43
0.0
 40
0.0
 40
0.0
 40
0.0
 40
0.0
 40
0.0
 40
0.0
 40
18.71266987018403
 40
18.71266987018403
 40
18.71266987018403
 40
32.07556257918819
 40
32.07556257918819
 40
32.07556257918819
 40
40.10270350472351
 40
40.10270350472351
 40
40.10270350472351
 40
50.8163222997429
 40
50.8163222997429
 40
50.8163222997429
 40
64.17828736173318
 40
64.17828736173318
 40
64.17828736173318
 40
77.54073711831029
 40
77.54073711831029
 40
77.54073711831029
 40
82.89165070068184
 40
82.89165070068184
 40
82.89165070068184
 40
90.91150282113317
 40
90.91150282113317
 40
90.91150282113317
 40
104.29065062944
 40
104.29065062944
 40
104.29065062944
 40
123.0157297935294
 40
123.0157297935294
 40
123.0157297935294
 40
128.368220479254
 40
128.368220479254
 40
128.368220479254
 40
139.1199005001623
 40
139.1199005001623
 40
139.1199005001623
 40
139.1199005001623
 40
139.1199005001623
 40
139.1199005001623
 10
-0.0000000000000036
 20
0.0000000000000711
 30
0.0
 10
-0.0698023232750043
 20
0.0000000000000715
 30
0.0
 10
-0.1396109245213514
 20
0.0025688045951158
 30
0.0
 10
-0.2095718874101719
 20
0.0077442825057211
 30
0.0
 10
-0.3287243020065593
 20
0.0209577068891011
 30
0.0
 10
-0.4466521513279526
 20
0.0416494432782282
 30
0.0
 10
-0.4957093926145229
 20
0.0515920969425838
 30
0.0
 10
-0.5734649123198212
 20
0.0694850304773544
 30
0.0
 10
-0.6503333685103359
 20
0.0906184909420173
 30
0.0
 10
-0.6790579204606872
 20
0.0990066950535055
 30
0.0
 10
-0.7458085310987715
 20
0.1196470611129376
 30
0.0
 10
-0.8118184115778362
 20
0.1427451185578657
 30
0.0
 10
-0.8492310158293074
 20
0.1567216102962954
 30
0.0
 10
-0.9327883074185125
 20
0.1899770723777453
 30
0.0
 10
-1.014788331181012
 20
0.2272023644853682
 30
0.0
 10
-1.059786707848189
 20
0.2490677053574178
 30
0.0
 10
-1.148451002955713
 20
0.2950628401113251
 30
0.0
 10
-1.234481954646423
 20
0.3456106268044752
 30
0.0
 10
-1.276883277712989
 20
0.372046687131774
 30
0.0
 10
-1.3352593716561
 20
0.4106050506103764
 30
0.0
 10
-1.392158323847984
 20
0.4512667454868934
 30
0.0
 10
-1.408304549502372
 20
0.4630638724436741
 30
0.0
 10
-1.448324484862274
 20
0.4929560652342125
 30
0.0
 10
-1.487535728712922
 20
0.5238853287049133
 30
0.0
 10
-1.510779409450324
 20
0.5428211141441527
 30
0.0
 10
-1.57194696490891
 20
0.5942665203849813
 30
0.0
 10
-1.630831378695303
 20
0.6481749956883482
 30
0.0
 10
-1.666690814271055
 20
0.6827928942363357
 30
0.0
 10
-1.750739822375091
 20
0.7682866350192938
 30
0.0
 10
-1.829402874901703
 20
0.8590732767051216
 30
0.0
 10
-1.873161150832213
 20
0.9135448584785739
 30
0.0
 10
-1.926884057046067
 20
0.9856603959199689
 30
0.0
 10
-1.977140450025643
 20
1.060250307552017
 30
0.0
 10
-1.988139560916563
 20
1.076952985880956
 30
0.0
 10
-2.020704437300421
 20
1.127558704519877
 30
0.0
 10
-2.051666473697322
 20
1.1791999062994
 30
0.0
 10
-2.07161133470672
 20
1.214118911214366
 30
0.0
 10
-2.090784265114944
 20
1.249402706381739
 30
0.0
 10
-2.109206184817881
 20
1.285084777839967
 30
0.0
  0
SPLINE
  5
E6
330
84
100
AcDbEntity
  8
0
 62
     7
370
    30
100
AcDbSpline
210
0.0
220
0.0
230
1.0
 70
     8
 71
     5
 72
    15
 73
     9
 74
     0
 42
0.000000001
 43
0.0
 40
0.0
 40
0.0
 40
0.0
 40
0.0
 40
0.0
 40
0.0
 40
140.4685915900876
 40
140.4685915900876
 40
140.4685915900876
 40
175.5821504822194
 40
175.5821504822194
 40
175.5821504822194
 40
175.5821504822194
 40
175.5821504822194
 40
175.5821504822194
 10
-0.0000000000026296
 20
-0.000000000000017
 30
0.0
 10
0.6247817306927198
 20
0.0000000015485235
 30
0.0
 10
1.249447203366433
 20
0.002716559962954
 30
0.0
 10
1.874116635971908
 20
0.0071558757501729
 30
0.0
 10
2.654926922703214
 20
0.0141041433634371
 30
0.0
 10
3.4357090755789
 20
0.0223100170024238
 30
0.0
 10
3.591851234080676
 20
0.0239964294801396
 30
0.0
 10
3.747990317654653
 20
0.0257243911151845
 30
0.0
 10
3.904125191592822
 20
0.0274910988279991
 30
0.0
  0
SPLINE
  5
E7
330
84
100
AcDbEntity
  8
0
 62
     7
370
    30
100
AcDbSpline
210
0.0
220
0.0
230
1.0
 70
     8
 71
     5
 72
    81
 73
    75
 74
     0
 42
0.000000001
 43
0.0
 40
0.0
 40
0.0
 40
0.0
 40
0.0
 40
0.0
 40
0.0
 40
26.76569413800869
 40
26.76569413800869
 40
26.76569413800869
 40
40.14999677506172
 40
40.14999677506172
 40
40.14999677506172
 40
53.53281261687108
 40
53.53281261687108
 40
53.53281261687108
 40
66.9151917853905
 40
66.9151917853905
 40
66.9151917853905
 40
80.28760710691884
 40
80.28760710691884
 40
80.28760710691884
 40
85.640724040837
 40
85.640724040837
 40
85.640724040837
 40
93.66900219742641
 40
93.66900219742641
 40
93.66900219742641
 40
109.7361536198402
 40
109.7361536198402
 40
109.7361536198402
 40
120.4492153908022
 40
120.4492153908022
 40
120.4492153908022
 40
133.8161356119285
 40
133.8161356119285
 40
133.8161356119285
 40
141.833809966327
 40
141.833809966327
 40
141.833809966327
 40
147.1824685224999
 40
147.1824685224999
 40
147.1824685224999
 40
155.1976386067978
 40
155.1976386067978
 40
155.1976386067978
 40
160.5460948851862
 40
160.5460948851862
 40
160.5460948851862
 40
173.8967462402047
 40
173.8967462402047
 40
173.8967462402047
 40
187.2425519450301
 40
187.2425519450301
 40
187.2425519450301
 40
213.9516974529829
 40
213.9516974529829
 40
213.9516974529829
 40
232.6594468217265
 40
232.6594468217265
 40
232.6594468217265
 40
238.006060483915
 40
238.006060483915
 40
238.006060483915
 40
251.3490787797375
 40
251.3490787797375
 40
251.3490787797375
 40
259.3636806386831
 40
259.3636806386831
 40
259.3636806386831
 40
272.7255032796409
 40
272.7255032796409
 40
272.7255032796409
 40
278.0755026348673
 40
278.0755026348673
 40
278.0755026348673
 40
288.3848342813048
 40
288.3848342813048
 40
288.3848342813048
 40
288.3848342813048
 40
288.3848342813048
 40
288.3848342813048
 10
3.904125191592844
 20
0.0274910988278565
 30
0.0
 10
4.003902758648124
 20
0.0286201076802216
 30
0.0
 10
4.103614308170598
 20
0.034998382426803
 30
0.0
 10
4.202950230763587
 20
0.0466270367767538
 30
0.0
 10
4.350709441958947
 20
0.0718744233078222
 30
0.0
 10
4.49592578131575
 20
0.1086661710270642
 30
0.0
 10
4.544014426000759
 20
0.1222024275630015
 30
0.0
 10
4.639324169603399
 20
0.1517627958057413
 30
0.0
 10
4.732900817115276
 20
0.1862807236233682
 30
0.0
 10
4.77932885207079
 20
0.2048039301157789
 30
0.0
 10
4.871033576873545
 20
0.2442132946843166
 30
0.0
 10
4.960636061595222
 20
0.288450087413227
 30
0.0
 10
5.004934607937724
 20
0.3117854083134202
 30
0.0
 10
5.091992112150963
 20
0.3606067988944617
 30
0.0
 10
5.176369635530066
 20
0.4139440429016199
 30
0.0
 10
5.217908446676359
 20
0.4417616330952647
 30
0.0
 10
5.275040403329237
 20
0.4822327775565114
 30
0.0
 10
5.330624970658489
 20
0.5247544266048818
 30
0.0
 10
5.346385529282339
 20
0.5370756488443075
 30
0.0
 10
5.385442171990941
 20
0.5682767480558423
 30
0.0
 10
5.423641949334577
 20
0.6004773999681409
 30
0.0
 10
5.446218832983336
 20
0.6201295184134737
 30
0.0
 10
5.513154823232427
 20
0.6802697139082865
 30
0.0
 10
5.577129691467173
 20
0.7434483725078903
 30
0.0
 10
5.618300268434741
 20
0.7867648752078058
 30
0.0
 10
5.684789551179833
 20
0.8612899125552786
 30
0.0
 10
5.747372876500163
 20
0.9393031340929406
 30
0.0
 10
5.771710715143573
 20
0.9709893092751716
 30
0.0
 10
5.825022203920547
 20
1.043521391460934
 30
0.0
 10
5.874865842063883
 20
1.11852418835243
 30
0.0
 10
5.901431745327888
 20
1.16086645773807
 30
0.0
 10
5.942057251785146
 20
1.229572459540694
 30
0.0
 10
5.979760492864745
 20
1.29994060028513
 30
0.0
 10
5.993497486367893
 20
1.326581574060336
 30
0.0
 10
6.015693737885481
 20
1.371343218469744
 30
0.0
 10
6.036691487930455
 20
1.416638923877728
 30
0.0
 10
6.044898268415665
 20
1.434842458345067
 30
0.0
 10
6.064918967749253
 20
1.480533497274282
 30
0.0
 10
6.083733954989492
 20
1.526742365827317
 30
0.0
 10
6.094570487471871
 20
1.554606912594969
 30
0.0
 10
6.111898255127434
 20
1.60133417602237
 30
0.0
 10
6.128001470044663
 20
1.648527141346176
 30
0.0
 10
6.134251323075222
 20
1.667491434211487
 30
0.0
 10
6.155401045689074
 20
1.734016962944294
 30
0.0
 10
6.174100234737584
 20
1.801342891003402
 30
0.0
 10
6.186197996265646
 20
1.849834648420436
 30
0.0
 10
6.207815720980424
 20
1.947318483132867
 30
0.0
 10
6.224259200049982
 20
2.045696876795539
 30
0.0
 10
6.231173696074258
 20
2.09506090393592
 30
0.0
 10
6.24801860557308
 20
2.243686291237917
 30
0.0
 10
6.253098146557158
 20
2.393337302297559
 30
0.0
 10
6.251227322344484
 20
2.493183722684635
 30
0.0
 10
6.239073302214067
 20
2.662547852034145
 30
0.0
 10
6.211926080182965
 20
2.829754239822059
 30
0.0
 10
6.198220701751256
 20
2.898096336961049
 30
0.0
 10
6.177330488311193
 20
2.985411593472226
 30
0.0
 10
6.15232583294304
 20
3.071672449870666
 30
0.0
 10
6.146565007115435
 20
3.090792341411577
 30
0.0
 10
6.125731895087617
 20
3.15738873996081
 30
0.0
 10
6.102434688589735
 20
3.223224522864398
 30
0.0
 10
6.084515545775737
 20
3.269909126051712
 30
0.0
 10
6.053926513022901
 20
3.343753856676931
 30
0.0
 10
6.020317101172114
 20
3.416113903095463
 30
0.0
 10
6.007279262383742
 20
3.44305612030583
 30
0.0
 10
5.971389789355298
 20
3.514340215539237
 30
0.0
 10
5.932555631803587
 20
3.584020596064363
 30
0.0
 10
5.907136118103089
 20
3.626931629025591
 30
0.0
 10
5.869921663490553
 20
3.686151149046223
 30
0.0
 10
5.830569365171789
 20
3.743937583682902
 30
0.0
 10
5.819158825303106
 20
3.76031801126877
 30
0.0
 10
5.785168637617333
 20
3.808030996042088
 30
0.0
 10
5.749644374112285
 20
3.854783500999735
 30
0.0
 10
5.725615195550945
 20
3.885117567871963
 30
0.0
 10
5.701056607392747
 20
3.914846848419597
 30
0.0
 10
5.675910838229835
 20
3.944060087998098
 30
0.0
  0
POLYLINE
  5
E8
330
84
100
AcDbEntity
  8
0
 62
     7
370
    30
100
AcDb2dPolyline
 66
     1
 10
0.0
 20
0.0
 30
0.0
  0
VERTEX
  5
E9
330
E8
100
AcDbEntity
  8
0
370
     0
100
AcDbVertex
100
AcDb2dVertex
 10
4.897039
 20
4.854597
 30
0.0
 42
0.001606
  0
VERTEX
  5
EA
330
E8
100
AcDbEntity
  8
0
370
     0
100
AcDbVertex
100
AcDb2dVertex
 10
5.675917
 20
3.944065
 30
0.0
  0
SEQEND
  5
EB
330
E8
100
AcDbEntity
  8
0
 62
     7
370
    30
  0
SPLINE
  5
EC
330
84
100
AcDbEntity
  8
0
 62
     7
370
    30
100
AcDbSpline
210
0.0
220
0.0
230
1.0
 70
     8
 71
     5
 72
    42
 73
    36
 74
     0
 42
0.000000001
 43
0.0
 40
0.0
 40
0.0
 40
0.0
 40
0.0
 40
0.0
 40
0.0
 40
10.67861338069284
 40
10.67861338069284
 40
10.67861338069284
 40
18.68830491481723
 40
18.68830491481723
 40
18.68830491481723
 40
29.37315995064418
 40
29.37315995064418
 40
29.37315995064418
 40
37.37045199915138
 40
37.37045199915138
 40
37.37045199915138
 40
48.03803477383388
 40
48.03803477383388
 40
48.03803477383388
 40
53.36305653428701
 40
53.36305653428701
 40
53.36305653428701
 40
64.01489560858246
 40
64.01489560858246
 40
64.01489560858246
 40
77.32266482271739
 40
77.32266482271739
 40
77.32266482271739
 40
85.30002717903197
 40
85.30002717903197
 40
85.30002717903197
 40
98.58390809724904
 40
98.58390809724904
 40
98.58390809724904
 40
108.1503867296356
 40
108.1503867296356
 40
108.1503867296356
 40
108.1503867296356
 40
108.1503867296356
 40
108.1503867296356
 10
4.897044494663953
 20
4.854601473326636
 30
0.0
 10
4.871179570733246
 20
4.885042784492109
 30
0.0
 10
4.84467978564999
 20
4.914934710202946
 30
0.0
 10
4.817509619716243
 20
4.94431317365795
 30
0.0
 10
4.768901998510025
 20
4.994706444676661
 30
0.0
 10
4.718493539097754
 20
5.043257083935818
 30
0.0
 10
4.696567628371056
 20
5.063714574560152
 30
0.0
 10
4.644650291304775
 20
5.110648999208846
 30
0.0
 10
4.591117262895866
 20
5.155593791763622
 30
0.0
 10
4.560008677569414
 20
5.180617536358921
 30
0.0
 10
4.504670453637287
 20
5.223232618239293
 30
0.0
 10
4.447689357761727
 20
5.263858372123831
 30
0.0
 10
4.422993396176174
 20
5.28088818973753
 30
0.0
 10
4.364774078987537
 20
5.319696857660815
 30
0.0
 10
4.305158416991969
 20
5.356344105846394
 30
0.0
 10
4.270628900420189
 20
5.376581838107922
 30
0.0
 10
4.218242015072637
 20
5.405817313406207
 30
0.0
 10
4.164968544772695
 20
5.433378908674782
 30
0.0
 10
4.147139432596174
 20
5.442366928164566
 30
0.0
 10
4.093344397257851
 20
5.468779904754564
 30
0.0
 10
4.038701435781185
 20
5.493503907836471
 30
0.0
 10
4.00190663804316
 20
5.509231610526388
 30
0.0
 10
3.918512020847257
 20
5.542804679958842
 30
0.0
 10
3.833630387690651
 20
5.5723959461347
 30
0.0
 10
3.7860945919653
 20
5.587587950726887
 30
0.0
 10
3.709464782199138
 20
5.609863116457268
 30
0.0
 10
3.631889666805313
 20
5.628906602814539
 30
0.0
 10
3.602686197394402
 20
5.635588843676575
 30
0.0
 10
3.52456510942123
 20
5.65217793701662
 30
0.0
 10
3.445803876614639
 20
5.665471004583428
 30
0.0
 10
3.396293194776451
 20
5.672481313959285
 30
0.0
 10
3.310885136850371
 20
5.682300532032099
 30
0.0
 10
3.225165703766399
 20
5.688252707029485
 30
0.0
 10
3.189231325276994
 20
5.690064752197521
 30
0.0
 10
3.153311607833186
 20
5.691189732328581
 30
0.0
 10
3.1173839665572
 20
5.691634237242514
 30
0.0
  0
SPLINE
  5
ED
330
84
100
AcDbEntity
  8
0
 62
     7
370
    30
100
AcDbSpline
210
0.0
220
0.0
230
1.0
 70
     8
 71
     5
 72
    12
 73
     6
 74
     0
 42
0.000000001
 43
0.0
 40
0.0
 40
0.0
 40
0.0
 40
0.0
 40
0.0
 40
0.0
 40
137.9531341141581
 40
137.9531341141581
 40
137.9531341141581
 40
137.9531341141581
 40
137.9531341141581
 40
137.9531341141581
 10
3.117383966559242
 20
5.691634237242458
 30
0.0
 10
2.49675340162754
 20
5.699312813296846
 30
0.0
 10
1.876073336076616
 20
5.709350214941574
 30
0.0
 10
1.252886753150479
 20
5.722431418999395
 30
0.0
 10
0.631919711925809
 20
5.739325074508008
 30
0.0
 10
0.0110028358771159
 20
5.761094767471723
 30
0.0
  0
SPLINE
  5
EE
330
84
100
AcDbEntity
  8
0
 62
     7
370
    30
100
AcDbSpline
210
0.0
220
0.0
230
1.0
 70
     8
 71
     5
 72
    60
 73
    54
 74
     0
 42
0.000000001
 43
0.0
 40
0.0
 40
0.0
 40
0.0
 40
0.0
 40
0.0
 40
0.0
 40
13.27104239910963
 40
13.27104239910963
 40
13.27104239910963
 40
18.58727409288613
 40
18.58727409288613
 40
18.58727409288613
 40
26.54813954998557
 40
26.54813954998557
 40
26.54813954998557
 40
47.81991504002897
 40
47.81991504002897
 40
47.81991504002897
 40
53.14316180278178
 40
53.14316180278178
 40
53.14316180278178
 40
66.43946844276294
 40
66.43946844276294
 40
66.43946844276294
 40
74.41742109911296
 40
74.41742109911296
 40
74.41742109911296
 40
90.39870701398776
 40
90.39870701398776
 40
90.39870701398776
 40
103.7314704726692
 40
103.7314704726692
 40
103.7314704726692
 40
111.7321679493619
 40
111.7321679493619
 40
111.7321679493619
 40
117.0709673801055
 40
117.0709673801055
 40
117.0709673801055
 40
125.0749862678258
 40
125.0749862678258
 40
125.0749862678258
 40
130.4174321680919
 40
130.4174321680919
 40
130.4174321680919
 40
138.4247042972044
 40
138.4247042972044
 40
138.4247042972044
 40
143.766318280183
 40
143.766318280183
 40
143.766318280183
 40
149.1070840141495
 40
149.1070840141495
 40
149.1070840141495
 40
161.4772649751662
 40
161.4772649751662
 40
161.4772649751662
 40
161.4772649751662
 40
161.4772649751662
 40
161.4772649751662
 10
0.0110028358802222
 20
5.761094767471623
 30
0.0
 10
-0.0388176873408955
 20
5.762841502846024
 30
0.0
 10
-0.0886824256357619
 20
5.763279139724477
 30
0.0
 10
-0.1386623352195118
 20
5.762390751359026
 30
0.0
 10
-0.20855530168273
 20
5.759322025381128
 30
0.0
 10
-0.2782258527851622
 20
5.753693796055668
 30
0.0
 10
-0.2981328859620314
 20
5.751874403657847
 30
0.0
 10
-0.3477739582925679
 20
5.746808060145966
 30
0.0
 10
-0.3972356671189957
 20
5.740436290031909
 30
0.0
 10
-0.4268393368681555
 20
5.736145592107615
 30
0.0
 10
-0.5352389110196782
 20
5.718694148015823
 30
0.0
 10
-0.6424248348462641
 20
5.695022816149864
 30
0.0
 10
-0.7194910583953456
 20
5.674554654188909
 30
0.0
 10
-0.8148149014206062
 20
5.644890928583854
 30
0.0
 10
-0.9084316447706824
 20
5.610274494922987
 30
0.0
 10
-0.9270985396658451
 20
5.603148330479113
 30
0.0
 10
-0.9921200900981695
 20
5.577536425826403
 30
0.0
 10
-1.056214525269417
 20
5.549514121198658
 30
0.0
 10
-1.101540060132145
 20
5.528263160329032
 30
0.0
 10
-1.173019364470189
 20
5.492434235081942
 30
0.0
 10
-1.242806540131431
 20
5.453693314848908
 30
0.0
 10
-1.268746203441583
 20
5.438750243455935
 30
0.0
 10
-1.34591723002461
 20
5.392668733901917
 30
0.0
 10
-1.420783946394632
 20
5.343026325966885
 30
0.0
 10
-1.469564031794145
 20
5.308406884346736
 30
0.0
 10
-1.557171567826311
 20
5.241992738206559
 30
0.0
 10
-1.64081018900017
 20
5.170630413066135
 30
0.0
 10
-1.677945532363178
 20
5.137214967396644
 30
0.0
 10
-1.735933019942895
 20
5.082210124601577
 30
0.0
 10
-1.791567143643546
 20
5.024811931326054
 30
0.0
 10
-1.812093561988639
 20
5.002955435758161
 30
0.0
 10
-1.845718402368809
 20
4.966003973017357
 30
0.0
 10
-1.878334283625334
 20
4.928212744096906
 30
0.0
 10
-1.891226555062949
 20
4.912953208036623
 30
0.0
 10
-1.923050701909785
 20
4.874470802916995
 30
0.0
 10
-1.953868931056172
 20
4.835142341811181
 30
0.0
 10
-1.971994594193762
 20
4.811245835834788
 30
0.0
 10
-2.001568279962514
 20
4.770957309899397
 30
0.0
 10
-2.030044575433059
 20
4.72994841305761
 30
0.0
 10
-2.041266490517003
 20
4.713418201906467
 30
0.0
 10
-2.068863385251909
 20
4.671833177568149
 30
0.0
 10
-2.095367641857501
 20
4.629518445622264
 30
0.0
 10
-2.11088138106937
 20
4.603857535370409
 30
0.0
 10
-2.136058812466815
 20
4.560692216437593
 30
0.0
 10
-2.160083687906106
 20
4.516903985704045
 30
0.0
 10
-2.169510437679217
 20
4.49928636530144
 30
0.0
 10
-2.187979811706746
 20
4.463878333970857
 30
0.0
 10
-2.205689272776904
 20
4.428109036469155
 30
0.0
 10
-2.214353811039818
 20
4.410135878549406
 30
0.0
 10
-2.242467896488389
 20
4.350208078253377
 30
0.0
 10
-2.268523172755327
 20
4.289210540012546
 30
0.0
 10
-2.285738155151011
 20
4.246047792424354
 30
0.0
 10
-2.3017976756075
 20
4.202718860479189
 30
0.0
 10
-2.316795185647652
 20
4.159016267583671
 30
0.0
  0
POLYLINE
  5
EF
330
84
100
AcDbEntity
  8
0
 62
     7
370
    30
100
AcDb2dPolyline
 66
     1
 10
0.0
 20
0.0
 30
0.0
  0
VERTEX
  5
F0
330
EF
100
AcDbEntity
  8
0
370
     0
100
AcDbVertex
100
AcDb2dVertex
 10
-2.31681
 20
4.159035
 30
0.0
 42
0.100672
  0
VERTEX
  5
F1
330
EF
100
AcDbEntity
  8
0
370
     0
100
AcDbVertex
100
AcDb2dVertex
 10
-2.438988
 20
3.223511
 30
0.0
  0
SEQEND
  5
F2
330
EF
100
AcDbEntity
  8
0
 62
     7
370
    30
  0
POLYLINE
  5
F3
330
84
100
AcDbEntity
  8
0
 62
     7
370
    30
100
AcDb2dPolyline
 66
     1
 10
0.0
 20
0.0
 30
0.0
  0
VERTEX
  5
F4
330
F3
100
AcDbEntity
  8
0
370
     0
100
AcDbVertex
100
AcDb2dVertex
 10
-2.367139
 20
2.205096
 30
0.0
 42
0.000151
  0
VERTEX
  5
F5
330
F3
100
AcDbEntity
  8
0
370
     0
100
AcDbVertex
100
AcDb2dVertex
 10
-2.439002
 20
3.22351
 30
0.0
  0
SEQEND
  5
F6
330
F3
100
AcDbEntity
  8
0
 62
     7
370
    30
  0
POLYLINE
  5
F7
330
84
100
AcDbEntity
  8
0
 62
     7
370
    30
100
AcDb2dPolyline
 66
     1
 10
0.0
 20
0.0
 30
0.0
  0
VERTEX
  5
F8
330
F7
100
AcDbEntity
  8
0
370
     0
100
AcDbVertex
100
AcDb2dVertex
 10
-2.367135
 20
2.205097
 30
0.0
 42
0.101988
  0
VERTEX
  5
F9
330
F7
100
AcDbEntity
  8
0
370
     0
100
AcDbVertex
100
AcDb2dVertex
 10
-2.109214
 20
1.285081
 30
0.0
  0
SEQEND
  5
FA
330
F7
100
AcDbEntity
  8
0
 62
     7
370
    30
  0
ENDBLK
  5
86
330
84
100
AcDbEntity
  8
0
100
AcDbBlockEnd
  0
BLOCK
  5
88
330
87
100
AcDbEntity
  8
0
100
AcDbBlockBegin
  2
BLOCK9
 70
     0
 10
0.0
 20
0.0
 30
0.0
  3
BLOCK9
  1

  0
TEXT
  5
FB
330
87
100
AcDbEntity
  8
0
 62
     7
370
    15
100
AcDbText
 10
0.016107
 20
2.519418
 30
0.0
 40
0.7
  1
CORE 5
 41
1.084711
 72
     5
 11
4.391107
 21
2.519418
 31
0.0
100
AcDbText
  0
ENDBLK
  5
89
330
87
100
AcDbEntity
  8
0
100
AcDbBlockEnd
  0
BLOCK
  5
8B
330
8A
100
AcDbEntity
  8
0
100
AcDbBlockBegin
  2
BLOCK10
 70
     0
 10
0.0
 20
0.0
 30
0.0
  3
BLOCK10
  1

  0
SPLINE
  5
FC
330
8A
100
AcDbEntity
  8
0
 62
     7
370
    30
100
AcDbSpline
210
0.0
220
0.0
230
1.0
 70
     8
 71
     5
 72
    36
 73
    30
 74
     0
 42
0.000000001
 43
0.0
 40
0.0
 40
0.0
 40
0.0
 40
0.0
 40
0.0
 40
0.0
 40
18.58068631320653
 40
18.58068631320653
 40
18.58068631320653
 40
23.89303992300093
 40
23.89303992300093
 40
23.89303992300093
 40
29.20018234113924
 40
29.20018234113924
 40
29.20018234113924
 40
42.46285697133859
 40
42.46285697133859
 40
42.46285697133859
 40
55.74676158736561
 40
55.74676158736561
 40
55.74676158736561
 40
71.70011685345023
 40
71.70011685345023
 40
71.70011685345023
 40
82.34843247440172
 40
82.34843247440172
 40
82.34843247440172
 40
95.65782043875876
 40
95.65782043875876
 40
95.65782043875876
 40
105.5629323407626
 40
105.5629323407626
 40
105.5629323407626
 40
105.5629323407626
 40
105.5629323407626
 40
105.5629323407626
 10
0.0000000000000048
 20
0.000000000000071
 30
0.0
 10
-0.0698161708336792
 20
0.0000000000000718
 30
0.0
 10
-0.1396298700998174
 20
0.0025697273664189
 30
0.0
 10
-0.2094752830592574
 20
0.0077362894909832
 30
0.0
 10
-0.2988497190407048
 20
0.0176548630119684
 30
0.0
 10
-0.3875659621444032
 20
0.0317754315517981
 30
0.0
 10
-0.4072583877999668
 20
0.0351229240590238
 30
0.0
 10
-0.4465400478894249
 20
0.042227438653667
 30
0.0
 10
-0.4856569817171118
 20
0.0501570646377752
 30
0.0
 10
-0.5051795123650243
 20
0.0543288585355349
 30
0.0
 10
-0.573281863060388
 20
0.0696332090132439
 30
0.0
 10
-0.6408040623734822
 20
0.0874485075151203
 30
0.0
 10
-0.6887341860335818
 20
0.1014546200960552
 30
0.0
 10
-0.7838646597467324
 20
0.1319813019048265
 30
0.0
 10
-0.8771516791829268
 20
0.1674173783045442
 30
0.0
 10
-0.9232206898529909
 20
0.1863245493952156
 30
0.0
 10
-1.023700728435723
 20
0.2306819538292026
 30
0.0
 10
-1.121393906224482
 20
0.2807355696110413
 30
0.0
 10
-1.173827094745724
 20
0.3097249632137389
 30
0.0
 10
-1.259686350805306
 20
0.360806156371088
 30
0.0
 10
-1.342731802294702
 20
0.4163088293727405
 30
0.0
 10
-1.375470805684164
 20
0.4391964907065296
 30
0.0
 10
-1.44794041831195
 20
0.4921727365729742
 30
0.0
 10
-1.517815112992464
 20
0.5485190455325192
 30
0.0
 10
-1.555953026259602
 20
0.5809504047165444
 30
0.0
 10
-1.620787862169962
 20
0.6390978680499342
 30
0.0
 10
-1.68286925382089
 20
0.7001325940330135
 30
0.0
 10
-1.708845053342225
 20
0.7266885444451995
 30
0.0
 10
-1.734270826296097
 20
0.7537186382431543
 30
0.0
 10
-1.759163002679392
 20
0.7812387728159702
 30
0.0
  0
SPLINE
  5
FD
330
8A
100
AcDbEntity
  8
0
 62
     7
370
    30
100
AcDbSpline
210
0.0
220
0.0
230
1.0
 70
     8
 71
     5
 72
    15
 73
     9
 74
     0
 42
0.000000001
 43
0.0
 40
0.0
 40
0.0
 40
0.0
 40
0.0
 40
0.0
 40
0.0
 40
106.6533888197971
 40
106.6533888197971
 40
106.6533888197971
 40
152.132831088956
 40
152.132831088956
 40
152.132831088956
 40
152.132831088956
 40
152.132831088956
 40
152.132831088956
 10
-0.000000000001994
 20
-0.0000000000000775
 30
0.0
 10
0.480568630659681
 20
-0.0000000143413284
 30
0.0
 10
0.9610164048091114
 20
-0.0032744313601539
 30
0.0
 10
1.44068755765861
 20
-0.0092988644339015
 30
0.0
 10
2.125461340915307
 20
-0.0213635927763891
 30
0.0
 10
2.809915582865099
 20
-0.0373571177854077
 30
0.0
 10
3.018875625430595
 20
-0.0425585120902094
 30
0.0
 10
3.223437224990349
 20
-0.0479224149353006
 30
0.0
 10
3.427971046950903
 20
-0.0535555006547846
 30
0.0
  0
SPLINE
  5
FE
330
8A
100
AcDbEntity
  8
0
 62
     7
370
    30
100
AcDbSpline
210
0.0
220
0.0
230
1.0
 70
     8
 71
     5
 72
    54
 73
    48
 74
     0
 42
0.000000001
 43
0.0
 40
0.0
 40
0.0
 40
0.0
 40
0.0
 40
0.0
 40
0.0
 40
1.987956410134793
 40
1.987956410134793
 40
1.987956410134793
 40
3.973330084790359
 40
3.973330084790359
 40
3.973330084790359
 40
21.23218189013558
 40
21.23218189013558
 40
21.23218189013558
 40
31.86596005281293
 40
31.86596005281293
 40
31.86596005281293
 40
45.16208298170979
 40
45.16208298170979
 40
45.16208298170979
 40
53.1367710433336
 40
53.1367710433336
 40
53.1367710433336
 40
66.46204858204767
 40
66.46204858204767
 40
66.46204858204767
 40
77.14231822008797
 40
77.14231822008797
 40
77.14231822008797
 40
85.1402438370324
 40
85.1402438370324
 40
85.1402438370324
 40
98.49022114945599
 40
98.49022114945599
 40
98.49022114945599
 40
109.1675842193887
 40
109.1675842193887
 40
109.1675842193887
 40
117.1695117803138
 40
117.1695117803138
 40
117.1695117803138
 40
122.5135965111849
 40
122.5135965111849
 40
122.5135965111849
 40
127.8541445777356
 40
127.8541445777356
 40
127.8541445777356
 40
138.06601350546
 40
138.06601350546
 40
138.06601350546
 40
138.06601350546
 40
138.06601350546
 40
138.06601350546
 10
3.427971046828635
 20
-0.0535555039659382
 30
0.0
 10
3.435434304889595
 20
-0.0537610941495348
 30
0.0
 10
3.442903737631259
 20
-0.053937944418938
 30
0.0
 10
3.450414039898076
 20
-0.0540851216463129
 30
0.0
 10
3.46539794948023
 20
-0.0543198864987613
 30
0.0
 10
3.480316489830469
 20
-0.0544360393758651
 30
0.0
 10
3.487817258677878
 20
-0.0544648498704691
 30
0.0
 10
3.560094488245741
 20
-0.0544572204240609
 30
0.0
 10
3.632379007855715
 20
-0.0516909820830228
 30
0.0
 10
3.697179603917307
 20
-0.0469890561573811
 30
0.0
 10
3.801401660824743
 20
-0.0358479262504451
 30
0.0
 10
3.904724834312816
 20
-0.0189987385174949
 30
0.0
 10
3.944016591762871
 20
-0.01173874562057
 30
0.0
 10
4.031968429545951
 20
0.006439445097879
 30
0.0
 10
4.119093187759181
 20
0.0287928155985537
 30
0.0
 10
4.167227439303836
 20
0.0424948830092487
 30
0.0
 10
4.243437098236348
 20
0.0663745228058742
 30
0.0
 10
4.318479220245004
 20
0.0934079738947007
 30
0.0
 10
4.346470483894897
 20
0.1039917209102707
 30
0.0
 10
4.420714417840094
 20
0.1334004260138421
 30
0.0
 10
4.493561487332221
 20
0.1658564063953787
 30
0.0
 10
4.538562204108551
 20
0.1873469440476543
 30
0.0
 10
4.618591897045226
 20
0.2281798733758733
 30
0.0
 10
4.696693174259443
 20
0.2727884138966891
 30
0.0
 10
4.730966472892113
 20
0.2933295474389057
 30
0.0
 10
4.7902281897412
 20
0.3305719473193888
 30
0.0
 10
4.848058788401056
 20
0.3699554166836519
 30
0.0
 10
4.872553284350128
 20
0.387207016724235
 30
0.0
 10
4.937154450189303
 20
0.4342424036856542
 30
0.0
 10
4.999712457453672
 20
0.4839402829455574
 30
0.0
 10
5.03795533021094
 20
0.5160004348807008
 30
0.0
 10
5.105433691615183
 20
0.5756652513453371
 30
0.0
 10
5.169991686350896
 20
0.6384162229107562
 30
0.0
 10
5.198076591441417
 20
0.6668844294927306
 30
0.0
 10
5.246085429644671
 20
0.7176481166986312
 30
0.0
 10
5.292170772875616
 20
0.7701214471110545
 30
0.0
 10
5.311573054931377
 20
0.7929268094069616
 30
0.0
 10
5.343328844778474
 20
0.831465046440928
 30
0.0
 10
5.374048358083268
 20
0.8708035126129234
 30
0.0
 10
5.386179771970795
 20
0.8866800585215616
 30
0.0
 10
5.410083578985258
 20
0.9186570830624301
 30
0.0
 10
5.433310050290449
 20
0.9511313710913288
 30
0.0
 10
5.444755267844331
 20
0.9674960353566611
 30
0.0
 10
5.477602463676046
 20
1.015533974421733
 30
0.0
 10
5.509019462387209
 20
1.064638368010878
 30
0.0
 10
5.529008726342798
 20
1.097301994516646
 30
0.0
 10
5.548255345156874
 20
1.130234536888788
 30
0.0
 10
5.566835390401563
 20
1.163546234192466
 30
0.0
  0
POLYLINE
  5
FF
330
8A
100
AcDbEntity
  8
0
 62
     7
370
    30
100
AcDb2dPolyline
 66
     1
 10
0.0
 20
0.0
 30
0.0
  0
VERTEX
  5
100
330
FF
100
AcDbEntity
  8
0
370
     0
100
AcDbVertex
100
AcDb2dVertex
 10
6.074183
 20
2.071322
 30
0.0
 42
0.000426
  0
VERTEX
  5
101
330
FF
100
AcDbEntity
  8
0
370
     0
100
AcDbVertex
100
AcDb2dVertex
 10
5.566835
 20
1.163547
 30
0.0
  0
SEQEND
  5
102
330
FF
100
AcDbEntity
  8
0
 62
     7
370
    30
  0
SPLINE
  5
103
330
8A
100
AcDbEntity
  8
0
 62
     7
370
    30
100
AcDbSpline
210
0.0
220
0.0
230
1.0
 70
     8
 71
     5
 72
    72
 73
    66
 74
     0
 42
0.000000001
 43
0.0
 40
0.0
 40
0.0
 40
0.0
 40
0.0
 40
0.0
 40
0.0
 40
18.69761201085715
 40
18.69761201085715
 40
18.69761201085715
 40
32.04876387900863
 40
32.04876387900863
 40
32.04876387900863
 40
42.72325735571276
 40
42.72325735571276
 40
42.72325735571276
 40
56.06622323320578
 40
56.06622323320578
 40
56.06622323320578
 40
74.74083767595198
 40
74.74083767595198
 40
74.74083767595198
 40
88.09783533877199
 40
88.09783533877199
 40
88.09783533877199
 40
96.1112935627362
 40
96.1112935627362
 40
96.1112935627362
 40
114.8019901138788
 40
114.8019901138788
 40
114.8019901138788
 40
122.8088318659257
 40
122.8088318659257
 40
122.8088318659257
 40
130.827437445996
 40
130.827437445996
 40
130.827437445996
 40
136.1773864817372
 40
136.1773864817372
 40
136.1773864817372
 40
144.1935855047419
 40
144.1935855047419
 40
144.1935855047419
 40
162.9116981534749
 40
162.9116981534749
 40
162.9116981534749
 40
176.2763720823622
 40
176.2763720823622
 40
176.2763720823622
 40
181.6325758166016
 40
181.6325758166016
 40
181.6325758166016
 40
189.659406651272
 40
189.659406651272
 40
189.659406651272
 40
208.3984583931764
 40
208.3984583931764
 40
208.3984583931764
 40
221.7705538941063
 40
221.7705538941063
 40
221.7705538941063
 40
232.4708301902373
 40
232.4708301902373
 40
232.4708301902373
 40
248.5139353990311
 40
248.5139353990311
 40
248.5139353990311
 40
257.6181721242837
 40
257.6181721242837
 40
257.6181721242837
 40
257.6181721242837
 40
257.6181721242837
 40
257.6181721242837
 10
6.074182009964725
 20
2.071322920419509
 30
0.0
 10
6.108302604540056
 20
2.132254348790179
 30
0.0
 10
6.140192167658575
 20
2.194463308888274
 30
0.0
 10
6.169814871733441
 20
2.257938051289322
 30
0.0
 10
6.216426964486628
 20
2.368191546699275
 30
0.0
 10
6.255971401220237
 20
2.481135729557111
 30
0.0
 10
6.27120840262478
 20
2.528638355060718
 30
0.0
 10
6.296398517288322
 20
2.614917138360679
 30
0.0
 10
6.317474809617873
 20
2.70227838026963
 30
0.0
 10
6.326018862465848
 20
2.741280682345889
 30
0.0
 10
6.343360861475358
 20
2.829315829856597
 30
0.0
 10
6.356511496214367
 20
2.918073397568289
 30
0.0
 10
6.362518674628478
 20
2.967531298732945
 30
0.0
 10
6.373806860055792
 20
3.08662781064244
 30
0.0
 10
6.377550932901182
 20
3.206239078194467
 30
0.0
 10
6.377160120259267
 20
3.276122396391166
 30
0.0
 10
6.372057543447478
 20
3.395765474691469
 30
0.0
 10
6.359446706140369
 20
3.514712263970163
 30
0.0
 10
6.352895310838742
 20
3.564104797020384
 30
0.0
 10
6.340331204791696
 20
3.642793508312252
 30
0.0
 10
6.32445161867178
 20
3.720945835114011
 30
0.0
 10
6.318031829246417
 20
3.750175410251376
 30
0.0
 10
6.29511038534455
 20
3.847230219696364
 30
0.0
 10
6.267093871426401
 20
3.942997802549615
 30
0.0
 10
6.244929121535793
 20
4.00954382492289
 30
0.0
 10
6.209880457756164
 20
4.103136060225872
 30
0.0
 10
6.170034816079101
 20
4.194569343594022
 30
0.0
 10
6.157652644937921
 20
4.221796759478599
 30
0.0
 10
6.132032084197136
 20
4.275868714888952
 30
0.0
 10
6.104731793740334
 20
4.329088516948025
 30
0.0
 10
6.090648619393926
 20
4.355507219225328
 30
0.0
 10
6.066469809139265
 20
4.399189635558653
 30
0.0
 10
6.041155096695255
 20
4.442214016450107
 30
0.0
 10
6.030853867144468
 20
4.459306464405992
 30
0.0
 10
6.004627278687015
 20
4.501804070286683
 30
0.0
 10
5.977271085599986
 20
4.543634316661138
 30
0.0
 10
5.960469962028797
 20
4.568465048669841
 30
0.0
 10
5.903210667015676
 20
4.650272833925755
 30
0.0
 10
5.84175710640532
 20
4.728915463016368
 30
0.0
 10
5.796565956905916
 20
4.782562680802259
 30
0.0
 10
5.715916416513907
 20
4.871453162046888
 30
0.0
 10
5.629970450110446
 20
4.954923680115535
 30
0.0
 10
5.593163001074718
 20
4.988841014879517
 30
0.0
 10
5.540616754956847
 20
5.034782020108249
 30
0.0
 10
5.486431794413985
 20
5.078742288250233
 30
0.0
 10
5.470793715909506
 20
5.091158231720445
 30
0.0
 10
5.431389484697139
 20
5.121771728019035
 30
0.0
 10
5.391164239681441
 20
5.151361263892155
 30
0.0
 10
5.366737024155266
 20
5.168745117718019
 30
0.0
 10
5.284424536901069
 20
5.225398590474697
 30
0.0
 10
5.199242985212005
 20
5.277645561111563
 30
0.0
 10
5.138191945270747
 20
5.312059000612947
 30
0.0
 10
5.031698203649008
 20
5.367041389345835
 30
0.0
 10
4.921990947851966
 20
5.415166465917789
 30
0.0
 10
4.875717908583344
 20
5.434027761330624
 30
0.0
 10
4.791587196673596
 20
5.465775269619151
 30
0.0
 10
4.706084905532511
 20
5.493499340331566
 30
0.0
 10
4.667838362175035
 20
5.505014363590775
 30
0.0
 10
4.571645649868794
 20
5.531774454272583
 30
0.0
 10
4.474245749045594
 20
5.553420296796477
 30
0.0
 10
4.41535388953926
 20
5.564568425420029
 30
0.0
 10
4.322576939408827
 20
5.579124798596687
 30
0.0
 10
4.229270119437892
 20
5.589073273240123
 30
0.0
 10
4.195430359042292
 20
5.592068770494122
 30
0.0
 10
4.161557751282066
 20
5.594454213195212
 30
0.0
 10
4.127652574901695
 20
5.596232760880525
 30
0.0
  0
SPLINE
  5
104
330
8A
100
AcDbEntity
  8
0
 62
     7
370
    30
100
AcDbSpline
210
0.0
220
0.0
230
1.0
 70
     8
 71
     5
 72
    15
 73
     9
 74
     0
 42
0.000000001
 43
0.0
 40
0.0
 40
0.0
 40
0.0
 40
0.0
 40
0.0
 40
0.0
 40
87.95209745010989
 40
87.95209745010989
 40
87.95209745010989
 40
176.2991082309004
 40
176.2991082309004
 40
176.2991082309004
 40
176.2991082309004
 40
176.2991082309004
 40
176.2991082309004
 10
4.127652574901703
 20
5.596232760880597
 30
0.0
 10
3.736979741593692
 20
5.616726096603934
 30
0.0
 10
3.346272707212051
 20
5.636861527447183
 30
0.0
 10
2.946480426963728
 20
5.657048096404358
 30
0.0
 10
2.163370380009278
 20
5.695610142711562
 30
0.0
 10
1.380241202651708
 20
5.731590003129693
 30
0.0
 10
0.987717313602475
 20
5.748824142676972
 30
0.0
 10
0.5952343941509284
 20
5.76505747755956
 30
0.0
 10
0.202678868809061
 20
5.780014093414907
 30
0.0
  0
POLYLINE
  5
105
330
8A
100
AcDbEntity
  8
0
 62
     7
370
    30
100
AcDb2dPolyline
 66
     1
 10
0.0
 20
0.0
 30
0.0
  0
VERTEX
  5
106
330
105
100
AcDbEntity
  8
0
370
     0
100
AcDbVertex
100
AcDb2dVertex
 10
0.202679
 20
5.780024
 30
0.0
 42
0.161595
  0
VERTEX
  5
107
330
105
100
AcDbEntity
  8
0
370
     0
100
AcDbVertex
100
AcDb2dVertex
 10
-1.232848
 20
5.363401
 30
0.0
  0
SEQEND
  5
108
330
105
100
AcDbEntity
  8
0
 62
     7
370
    30
  0
POLYLINE
  5
109
330
8A
100
AcDbEntity
  8
0
 62
     7
370
    30
100
AcDb2dPolyline
 66
     1
 10
0.0
 20
0.0
 30
0.0
  0
VERTEX
  5
10A
330
109
100
AcDbEntity
  8
0
370
     0
100
AcDbVertex
100
AcDb2dVertex
 10
-1.232876
 20
5.363439
 30
0.0
 42
0.218539
  0
VERTEX
  5
10B
330
109
100
AcDbEntity
  8
0
370
     0
100
AcDbVertex
100
AcDb2dVertex
 10
-2.245672
 20
3.664619
 30
0.0
  0
SEQEND
  5
10C
330
109
100
AcDbEntity
  8
0
 62
     7
370
    30
  0
LINE
  5
10D
330
8A
100
AcDbEntity
  8
0
 62
     7
370
    30
100
AcDbLine
 10
-2.245672
 20
3.664619
 30
0.0
 11
-2.357662
 21
2.625204
 31
0.0
  0
SPLINE
  5
10E
330
8A
100
AcDbEntity
  8
0
 62
     7
370
    30
100
AcDbSpline
210
0.0
220
0.0
230
1.0
 70
     8
 71
     5
 72
    42
 73
    36
 74
     0
 42
0.000000001
 43
0.0
 40
0.0
 40
0.0
 40
0.0
 40
0.0
 40
0.0
 40
0.0
 40
7.986844292588623
 40
7.986844292588623
 40
7.986844292588623
 40
15.99064684480417
 40
15.99064684480417
 40
15.99064684480417
 40
24.01745556697252
 40
24.01745556697252
 40
24.01745556697252
 40
34.73193997122927
 40
34.73193997122927
 40
34.73193997122927
 40
42.76461756663503
 40
42.76461756663503
 40
42.76461756663503
 40
48.12033470519047
 40
48.12033470519047
 40
48.12033470519047
 40
58.81654725933184
 40
58.81654725933184
 40
58.81654725933184
 40
69.51328365895752
 40
69.51328365895752
 40
69.51328365895752
 40
80.19787980665622
 40
80.19787980665622
 40
80.19787980665622
 40
104.2363577139226
 40
104.2363577139226
 40
104.2363577139226
 40
107.0512889765371
 40
107.0512889765371
 40
107.0512889765371
 40
107.0512889765371
 40
107.0512889765371
 40
107.0512889765371
 10
-1.759156603662124
 20
0.7812690447317603
 30
0.0
 10
-1.779083651725394
 20
0.8032806146964128
 30
0.0
 10
-1.798656448356181
 20
0.8256048055106421
 30
0.0
 10
-1.817925130416563
 20
0.8482999489790654
 30
0.0
 10
-1.855788884253309
 20
0.89434990820311
 30
0.0
 10
-1.892206389443044
 20
0.941595322313679
 30
0.0
 10
-1.910016333681857
 20
0.9654695463412809
 30
0.0
 10
-1.944940230710115
 20
1.013858868023922
 30
0.0
 10
-1.978323298874583
 20
1.063328046015642
 30
0.0
 10
-1.994668398691491
 20
1.088392323211357
 30
0.0
 10
-2.031910319561197
 20
1.147517624606415
 30
0.0
 10
-2.066952659638301
 20
1.207973725920528
 30
0.0
 10
-2.086249803599972
 20
1.242941714834094
 30
0.0
 10
-2.118693464399227
 20
1.304774931283151
 30
0.0
 10
-2.148848518988575
 20
1.367791465077734
 30
0.0
 10
-2.161351166530518
 20
1.395014690146685
 30
0.0
 10
-2.181483852196171
 20
1.440736195444716
 30
0.0
 10
-2.20040519009799
 20
1.486965396105286
 30
0.0
 10
-2.207777722099756
 20
1.505534695301733
 30
0.0
 10
-2.229287656443461
 20
1.561423553570612
 30
0.0
 10
-2.249030895225963
 20
1.617992544606631
 30
0.0
 10
-2.261398674758357
 20
1.655979925961845
 30
0.0
 10
-2.284530723838474
 20
1.732458909883837
 30
0.0
 10
-2.304416024058491
 20
1.809806195860655
 30
0.0
 10
-2.313524727438453
 20
1.848607882681359
 30
0.0
 10
-2.33014542199611
 20
1.92680393781732
 30
0.0
 10
-2.343477473592912
 20
2.005699029025317
 30
0.0
 10
-2.349305836347766
 20
2.045223189548446
 30
0.0
 10
-2.365516725243883
 20
2.173931991290901
 30
0.0
 10
-2.372891025432234
 20
2.303510028342398
 30
0.0
 10
-2.373756877696878
 20
2.393497835185027
 30
0.0
 10
-2.369959890381706
 20
2.493892573682157
 30
0.0
 10
-2.360869517777738
 20
2.593815556295824
 30
0.0
 10
-2.359858462461012
 20
2.604284726373363
 30
0.0
 10
-2.358789357530655
 20
2.614747710379931
 30
0.0
 10
-2.357662249076147
 20
2.625204441244085
 30
0.0
  0
ENDBLK
  5
8C
330
8A
100
AcDbEntity
  8
0
100
AcDbBlockEnd
  0
ENDSEC
  0
SECTION
  2
ENTITIES
  0
INSERT
  5
10F
330
1F
100
AcDbEntity
  8
0
370
     0
100
AcDbBlockReference
  2
BLOCK1
 10
12.170872
 20
14.386105
 30
0.0
  0
INSERT
  5
110
330
1F
100
AcDbEntity
  8
0
370
     0
100
AcDbBlockReference
  2
BLOCK2
 10
12.170872
 20
14.386105
 30
0.0
  0
INSERT
  5
111
330
1F
100
AcDbEntity
  8
0
370
     0
100
AcDbBlockReference
  2
BLOCK3
 10
27.364213
 20
14.62039
 30
0.0
  0
INSERT
  5
112
330
1F
100
AcDbEntity
  8
0
370
     0
100
AcDbBlockReference
  2
BLOCK4
 10
27.364213
 20
14.62039
 30
0.0
  0
INSERT
  5
113
330
1F
100
AcDbEntity
  8
0
370
     0
100
AcDbBlockReference
  2
BLOCK5
 10
45.058928
 20
14.461374
 30
0.0
  0
INSERT
  5
114
330
1F
100
AcDbEntity
  8
0
370
     0
100
AcDbBlockReference
  2
BLOCK6
 10
45.058928
 20
14.461374
 30
0.0
  0
INSERT
  5
115
330
1F
100
AcDbEntity
  8
0
370
     0
100
AcDbBlockReference
  2
BLOCK7
 10
61.717426
 20
14.538076
 30
0.0
  0
INSERT
  5
116
330
1F
100
AcDbEntity
  8
0
370
     0
100
AcDbBlockReference
  2
BLOCK8
 10
61.717426
 20
14.538076
 30
0.0
  0
INSERT
  5
117
330
1F
100
AcDbEntity
  8
0
370
     0
100
AcDbBlockReference
  2
BLOCK9
 10
77.861696
 20
14.165523
 30
0.0
  0
INSERT
  5
118
330
1F
100
AcDbEntity
  8
0
370
     0
100
AcDbBlockReference
  2
BLOCK10
 10
77.861696
 20
14.165523
 30
0.0
  0
ENDSEC
  0
SECTION
  2
OBJECTS
  0
DICTIONARY
  5
C
330
0
100
AcDbDictionary
281
     1
  3
ACAD_GROUP
350
D
  3
ACAD_LAYOUT
350
1A
  3
ACAD_MLINESTYLE
350
17
  3
ACAD_PLOTSETTINGS
350
19
  3
ACAD_PLOTSTYLENAME
350
E
  3
ACAD_SCALELIST
350
47
  0
DICTIONARY
  5
D
102
{ACAD_REACTORS
330
C
102
}
330
C
100
AcDbDictionary
281
     1
  0
DICTIONARY
  5
1A
102
{ACAD_REACTORS
330
C
102
}
330
C
100
AcDbDictionary
281
     1
  3
Layout1
350
1E
  3
Layout2
350
26
  3
Model
350
22
  0
DICTIONARY
  5
17
102
{ACAD_REACTORS
330
C
102
}
330
C
100
AcDbDictionary
281
     1
  3
Standard
350
18
  0
DICTIONARY
  5
19
102
{ACAD_REACTORS
330
C
102
}
330
C
100
AcDbDictionary
281
     1
  0
ACDBDICTIONARYWDFLT
  5
E
102
{ACAD_REACTORS
330
C
102
}
330
C
100
AcDbDictionary
281
     1
  3
Normal
350
F
100
AcDbDictionaryWithDefault
340
F
  0
DICTIONARY
  5
47
102
{ACAD_REACTORS
330
C
102
}
330
C
100
AcDbDictionary
281
     1
  3
A0
350
48
  3
A1
350
49
  3
A2
350
4A
  3
A3
350
4B
  3
A4
350
4C
  3
A5
350
4D
  3
A6
350
4E
  3
A7
350
4F
  3
A8
350
50
  3
A9
350
51
  3
B0
350
52
  3
B1
350
53
  3
B2
350
54
  3
B3
350
55
  3
B4
350
56
  3
B5
350
57
  3
B6
350
58
  3
B7
350
59
  3
B8
350
5A
  3
B9
350
5B
  3
C0
350
5C
  3
C1
350
5D
  3
C2
350
5E
  3
C3
350
5F
  3
C4
350
60
  3
C5
350
61
  3
C6
350
62
  3
C7
350
63
  3
C8
350
64
  3
C9
350
65
  3
D0
350
66
  3
D1
350
67
  3
D2
350
68
  0
LAYOUT
  5
1E
102
{ACAD_REACTORS
330
1A
102
}
330
1A
100
AcDbPlotSettings
  1

  2
none_device
  4

  6

 40
0.0
 41
0.0
 42
0.0
 43
0.0
 44
0.0
 45
0.0
 46
0.0
 47
0.0
 48
0.0
 49
0.0
140
0.0
141
0.0
142
1.0
143
1.0
 70
  4784
 72
     0
 73
     0
 74
     5
  7

 75
    16
147
1.0
148
0.0
149
0.0
100
AcDbLayout
  1
Layout1
 70
     1
 71
     1
 10
0.0
 20
0.0
 11
12.0
 21
9.0
 12
0.0
 22
0.0
 32
0.0
 14
0.0
 24
0.0
 34
0.0
 15
4.469675
 25
3.601314
 35
2.0
146
0.0
 13
0.0
 23
0.0
 33
0.0
 16
1.0
 26
0.0
 36
0.0
 17
0.0
 27
1.0
 37
0.0
 76
     0
330
1B
  0
LAYOUT
  5
26
102
{ACAD_REACTORS
330
1A
102
}
330
1A
100
AcDbPlotSettings
  1

  2
none_device
  4

  6

 40
0.0
 41
0.0
 42
0.0
 43
0.0
 44
0.0
 45
0.0
 46
0.0
 47
0.0
 48
0.0
 49
0.0
140
0.0
141
0.0
142
1.0
143
1.0
 70
  4784
 72
     0
 73
     0
 74
     5
  7

 75
    16
147
1.0
148
0.0
149
0.0
100
AcDbLayout
  1
Layout2
 70
     1
 71
     2
 10
0.0
 20
0.0
 11
0.0
 21
0.0
 12
0.0
 22
0.0
 32
0.0
 14
0.0
 24
0.0
 34
0.0
 15
0.0
 25
0.0
 35
0.0
146
0.0
 13
0.0
 23
0.0
 33
0.0
 16
1.0
 26
0.0
 36
0.0
 17
0.0
 27
1.0
 37
0.0
 76
     0
330
23
  0
LAYOUT
  5
22
102
{ACAD_REACTORS
330
1A
102
}
330
1A
100
AcDbPlotSettings
  1

  2
none_device
  4
Letter_(8.50_x_11.00_Inches)
  6

 40
6.35
 41
6.35
 42
6.350005
 43
6.350005
 44
215.9
 45
279.4
 46
0.0
 47
0.0
 48
0.0
 49
0.0
140
0.0
141
0.0
142
1.0
143
1.0
 70
  5808
 72
     0
 73
     0
 74
     0
  7

 75
     0
147
1.0
148
0.0
149
0.0
100
AcDbLayout
  1
Model
 70
     1
 71
     0
 10
0.0
 20
0.0
 11
17.0
 21
11.0
 12
0.0
 22
0.0
 32
0.0
 14
0.0
 24
0.0
 34
0.0
 15
4.469675
 25
3.601314
 35
2.0
146
0.0
 13
0.0
 23
0.0
 33
0.0
 16
1.0
 26
0.0
 36
0.0
 17
0.0
 27
1.0
 37
0.0
 76
     0
330
1F
331
29
  0
MLINESTYLE
  5
18
102
{ACAD_REACTORS
330
17
102
}
330
17
100
AcDbMlineStyle
  2
Standard
 70
     0
  3

 62
   256
 51
90.0
 52
90.0
 71
     2
 49
0.5
 62
   256
  6
BYLAYER
 49
-0.5
 62
   256
  6
BYLAYER
  0
ACDBPLACEHOLDER
  5
F
102
{ACAD_REACTORS
330
E
102
}
330
E
  0
SCALE
  5
48
102
{ACAD_REACTORS
330
47
102
}
330
47
100
AcDbScale
 70
     0
300
1:1
140
1.0
141
1.0
290
     1
  0
SCALE
  5
49
102
{ACAD_REACTORS
330
47
102
}
330
47
100
AcDbScale
 70
     0
300
1:2
140
1.0
141
2.0
290
     0
  0
SCALE
  5
4A
102
{ACAD_REACTORS
330
47
102
}
330
47
100
AcDbScale
 70
     0
300
1:4
140
1.0
141
4.0
290
     0
  0
SCALE
  5
4B
102
{ACAD_REACTORS
330
47
102
}
330
47
100
AcDbScale
 70
     0
300
1:5
140
1.0
141
5.0
290
     0
  0
SCALE
  5
4C
102
{ACAD_REACTORS
330
47
102
}
330
47
100
AcDbScale
 70
     0
300
1:8
140
1.0
141
8.0
290
     0
  0
SCALE
  5
4D
102
{ACAD_REACTORS
330
47
102
}
330
47
100
AcDbScale
 70
     0
300
1:10
140
1.0
141
10.0
290
     0
  0
SCALE
  5
4E
102
{ACAD_REACTORS
330
47
102
}
330
47
100
AcDbScale
 70
     0
300
1:16
140
1.0
141
16.0
290
     0
  0
SCALE
  5
4F
102
{ACAD_REACTORS
330
47
102
}
330
47
100
AcDbScale
 70
     0
300
1:20
140
1.0
141
20.0
290
     0
  0
SCALE
  5
50
102
{ACAD_REACTORS
330
47
102
}
330
47
100
AcDbScale
 70
     0
300
1:30
140
1.0
141
30.0
290
     0
  0
SCALE
  5
51
102
{ACAD_REACTORS
330
47
102
}
330
47
100
AcDbScale
 70
     0
300
1:40
140
1.0
141
40.0
290
     0
  0
SCALE
  5
52
102
{ACAD_REACTORS
330
47
102
}
330
47
100
AcDbScale
 70
     0
300
1:50
140
1.0
141
50.0
290
     0
  0
SCALE
  5
53
102
{ACAD_REACTORS
330
47
102
}
330
47
100
AcDbScale
 70
     0
300
1:100
140
1.0
141
100.0
290
     0
  0
SCALE
  5
54
102
{ACAD_REACTORS
330
47
102
}
330
47
100
AcDbScale
 70
     0
300
2:1
140
2.0
141
1.0
290
     0
  0
SCALE
  5
55
102
{ACAD_REACTORS
330
47
102
}
330
47
100
AcDbScale
 70
     0
300
4:1
140
4.0
141
1.0
290
     0
  0
SCALE
  5
56
102
{ACAD_REACTORS
330
47
102
}
330
47
100
AcDbScale
 70
     0
300
8:1
140
8.0
141
1.0
290
     0
  0
SCALE
  5
57
102
{ACAD_REACTORS
330
47
102
}
330
47
100
AcDbScale
 70
     0
300
10:1
140
10.0
141
1.0
290
     0
  0
SCALE
  5
58
102
{ACAD_REACTORS
330
47
102
}
330
47
100
AcDbScale
 70
     0
300
100:1
140
100.0
141
1.0
290
     0
  0
SCALE
  5
59
102
{ACAD_REACTORS
330
47
102
}
330
47
100
AcDbScale
 70
     0
300
1/128" = 1'-0"
140
0.007812
141
12.0
290
     0
  0
SCALE
  5
5A
102
{ACAD_REACTORS
330
47
102
}
330
47
100
AcDbScale
 70
     0
300
1/64" = 1'-0"
140
0.015625
141
12.0
290
     0
  0
SCALE
  5
5B
102
{ACAD_REACTORS
330
47
102
}
330
47
100
AcDbScale
 70
     0
300
1/32" = 1'-0"
140
0.03125
141
12.0
290
     0
  0
SCALE
  5
5C
102
{ACAD_REACTORS
330
47
102
}
330
47
100
AcDbScale
 70
     0
300
1/16" = 1'-0"
140
0.0625
141
12.0
290
     0
  0
SCALE
  5
5D
102
{ACAD_REACTORS
330
47
102
}
330
47
100
AcDbScale
 70
     0
300
3/32" = 1'-0"
140
0.09375
141
12.0
290
     0
  0
SCALE
  5
5E
102
{ACAD_REACTORS
330
47
102
}
330
47
100
AcDbScale
 70
     0
300
1/8" = 1'-0"
140
0.125
141
12.0
290
     0
  0
SCALE
  5
5F
102
{ACAD_REACTORS
330
47
102
}
330
47
100
AcDbScale
 70
     0
300
3/16" = 1'-0"
140
0.1875
141
12.0
290
     0
  0
SCALE
  5
60
102
{ACAD_REACTORS
330
47
102
}
330
47
100
AcDbScale
 70
     0
300
1/4" = 1'-0"
140
0.25
141
12.0
290
     0
  0
SCALE
  5
61
102
{ACAD_REACTORS
330
47
102
}
330
47
100
AcDbScale
 70
     0
300
3/8" = 1'-0"
140
0.375
141
12.0
290
     0
  0
SCALE
  5
62
102
{ACAD_REACTORS
330
47
102
}
330
47
100
AcDbScale
 70
     0
300
1/2" = 1'-0"
140
0.5
141
12.0
290
     0
  0
SCALE
  5
63
102
{ACAD_REACTORS
330
47
102
}
330
47
100
AcDbScale
 70
     0
300
3/4" = 1'-0"
140
0.75
141
12.0
290
     0
  0
SCALE
  5
64
102
{ACAD_REACTORS
330
47
102
}
330
47
100
AcDbScale
 70
     0
300
1" = 1'-0"
140
1.0
141
12.0
290
     0
  0
SCALE
  5
65
102
{ACAD_REACTORS
330
47
102
}
330
47
100
AcDbScale
 70
     0
300
1-1/2" = 1'-0"
140
1.5
141
12.0
290
     0
  0
SCALE
  5
66
102
{ACAD_REACTORS
330
47
102
}
330
47
100
AcDbScale
 70
     0
300
3" = 1'-0"
140
3.0
141
12.0
290
     0
  0
SCALE
  5
67
102
{ACAD_REACTORS
330
47
102
}
330
47
100
AcDbScale
 70
     0
300
6" = 1'-0"
140
6.0
141
12.0
290
     0
  0
SCALE
  5
68
102
{ACAD_REACTORS
330
47
102
}
330
47
100
AcDbScale
 70
     0
300
1'-0" = 1'-0"
140
12.0
141
12.0
290
     0
  0
ENDSEC
  0
EOF
