  0
SECTION
  2
HEADER
  9
$ACADVER
  1
AC1015
  9
$ACADMAINTVER
 70
     6
  9
$DWGCODEPAGE
  3
ANSI_1252
  9
$INSBASE
 10
0.0
 20
0.0
 30
0.0
  9
$EXTMIN
 10
0.0
 20
0.0
 30
0.0
  9
$EXTMAX
 10
20.952862
 20
0.215058
 30
2.0
  9
$LIMMIN
 10
0.0
 20
0.0
  9
$LIMMAX
 10
17.0
 20
11.0
  9
$ORTHOMODE
 70
     0
  9
$REGENMODE
 70
     1
  9
$FILLMODE
 70
     1
  9
$QTEXTMODE
 70
     0
  9
$MIRRTEXT
 70
     1
  9
$LTSCALE
 40
1.0
  9
$ATTMODE
 70
     1
  9
$TEXTSIZE
 40
0.2
  9
$TRACEWID
 40
0.05
  9
$TEXTSTYLE
  7
Standard
  9
$CLAYER
  8
0
  9
$CELTYPE
  6
ByLayer
  9
$CECOLOR
 62
   256
  9
$CELTSCALE
 40
1.0
  9
$DISPSILH
 70
     0
  9
$DIMSCALE
 40
1.0
  9
$DIMASZ
 40
0.18
  9
$DIMEXO
 40
0.0625
  9
$DIMDLI
 40
0.38
  9
$DIMRND
 40
0.0
  9
$DIMDLE
 40
0.0
  9
$DIMEXE
 40
0.18
  9
$DIMTP
 40
0.0
  9
$DIMTM
 40
0.0
  9
$DIMTXT
 40
0.18
  9
$DIMCEN
 40
0.09
  9
$DIMTSZ
 40
0.0
  9
$DIMTOL
 70
     0
  9
$DIMLIM
 70
     0
  9
$DIMTIH
 70
     1
  9
$DIMTOH
 70
     1
  9
$DIMSE1
 70
     0
  9
$DIMSE2
 70
     0
  9
$DIMTAD
 70
     0
  9
$DIMZIN
 70
     0
  9
$DIMBLK
  1

  9
$DIMASO
 70
     1
  9
$DIMSHO
 70
     1
  9
$DIMPOST
  1

  9
$DIMAPOST
  1

  9
$DIMALT
 70
     0
  9
$DIMALTD
 70
     2
  9
$DIMALTF
 40
25.4
  9
$DIMLFAC
 40
1.0
  9
$DIMTOFL
 70
     0
  9
$DIMTVP
 40
0.0
  9
$DIMTIX
 70
     0
  9
$DIMSOXD
 70
     0
  9
$DIMSAH
 70
     0
  9
$DIMBLK1
  1

  9
$DIMBLK2
  1

  9
$DIMSTYLE
  2
STANDARD
  9
$DIMCLRD
 70
     0
  9
$DIMCLRE
 70
     0
  9
$DIMCLRT
 70
     0
  9
$DIMTFAC
 40
1.0
  9
$DIMGAP
 40
0.09
  9
$DIMJUST
 70
     0
  9
$DIMSD1
 70
     0
  9
$DIMSD2
 70
     0
  9
$DIMTOLJ
 70
     1
  9
$DIMTZIN
 70
     0
  9
$DIMALTZ
 70
     0
  9
$DIMALTTZ
 70
     0
  9
$DIMUPT
 70
     0
  9
$DIMDEC
 70
     4
  9
$DIMTDEC
 70
     4
  9
$DIMALTU
 70
     2
  9
$DIMALTTD
 70
     2
  9
$DIMTXSTY
  7
Standard
  9
$DIMAUNIT
 70
     0
  9
$DIMADEC
 70
     0
  9
$DIMALTRND
 40
0.0
  9
$DIMAZIN
 70
     0
  9
$DIMDSEP
 70
    46
  9
$DIMATFIT
 70
     0
  9
$DIMFRAC
 70
     0
  9
$DIMLDRBLK
  1

  9
$DIMLUNIT
 70
     2
  9
$DIMLWD
 70
    -2
  9
$DIMLWE
 70
    -2
  9
$DIMTMOVE
 70
     0
  9
$LUNITS
 70
     2
  9
$LUPREC
 70
     4
  9
$SKETCHINC
 40
0.1
  9
$FILLETRAD
 40
0.125
  9
$AUNITS
 70
     0
  9
$AUPREC
 70
     0
  9
$MENU
  1
.
  9
$ELEVATION
 40
0.0
  9
$PELEVATION
 40
0.0
  9
$THICKNESS
 40
0.0
  9
$LIMCHECK
 70
     0
  9
$CHAMFERA
 40
0.125
  9
$CHAMFERB
 40
0.125
  9
$CHAMFERC
 40
0.0
  9
$CHAMFERD
 40
0.0
  9
$SKPOLY
 70
     0
  9
$TDCREATE
 40
2447892.666666667
  9
$TDUCREATE
 40
0.0
  9
$TDUPDATE
 40
2458828.438995278
  9
$TDUUPDATE
 40
2458828.772328611
  9
$TDINDWG
 40
0.0
  9
$TDUSRTIMER
 40
0.0
  9
$USRTIMER
 70
     1
  9
$ANGBASE
 50
0.0
  9
$ANGDIR
 70
     0
  9
$PDMODE
 70
     0
  9
$PDSIZE
 40
0.0
  9
$PLINEWID
 40
0.0
  9
$SPLFRAME
 70
     0
  9
$SPLINETYPE
 70
     6
  9
$SPLINESEGS
 70
     8
  9
$HANDSEED
  5
10C
  9
$SURFTAB1
 70
     6
  9
$SURFTAB2
 70
     6
  9
$SURFTYPE
 70
     6
  9
$SURFU
 70
     6
  9
$SURFV
 70
     6
  9
$UCSBASE
  2

  9
$UCSNAME
  2

  9
$UCSORG
 10
0.0
 20
0.0
 30
0.0
  9
$UCSXDIR
 10
1.0
 20
0.0
 30
0.0
  9
$UCSYDIR
 10
0.0
 20
1.0
 30
0.0
  9
$UCSORTHOREF
  2

  9
$UCSORTHOVIEW
 70
     1
  9
$UCSORGTOP
 10
0.0
 20
0.0
 30
0.0
  9
$UCSORGBOTTOM
 10
0.0
 20
0.0
 30
0.0
  9
$UCSORGLEFT
 10
0.0
 20
0.0
 30
0.0
  9
$UCSORGRIGHT
 10
0.0
 20
0.0
 30
0.0
  9
$UCSORGFRONT
 10
0.0
 20
0.0
 30
0.0
  9
$UCSORGBACK
 10
0.0
 20
0.0
 30
0.0
  9
$PUCSBASE
  2

  9
$PUCSNAME
  2

  9
$PUCSORG
 10
0.0
 20
0.0
 30
0.0
  9
$PUCSXDIR
 10
1.0
 20
0.0
 30
0.0
  9
$PUCSYDIR
 10
0.0
 20
1.0
 30
0.0
  9
$PUCSORTHOREF
  2

  9
$PUCSORTHOVIEW
 70
     0
  9
$PUCSORGTOP
 10
0.0
 20
0.0
 30
0.0
  9
$PUCSORGBOTTOM
 10
0.0
 20
0.0
 30
0.0
  9
$PUCSORGLEFT
 10
0.0
 20
0.0
 30
0.0
  9
$PUCSORGRIGHT
 10
0.0
 20
0.0
 30
0.0
  9
$PUCSORGFRONT
 10
0.0
 20
0.0
 30
0.0
  9
$PUCSORGBACK
 10
0.0
 20
0.0
 30
0.0
  9
$USERI1
 70
     0
  9
$USERI2
 70
     0
  9
$USERI3
 70
     0
  9
$USERI4
 70
     0
  9
$USERI5
 70
     0
  9
$USERR1
 40
0.0
  9
$USERR2
 40
0.0
  9
$USERR3
 40
0.0
  9
$USERR4
 40
0.0
  9
$USERR5
 40
0.0
  9
$WORLDVIEW
 70
     1
  9
$SHADEDGE
 70
     3
  9
$SHADEDIF
 70
    70
  9
$TILEMODE
 70
     1
  9
$MAXACTVP
 70
    64
  9
$PINSBASE
 10
0.0
 20
0.0
 30
0.0
  9
$PLIMCHECK
 70
     0
  9
$PEXTMIN
 10
0.0
 20
0.0
 30
0.0
  9
$PEXTMAX
 10
20.952862
 20
0.215058
 30
2.0
  9
$PLIMMIN
 10
0.0
 20
0.0
  9
$PLIMMAX
 10
12.0
 20
9.0
  9
$UNITMODE
 70
     0
  9
$VISRETAIN
 70
     0
  9
$PLINEGEN
 70
     0
  9
$PSLTSCALE
 70
     1
  9
$TREEDEPTH
 70
  3020
  9
$CMLSTYLE
  2
Standard
  9
$CMLJUST
 70
     0
  9
$CMLSCALE
 40
1.0
  9
$PROXYGRAPHICS
 70
     1
  9
$MEASUREMENT
 70
     0
  9
$CELWEIGHT
370
    -1
  9
$ENDCAPS
280
     0
  9
$JOINSTYLE
280
     0
  9
$LWDISPLAY
290
     0
  9
$INSUNITS
 70
     0
  9
$HYPERLINKBASE
  1

  9
$STYLESHEET
  1

  9
$XEDIT
290
     1
  9
$CEPSNTYPE
380
     0
  9
$PSTYLEMODE
290
     0
  9
$FINGERPRINTGUID
  2
{E92443A1-CEC1-4562-8FAA-0C702A0132F1}
  9
$VERSIONGUID
  2
{FAEB1C32-E019-11D5-929B-00C0DF256EC4}
  9
$EXTNAMES
290
     1
  9
$PSVPSCALE
 40
0.0
  9
$OLESTARTUP
290
     0
  0
ENDSEC
  0
SECTION
  2
CLASSES
  0
CLASS
  1
ACDBDICTIONARYWDFLT
  2
AcDbDictionaryWithDefault
  3
ObjectDBX Classes
 90
        0
280
     0
281
     0
  0
CLASS
  1
VISUALSTYLE
  2
AcDbVisualStyle
  3
ObjectDBX Classes
 90
     4095
280
     0
281
     0
  0
CLASS
  1
MATERIAL
  2
AcDbMaterial
  3
ObjectDBX Classes
 90
     1153
280
     0
281
     0
  0
CLASS
  1
SCALE
  2
AcDbScale
  3
ObjectDBX Classes
 90
     1153
280
     0
281
     0
  0
CLASS
  1
TABLESTYLE
  2
AcDbTableStyle
  3
ObjectDBX Classes
 90
     4095
280
     0
281
     0
  0
CLASS
  1
MLEADERSTYLE
  2
AcDbMLeaderStyle
  3
ACDB_MLEADERSTYLE_CLASS
 90
     4095
280
     0
281
     0
  0
CLASS
  1
SUN
  2
AcDbSun
  3
SCENEOE
 90
     1153
280
     0
281
     0
  0
CLASS
  1
ACDBPLACEHOLDER
  2
AcDbPlaceHolder
  3
ObjectDBX Classes
 90
        0
280
     0
281
     0
  0
CLASS
  1
LAYOUT
  2
AcDbLayout
  3
ObjectDBX Classes
 90
        0
280
     0
281
     0
  0
ENDSEC
  0
SECTION
  2
TABLES
  0
TABLE
  2
VPORT
  5
8
330
0
100
AcDbSymbolTable
 70
     1
  0
VPORT
  5
29
330
8
100
AcDbSymbolTableRecord
100
AcDbViewportTableRecord
  2
*Active
 70
     0
 10
0.0
 20
0.0
 11
1.0
 21
1.0
 12
10.429907
 22
4.5
 13
0.0
 23
0.0
 14
0.5
 24
0.5
 15
0.5
 25
0.5
 16
0.0
 26
0.0
 36
1.0
 17
0.0
 27
0.0
 37
0.0
 40
9.0
 41
1.972973
 42
50.0
 43
0.0
 44
0.0
 50
0.0
 51
0.0
 71
     0
 72
   100
 73
     1
 74
     3
 75
     0
 76
     0
 77
     0
 78
     0
281
     0
 65
     1
110
0.0
120
0.0
130
0.0
111
1.0
121
0.0
131
0.0
112
0.0
122
1.0
132
0.0
 79
     0
146
0.0
  0
ENDTAB
  0
TABLE
  2
LTYPE
  5
5
330
0
100
AcDbSymbolTable
 70
     1
  0
LTYPE
  5
14
330
5
100
AcDbSymbolTableRecord
100
AcDbLinetypeTableRecord
  2
ByBlock
 70
     0
  3

 72
    65
 73
     0
 40
0.0
  0
LTYPE
  5
15
330
5
100
AcDbSymbolTableRecord
100
AcDbLinetypeTableRecord
  2
ByLayer
 70
     0
  3

 72
    65
 73
     0
 40
0.0
  0
LTYPE
  5
16
330
5
100
AcDbSymbolTableRecord
100
AcDbLinetypeTableRecord
  2
Continuous
 70
     0
  3
Solid line
 72
    65
 73
     0
 40
0.0
  0
ENDTAB
  0
TABLE
  2
LAYER
  5
2
330
0
100
AcDbSymbolTable
 70
     1
  0
LAYER
  5
10
330
2
100
AcDbSymbolTableRecord
100
AcDbLayerTableRecord
  2
0
 70
     0
 62
     7
  6
Continuous
370
    13
390
F
  0
ENDTAB
  0
TABLE
  2
STYLE
  5
3
330
0
100
AcDbSymbolTable
 70
     2
  0
STYLE
  5
11
330
3
100
AcDbSymbolTableRecord
100
AcDbTextStyleTableRecord
  2
Standard
 70
     0
 40
0.0
 41
1.0
 50
0.0
 71
     0
 42
0.0
  3
isocp.shx
  4

  0
STYLE
  5
6E
330
3
100
AcDbSymbolTableRecord
100
AcDbTextStyleTableRecord
  2
GDT
 70
     0
 40
0.0
 41
1.0
 50
0.0
 71
     0
 42
0.2
  3
gdt.shx
  4

  0
ENDTAB
  0
TABLE
  2
VIEW
  5
6
330
0
100
AcDbSymbolTable
 70
     0
  0
ENDTAB
  0
TABLE
  2
UCS
  5
7
330
0
100
AcDbSymbolTable
 70
     0
  0
ENDTAB
  0
TABLE
  2
APPID
  5
9
330
0
100
AcDbSymbolTable
 70
     1
  0
APPID
  5
12
330
9
100
AcDbSymbolTableRecord
100
AcDbRegAppTableRecord
  2
ACAD
 70
     0
  0
ENDTAB
  0
TABLE
  2
DIMSTYLE
  5
A
330
0
100
AcDbSymbolTable
 70
     1
100
AcDbDimStyleTable
  0
DIMSTYLE
105
27
330
A
100
AcDbSymbolTableRecord
100
AcDbDimStyleTableRecord
  2
STANDARD
 70
     0
178
     0
289
     0
340
0
  0
ENDTAB
  0
TABLE
  2
BLOCK_RECORD
  5
1
330
0
100
AcDbSymbolTable
 70
     8
  0
BLOCK_RECORD
  5
1F
330
1
100
AcDbSymbolTableRecord
100
AcDbBlockTableRecord
  2
*Model_Space
340
22
  0
BLOCK_RECORD
  5
1B
330
1
100
AcDbSymbolTableRecord
100
AcDbBlockTableRecord
  2
*Paper_Space
340
1E
  0
BLOCK_RECORD
  5
23
330
1
100
AcDbSymbolTableRecord
100
AcDbBlockTableRecord
  2
*Paper_Space0
340
26
  0
BLOCK_RECORD
  5
6F
330
1
100
AcDbSymbolTableRecord
100
AcDbBlockTableRecord
  2
BLOCK8
340
0
102
{BLKREFS
331
8D
102
}
  0
BLOCK_RECORD
  5
72
330
1
100
AcDbSymbolTableRecord
100
AcDbBlockTableRecord
  2
BLOCK9
340
0
102
{BLKREFS
331
8E
102
}
  0
BLOCK_RECORD
  5
75
330
1
100
AcDbSymbolTableRecord
100
AcDbBlockTableRecord
  2
BLOCK10
340
0
102
{BLKREFS
331
8F
102
}
  0
BLOCK_RECORD
  5
78
330
1
100
AcDbSymbolTableRecord
100
AcDbBlockTableRecord
  2
BLOCK11
340
0
102
{BLKREFS
331
90
102
}
  0
BLOCK_RECORD
  5
7B
330
1
100
AcDbSymbolTableRecord
100
AcDbBlockTableRecord
  2
BLOCK12
340
0
102
{BLKREFS
331
91
102
}
  0
BLOCK_RECORD
  5
7E
330
1
100
AcDbSymbolTableRecord
100
AcDbBlockTableRecord
  2
BLOCK13
340
0
102
{BLKREFS
331
92
102
}
  0
BLOCK_RECORD
  5
81
330
1
100
AcDbSymbolTableRecord
100
AcDbBlockTableRecord
  2
BLOCK14
340
0
102
{BLKREFS
331
93
102
}
  0
ENDTAB
  0
ENDSEC
  0
SECTION
  2
BLOCKS
  0
BLOCK
  5
20
330
1F
100
AcDbEntity
  8
0
100
AcDbBlockBegin
  2
*Model_Space
 70
     0
 10
0.0
 20
0.0
 30
0.0
  3
*Model_Space
  1

  0
ENDBLK
  5
21
330
1F
100
AcDbEntity
  8
0
100
AcDbBlockEnd
  0
BLOCK
  5
1C
330
1B
100
AcDbEntity
 67
     1
  8
0
100
AcDbBlockBegin
  2
*Paper_Space
 70
     0
 10
0.0
 20
0.0
 30
0.0
  3
*Paper_Space
  1

  0
ENDBLK
  5
1D
330
1B
100
AcDbEntity
 67
     1
  8
0
100
AcDbBlockEnd
  0
BLOCK
  5
24
330
23
100
AcDbEntity
  8
0
100
AcDbBlockBegin
  2
*Paper_Space0
 70
     0
 10
0.0
 20
0.0
 30
0.0
  3
*Paper_Space0
  1

  0
ENDBLK
  5
25
330
23
100
AcDbEntity
  8
0
100
AcDbBlockEnd
  0
BLOCK
  5
70
330
6F
100
AcDbEntity
  8
0
100
AcDbBlockBegin
  2
BLOCK8
 70
     0
 10
0.0
 20
0.0
 30
0.0
  3
BLOCK8
  1

  0
TEXT
  5
84
330
6F
100
AcDbEntity
  8
0
 62
     7
370
    15
100
AcDbText
 10
0.004592
 20
-19.04805
 30
0.0
 40
0.16
  1
Undercore Plies_Ply.2_NR970V563X | CARBON FIBER REINFORCED EPOXY SHEET PER BMS 8-256 TYPE IV CLASS 2 STYLE 3K-70-PW |_0
 41
1.216037
 72
     5
 11
20.952862
 21
-19.04805
 31
0.0
100
AcDbText
  0
TEXT
  5
85
330
6F
100
AcDbEntity
  8
0
 62
     7
370
    15
100
AcDbText
 10
0.004592
 20
-19.406717
 30
0.0
 40
0.16
  1
Scale:
 41
1.474719
 72
     5
 11
1.004592
 21
-19.406717
 31
0.0
100
AcDbText
  0
TEXT
  5
86
330
6F
100
AcDbEntity
  8
0
 62
     7
370
    15
100
AcDbText
 10
1.063792
 20
-19.406717
 30
0.0
 40
0.16
  1
  1:1
 41
1.302168
 72
     5
 11
1.887258
 21
-19.406717
 31
0.0
100
AcDbText
  0
ENDBLK
  5
71
330
6F
100
AcDbEntity
  8
0
100
AcDbBlockEnd
  0
BLOCK
  5
73
330
72
100
AcDbEntity
  8
0
100
AcDbBlockBegin
  2
BLOCK9
 70
     0
 10
0.0
 20
0.0
 30
0.0
  3
BLOCK9
  1

  0
TEXT
  5
87
330
72
100
AcDbEntity
  8
0
 62
     7
370
    15
100
AcDbText
 10
0.0
 20
0.040793
 30
0.0
 40
0.137795
  1
HumanRobot_ToolSurface
 41
1.299021
 72
     5
 11
3.349837
 21
0.040793
 31
0.0
100
AcDbText
  0
ENDBLK
  5
74
330
72
100
AcDbEntity
  8
0
100
AcDbBlockEnd
  0
BLOCK
  5
76
330
75
100
AcDbEntity
  8
0
100
AcDbBlockBegin
  2
BLOCK10
 70
     0
 10
0.0
 20
0.0
 30
0.0
  3
BLOCK10
  1

  0
TEXT
  5
88
330
75
100
AcDbEntity
  8
0
 62
     7
370
    15
100
AcDbText
 10
0.0
 20
-0.234797
 30
0.0
 40
0.137795
  1
Undercore Plies
 41
1.275063
 72
     5
 11
2.083273
 21
-0.234797
 31
0.0
100
AcDbText
  0
ENDBLK
  5
77
330
75
100
AcDbEntity
  8
0
100
AcDbBlockEnd
  0
BLOCK
  5
79
330
78
100
AcDbEntity
  8
0
100
AcDbBlockBegin
  2
BLOCK11
 70
     0
 10
0.0
 20
0.0
 30
0.0
  3
BLOCK11
  1

  0
TEXT
  5
89
330
78
100
AcDbEntity
  8
0
 62
     7
370
    15
100
AcDbText
 10
0.0
 20
-0.510388
 30
0.0
 40
0.137795
  1
Sequence.1
 41
1.332515
 72
     5
 11
1.486401
 21
-0.510388
 31
0.0
100
AcDbText
  0
ENDBLK
  5
7A
330
78
100
AcDbEntity
  8
0
100
AcDbBlockEnd
  0
BLOCK
  5
7C
330
7B
100
AcDbEntity
  8
0
100
AcDbBlockBegin
  2
BLOCK12
 70
     0
 10
0.0
 20
0.0
 30
0.0
  3
BLOCK12
  1

  0
TEXT
  5
8A
330
7B
100
AcDbEntity
  8
0
 62
     7
370
    15
100
AcDbText
 10
0.0
 20
-0.785978
 30
0.0
 40
0.137795
  1
Ply.2
 41
1.337505
 72
     5
 11
0.631892
 21
-0.785978
 31
0.0
100
AcDbText
  0
ENDBLK
  5
7D
330
7B
100
AcDbEntity
  8
0
100
AcDbBlockEnd
  0
BLOCK
  5
7F
330
7E
100
AcDbEntity
  8
0
100
AcDbBlockBegin
  2
BLOCK13
 70
     0
 10
0.0
 20
0.0
 30
0.0
  3
BLOCK13
  1

  0
TEXT
  5
8B
330
7E
100
AcDbEntity
  8
0
 62
     7
370
    15
100
AcDbText
 10
0.0
 20
-1.061569
 30
0.0
 40
0.137795
  1
NR970V563X | CARBON FIBER REINFORCED EPOXY SHEET PER BMS 8-256 TYPE IV CLASS 2 STYLE 3K-70-PW |
 41
1.235515
 72
     5
 11
15.119649
 21
-1.061569
 31
0.0
100
AcDbText
  0
ENDBLK
  5
80
330
7E
100
AcDbEntity
  8
0
100
AcDbBlockEnd
  0
BLOCK
  5
82
330
81
100
AcDbEntity
  8
0
100
AcDbBlockBegin
  2
BLOCK14
 70
     0
 10
0.0
 20
0.0
 30
0.0
  3
BLOCK14
  1

  0
TEXT
  5
8C
330
81
100
AcDbEntity
  8
0
 62
     7
370
    15
100
AcDbText
 10
0.0
 20
-1.337159
 30
0.0
 40
0.137795
  1
0
 41
0.959754
 72
     5
 11
0.107059
 21
-1.337159
 31
0.0
100
AcDbText
  0
ENDBLK
  5
83
330
81
100
AcDbEntity
  8
0
100
AcDbBlockEnd
  0
ENDSEC
  0
SECTION
  2
ENTITIES
  0
INSERT
  5
8D
330
1F
100
AcDbEntity
  8
0
370
     0
100
AcDbBlockReference
  2
BLOCK8
 10
-0.004592
 20
-0.185171
 30
0.0
  0
INSERT
  5
8E
330
1F
100
AcDbEntity
  8
0
370
     0
100
AcDbBlockReference
  2
BLOCK9
 10
-0.004592
 20
-0.185171
 30
0.0
  0
INSERT
  5
8F
330
1F
100
AcDbEntity
  8
0
370
     0
100
AcDbBlockReference
  2
BLOCK10
 10
-0.004592
 20
-0.185171
 30
0.0
  0
INSERT
  5
90
330
1F
100
AcDbEntity
  8
0
370
     0
100
AcDbBlockReference
  2
BLOCK11
 10
-0.004592
 20
-0.185171
 30
0.0
  0
INSERT
  5
91
330
1F
100
AcDbEntity
  8
0
370
     0
100
AcDbBlockReference
  2
BLOCK12
 10
-0.004592
 20
-0.185171
 30
0.0
  0
INSERT
  5
92
330
1F
100
AcDbEntity
  8
0
370
     0
100
AcDbBlockReference
  2
BLOCK13
 10
-0.004592
 20
-0.185171
 30
0.0
  0
INSERT
  5
93
330
1F
100
AcDbEntity
  8
0
370
     0
100
AcDbBlockReference
  2
BLOCK14
 10
-0.004592
 20
-0.185171
 30
0.0
  0
LINE
  5
94
330
1F
100
AcDbEntity
  8
0
 62
     7
370
    30
100
AcDbLine
 10
-24.365408
 20
-1.806635
 30
0.0
 11
-24.343584
 21
-1.922091
 31
0.0
  0
LINE
  5
95
330
1F
100
AcDbEntity
  8
0
 62
     7
370
    30
100
AcDbLine
 10
-24.343584
 20
-1.922091
 30
0.0
 11
-24.326558
 21
-1.981824
 31
0.0
  0
LINE
  5
96
330
1F
100
AcDbEntity
  8
0
 62
     7
370
    30
100
AcDbLine
 10
-24.326558
 20
-1.981824
 30
0.0
 11
-24.195858
 21
-2.55226
 31
0.0
  0
LINE
  5
97
330
1F
100
AcDbEntity
  8
0
 62
     7
370
    30
100
AcDbLine
 10
-24.195858
 20
-2.55226
 30
0.0
 11
-24.005259
 21
-3.4281
 31
0.0
  0
LINE
  5
98
330
1F
100
AcDbEntity
  8
0
 62
     7
370
    30
100
AcDbLine
 10
-24.005259
 20
-3.4281
 30
0.0
 11
-23.982473
 21
-5.057218
 31
0.0
  0
LINE
  5
99
330
1F
100
AcDbEntity
  8
0
 62
     7
370
    30
100
AcDbLine
 10
-23.982473
 20
-5.057218
 30
0.0
 11
-23.992717
 21
-6.910489
 31
0.0
  0
LINE
  5
9A
330
1F
100
AcDbEntity
  8
0
 62
     7
370
    30
100
AcDbLine
 10
-23.992717
 20
-6.910489
 30
0.0
 11
-23.998248
 21
-8.292493
 31
0.0
  0
LINE
  5
9B
330
1F
100
AcDbEntity
  8
0
 62
     7
370
    30
100
AcDbLine
 10
-23.998248
 20
-8.292493
 30
0.0
 11
-24.009902
 21
-10.001008
 31
0.0
  0
LINE
  5
9C
330
1F
100
AcDbEntity
  8
0
 62
     7
370
    30
100
AcDbLine
 10
-24.009902
 20
-10.001008
 30
0.0
 11
-24.017555
 21
-11.546417
 31
0.0
  0
LINE
  5
9D
330
1F
100
AcDbEntity
  8
0
 62
     7
370
    30
100
AcDbLine
 10
-24.017555
 20
-11.546417
 30
0.0
 11
-24.010895
 21
-13.200292
 31
0.0
  0
LINE
  5
9E
330
1F
100
AcDbEntity
  8
0
 62
     7
370
    30
100
AcDbLine
 10
-24.010895
 20
-13.200292
 30
0.0
 11
-23.997603
 21
-14.77835
 31
0.0
  0
LINE
  5
9F
330
1F
100
AcDbEntity
  8
0
 62
     7
370
    30
100
AcDbLine
 10
-23.997603
 20
-14.77835
 30
0.0
 11
-23.991775
 21
-16.305481
 31
0.0
  0
LINE
  5
A0
330
1F
100
AcDbEntity
  8
0
 62
     7
370
    30
100
AcDbLine
 10
-23.991775
 20
-16.305481
 30
0.0
 11
-23.98855
 21
-17.859185
 31
0.0
  0
LINE
  5
A1
330
1F
100
AcDbEntity
  8
0
 62
     7
370
    30
100
AcDbLine
 10
-23.98855
 20
-17.859185
 30
0.0
 11
-23.989238
 21
-18.527354
 31
0.0
  0
LINE
  5
A2
330
1F
100
AcDbEntity
  8
0
 62
     7
370
    30
100
AcDbLine
 10
-23.989238
 20
-18.527354
 30
0.0
 11
-23.991279
 21
-19.38563
 31
0.0
  0
LINE
  5
A3
330
1F
100
AcDbEntity
  8
0
 62
     7
370
    30
100
AcDbLine
 10
-23.991279
 20
-19.38563
 30
0.0
 11
-22.705094
 21
-19.36593
 31
0.0
  0
LINE
  5
A4
330
1F
100
AcDbEntity
  8
0
 62
     7
370
    30
100
AcDbLine
 10
-22.705094
 20
-19.36593
 30
0.0
 11
-21.85887
 21
-19.357152
 31
0.0
  0
LINE
  5
A5
330
1F
100
AcDbEntity
  8
0
 62
     7
370
    30
100
AcDbLine
 10
-21.85887
 20
-19.357152
 30
0.0
 11
-21.083629
 21
-19.350466
 31
0.0
  0
LINE
  5
A6
330
1F
100
AcDbEntity
  8
0
 62
     7
370
    30
100
AcDbLine
 10
-21.083629
 20
-19.350466
 30
0.0
 11
-19.462165
 21
-19.327136
 31
0.0
  0
LINE
  5
A7
330
1F
100
AcDbEntity
  8
0
 62
     7
370
    30
100
AcDbLine
 10
-19.462165
 20
-19.327136
 30
0.0
 11
-18.425412
 21
-19.350201
 31
0.0
  0
LINE
  5
A8
330
1F
100
AcDbEntity
  8
0
 62
     7
370
    30
100
AcDbLine
 10
-18.425412
 20
-19.350201
 30
0.0
 11
-17.893037
 21
-19.354548
 31
0.0
  0
LINE
  5
A9
330
1F
100
AcDbEntity
  8
0
 62
     7
370
    30
100
AcDbLine
 10
-17.893037
 20
-19.354548
 30
0.0
 11
-17.8402
 21
-19.354477
 31
0.0
  0
LINE
  5
AA
330
1F
100
AcDbEntity
  8
0
 62
     7
370
    30
100
AcDbLine
 10
-17.8402
 20
-19.354477
 30
0.0
 11
-17.588109
 21
-19.345697
 31
0.0
  0
LINE
  5
AB
330
1F
100
AcDbEntity
  8
0
 62
     7
370
    30
100
AcDbLine
 10
-17.588109
 20
-19.345697
 30
0.0
 11
-16.219236
 21
-19.324382
 31
0.0
  0
LINE
  5
AC
330
1F
100
AcDbEntity
  8
0
 62
     7
370
    30
100
AcDbLine
 10
-16.219236
 20
-19.324382
 30
0.0
 11
-14.632987
 21
-19.326192
 31
0.0
  0
LINE
  5
AD
330
1F
100
AcDbEntity
  8
0
 62
     7
370
    30
100
AcDbLine
 10
-14.632987
 20
-19.326192
 30
0.0
 11
-13.889818
 21
-19.327503
 31
0.0
  0
LINE
  5
AE
330
1F
100
AcDbEntity
  8
0
 62
     7
370
    30
100
AcDbLine
 10
-13.889818
 20
-19.327503
 30
0.0
 11
-11.660359
 21
-19.329043
 31
0.0
  0
LINE
  5
AF
330
1F
100
AcDbEntity
  8
0
 62
     7
370
    30
100
AcDbLine
 10
-11.660359
 20
-19.329043
 30
0.0
 11
-11.354843
 21
-19.329072
 31
0.0
  0
LINE
  5
B0
330
1F
100
AcDbEntity
  8
0
 62
     7
370
    30
100
AcDbLine
 10
-11.354843
 20
-19.329072
 30
0.0
 11
-10.172611
 21
-19.319873
 31
0.0
  0
LINE
  5
B1
330
1F
100
AcDbEntity
  8
0
 62
     7
370
    30
100
AcDbLine
 10
-10.172611
 20
-19.319873
 30
0.0
 11
-9.733378
 21
-19.316079
 31
0.0
  0
LINE
  5
B2
330
1F
100
AcDbEntity
  8
0
 62
     7
370
    30
100
AcDbLine
 10
-9.733378
 20
-19.316079
 30
0.0
 11
-8.111914
 21
-19.283322
 31
0.0
  0
LINE
  5
B3
330
1F
100
AcDbEntity
  8
0
 62
     7
370
    30
100
AcDbLine
 10
-8.111914
 20
-19.283322
 30
0.0
 11
-6.456544
 21
-19.289772
 31
0.0
  0
LINE
  5
B4
330
1F
100
AcDbEntity
  8
0
 62
     7
370
    30
100
AcDbLine
 10
-6.456544
 20
-19.289772
 30
0.0
 11
-4.868985
 21
-19.312079
 31
0.0
  0
LINE
  5
B5
330
1F
100
AcDbEntity
  8
0
 62
     7
370
    30
100
AcDbLine
 10
-4.868985
 20
-19.312079
 30
0.0
 11
-3.483328
 21
-19.309091
 31
0.0
  0
LINE
  5
B6
330
1F
100
AcDbEntity
  8
0
 62
     7
370
    30
100
AcDbLine
 10
-3.483328
 20
-19.309091
 30
0.0
 11
-3.247521
 21
-19.308336
 31
0.0
  0
LINE
  5
B7
330
1F
100
AcDbEntity
  8
0
 62
     7
370
    30
100
AcDbLine
 10
-3.247521
 20
-19.308336
 30
0.0
 11
-1.626056
 21
-19.306545
 31
0.0
  0
LINE
  5
B8
330
1F
100
AcDbEntity
  8
0
 62
     7
370
    30
100
AcDbLine
 10
-1.626056
 20
-19.306545
 30
0.0
 11
-0.004592
 21
-19.279544
 31
0.0
  0
LINE
  5
B9
330
1F
100
AcDbEntity
  8
0
 62
     7
370
    30
100
AcDbLine
 10
-0.004592
 20
-19.279544
 30
0.0
 11
1.616872
 21
-19.279974
 31
0.0
  0
LINE
  5
BA
330
1F
100
AcDbEntity
  8
0
 62
     7
370
    30
100
AcDbLine
 10
1.616872
 20
-19.279974
 30
0.0
 11
3.238337
 21
-19.302996
 31
0.0
  0
LINE
  5
BB
330
1F
100
AcDbEntity
  8
0
 62
     7
370
    30
100
AcDbLine
 10
3.238337
 20
-19.302996
 30
0.0
 11
4.490118
 21
-19.309383
 31
0.0
  0
LINE
  5
BC
330
1F
100
AcDbEntity
  8
0
 62
     7
370
    30
100
AcDbLine
 10
4.490118
 20
-19.309383
 30
0.0
 11
4.859801
 21
-19.311052
 31
0.0
  0
LINE
  5
BD
330
1F
100
AcDbEntity
  8
0
 62
     7
370
    30
100
AcDbLine
 10
4.859801
 20
-19.311052
 30
0.0
 11
8.648547
 21
-19.312753
 31
0.0
  0
LINE
  5
BE
330
1F
100
AcDbEntity
  8
0
 62
     7
370
    30
100
AcDbLine
 10
8.648547
 20
-19.312753
 30
0.0
 11
12.805447
 21
-19.311547
 31
0.0
  0
LINE
  5
BF
330
1F
100
AcDbEntity
  8
0
 62
     7
370
    30
100
AcDbLine
 10
12.805447
 20
-19.311547
 30
0.0
 11
13.498942
 21
-19.311607
 31
0.0
  0
LINE
  5
C0
330
1F
100
AcDbEntity
  8
0
 62
     7
370
    30
100
AcDbLine
 10
13.498942
 20
-19.311607
 30
0.0
 11
14.588588
 21
-19.309732
 31
0.0
  0
LINE
  5
C1
330
1F
100
AcDbEntity
  8
0
 62
     7
370
    30
100
AcDbLine
 10
14.588588
 20
-19.309732
 30
0.0
 11
18.348993
 21
-19.305764
 31
0.0
  0
LINE
  5
C2
330
1F
100
AcDbEntity
  8
0
 62
     7
370
    30
100
AcDbLine
 10
18.348993
 20
-19.305764
 30
0.0
 11
19.452981
 21
-19.306374
 31
0.0
  0
LINE
  5
C3
330
1F
100
AcDbEntity
  8
0
 62
     7
370
    30
100
AcDbLine
 10
19.452981
 20
-19.306374
 30
0.0
 11
21.351267
 21
-19.306089
 31
0.0
  0
LINE
  5
C4
330
1F
100
AcDbEntity
  8
0
 62
     7
370
    30
100
AcDbLine
 10
21.351267
 20
-19.306089
 30
0.0
 11
22.69591
 21
-19.308443
 31
0.0
  0
LINE
  5
C5
330
1F
100
AcDbEntity
  8
0
 62
     7
370
    30
100
AcDbLine
 10
22.69591
 20
-19.308443
 30
0.0
 11
23.494056
 21
-19.309287
 31
0.0
  0
LINE
  5
C6
330
1F
100
AcDbEntity
  8
0
 62
     7
370
    30
100
AcDbLine
 10
23.494056
 20
-19.309287
 30
0.0
 11
24.351265
 21
-19.311617
 31
0.0
  0
LINE
  5
C7
330
1F
100
AcDbEntity
  8
0
 62
     7
370
    30
100
AcDbLine
 10
24.351265
 20
-19.311617
 30
0.0
 11
24.358142
 21
-17.565065
 31
0.0
  0
LINE
  5
C8
330
1F
100
AcDbEntity
  8
0
 62
     7
370
    30
100
AcDbLine
 10
24.358142
 20
-17.565065
 30
0.0
 11
24.366989
 21
-16.002468
 31
0.0
  0
LINE
  5
C9
330
1F
100
AcDbEntity
  8
0
 62
     7
370
    30
100
AcDbLine
 10
24.366989
 20
-16.002468
 30
0.0
 11
24.380832
 21
-14.216752
 31
0.0
  0
LINE
  5
CA
330
1F
100
AcDbEntity
  8
0
 62
     7
370
    30
100
AcDbLine
 10
24.380832
 20
-14.216752
 30
0.0
 11
24.390738
 21
-13.100673
 31
0.0
  0
LINE
  5
CB
330
1F
100
AcDbEntity
  8
0
 62
     7
370
    30
100
AcDbLine
 10
24.390738
 20
-13.100673
 30
0.0
 11
24.396481
 21
-11.535422
 31
0.0
  0
LINE
  5
CC
330
1F
100
AcDbEntity
  8
0
 62
     7
370
    30
100
AcDbLine
 10
24.396481
 20
-11.535422
 30
0.0
 11
24.386455
 21
-9.913957
 31
0.0
  0
LINE
  5
CD
330
1F
100
AcDbEntity
  8
0
 62
     7
370
    30
100
AcDbLine
 10
24.386455
 20
-9.913957
 30
0.0
 11
24.379032
 21
-8.292493
 31
0.0
  0
LINE
  5
CE
330
1F
100
AcDbEntity
  8
0
 62
     7
370
    30
100
AcDbLine
 10
24.379032
 20
-8.292493
 30
0.0
 11
24.374187
 21
-6.671028
 31
0.0
  0
LINE
  5
CF
330
1F
100
AcDbEntity
  8
0
 62
     7
370
    30
100
AcDbLine
 10
24.374187
 20
-6.671028
 30
0.0
 11
24.371917
 21
-5.049564
 31
0.0
  0
LINE
  5
D0
330
1F
100
AcDbEntity
  8
0
 62
     7
370
    30
100
AcDbLine
 10
24.371917
 20
-5.049564
 30
0.0
 11
24.391681
 21
-3.4281
 31
0.0
  0
LINE
  5
D1
330
1F
100
AcDbEntity
  8
0
 62
     7
370
    30
100
AcDbLine
 10
24.391681
 20
-3.4281
 30
0.0
 11
24.501922
 21
-1.806635
 31
0.0
  0
LINE
  5
D2
330
1F
100
AcDbEntity
  8
0
 62
     7
370
    30
100
AcDbLine
 10
24.501922
 20
-1.806635
 30
0.0
 11
24.568441
 21
-0.185171
 31
0.0
  0
LINE
  5
D3
330
1F
100
AcDbEntity
  8
0
 62
     7
370
    30
100
AcDbLine
 10
24.568441
 20
-0.185171
 30
0.0
 11
24.523123
 21
1.436294
 31
0.0
  0
LINE
  5
D4
330
1F
100
AcDbEntity
  8
0
 62
     7
370
    30
100
AcDbLine
 10
24.523123
 20
1.436294
 30
0.0
 11
24.396788
 21
3.057758
 31
0.0
  0
LINE
  5
D5
330
1F
100
AcDbEntity
  8
0
 62
     7
370
    30
100
AcDbLine
 10
24.396788
 20
3.057758
 30
0.0
 11
24.368984
 21
4.679222
 31
0.0
  0
LINE
  5
D6
330
1F
100
AcDbEntity
  8
0
 62
     7
370
    30
100
AcDbLine
 10
24.368984
 20
4.679222
 30
0.0
 11
24.368885
 21
6.433941
 31
0.0
  0
LINE
  5
D7
330
1F
100
AcDbEntity
  8
0
 62
     7
370
    30
100
AcDbLine
 10
24.368885
 20
6.433941
 30
0.0
 11
24.371583
 21
8.04285
 31
0.0
  0
LINE
  5
D8
330
1F
100
AcDbEntity
  8
0
 62
     7
370
    30
100
AcDbLine
 10
24.371583
 20
8.04285
 30
0.0
 11
24.377135
 21
9.652147
 31
0.0
  0
LINE
  5
D9
330
1F
100
AcDbEntity
  8
0
 62
     7
370
    30
100
AcDbLine
 10
24.377135
 20
9.652147
 30
0.0
 11
24.385074
 21
11.261777
 31
0.0
  0
LINE
  5
DA
330
1F
100
AcDbEntity
  8
0
 62
     7
370
    30
100
AcDbLine
 10
24.385074
 20
11.261777
 30
0.0
 11
24.385886
 21
12.786544
 31
0.0
  0
LINE
  5
DB
330
1F
100
AcDbEntity
  8
0
 62
     7
370
    30
100
AcDbLine
 10
24.385886
 20
12.786544
 30
0.0
 11
24.368921
 21
14.408448
 31
0.0
  0
LINE
  5
DC
330
1F
100
AcDbEntity
  8
0
 62
     7
370
    30
100
AcDbLine
 10
24.368921
 20
14.408448
 30
0.0
 11
24.355943
 21
16.029473
 31
0.0
  0
LINE
  5
DD
330
1F
100
AcDbEntity
  8
0
 62
     7
370
    30
100
AcDbLine
 10
24.355943
 20
16.029473
 30
0.0
 11
24.346396
 21
17.664255
 31
0.0
  0
LINE
  5
DE
330
1F
100
AcDbEntity
  8
0
 62
     7
370
    30
100
AcDbLine
 10
24.346396
 20
17.664255
 30
0.0
 11
24.340312
 21
19.305869
 31
0.0
  0
LINE
  5
DF
330
1F
100
AcDbEntity
  8
0
 62
     7
370
    30
100
AcDbLine
 10
24.340312
 20
19.305869
 30
0.0
 11
23.048706
 21
19.305215
 31
0.0
  0
LINE
  5
E0
330
1F
100
AcDbEntity
  8
0
 62
     7
370
    30
100
AcDbLine
 10
23.048706
 20
19.305215
 30
0.0
 11
22.618171
 21
19.305145
 31
0.0
  0
LINE
  5
E1
330
1F
100
AcDbEntity
  8
0
 62
     7
370
    30
100
AcDbLine
 10
22.618171
 20
19.305145
 30
0.0
 11
20.034949
 21
19.300293
 31
0.0
  0
LINE
  5
E2
330
1F
100
AcDbEntity
  8
0
 62
     7
370
    30
100
AcDbLine
 10
20.034949
 20
19.300293
 30
0.0
 11
17.606758
 21
19.297318
 31
0.0
  0
LINE
  5
E3
330
1F
100
AcDbEntity
  8
0
 62
     7
370
    30
100
AcDbLine
 10
17.606758
 20
19.297318
 30
0.0
 11
14.588588
 21
19.295663
 31
0.0
  0
LINE
  5
E4
330
1F
100
AcDbEntity
  8
0
 62
     7
370
    30
100
AcDbLine
 10
14.588588
 20
19.295663
 30
0.0
 11
9.724194
 21
19.296996
 31
0.0
  0
LINE
  5
E5
330
1F
100
AcDbEntity
  8
0
 62
     7
370
    30
100
AcDbLine
 10
9.724194
 20
19.296996
 30
0.0
 11
6.313317
 21
19.302797
 31
0.0
  0
LINE
  5
E6
330
1F
100
AcDbEntity
  8
0
 62
     7
370
    30
100
AcDbLine
 10
6.313317
 20
19.302797
 30
0.0
 11
4.859801
 21
19.30474
 31
0.0
  0
LINE
  5
E7
330
1F
100
AcDbEntity
  8
0
 62
     7
370
    30
100
AcDbLine
 10
4.859801
 20
19.30474
 30
0.0
 11
3.238337
 21
19.298353
 31
0.0
  0
LINE
  5
E8
330
1F
100
AcDbEntity
  8
0
 62
     7
370
    30
100
AcDbLine
 10
3.238337
 20
19.298353
 30
0.0
 11
1.616872
 21
19.276797
 31
0.0
  0
LINE
  5
E9
330
1F
100
AcDbEntity
  8
0
 62
     7
370
    30
100
AcDbLine
 10
1.616872
 20
19.276797
 30
0.0
 11
-0.004592
 21
19.276744
 31
0.0
  0
LINE
  5
EA
330
1F
100
AcDbEntity
  8
0
 62
     7
370
    30
100
AcDbLine
 10
-0.004592
 20
19.276744
 30
0.0
 11
-1.626056
 21
19.301138
 31
0.0
  0
LINE
  5
EB
330
1F
100
AcDbEntity
  8
0
 62
     7
370
    30
100
AcDbLine
 10
-1.626056
 20
19.301138
 30
0.0
 11
-3.247521
 21
19.309854
 31
0.0
  0
LINE
  5
EC
330
1F
100
AcDbEntity
  8
0
 62
     7
370
    30
100
AcDbLine
 10
-3.247521
 20
19.309854
 30
0.0
 11
-4.868985
 21
19.321794
 31
0.0
  0
LINE
  5
ED
330
1F
100
AcDbEntity
  8
0
 62
     7
370
    30
100
AcDbLine
 10
-4.868985
 20
19.321794
 30
0.0
 11
-6.49045
 21
19.30804
 31
0.0
  0
LINE
  5
EE
330
1F
100
AcDbEntity
  8
0
 62
     7
370
    30
100
AcDbLine
 10
-6.49045
 20
19.30804
 30
0.0
 11
-8.111914
 21
19.313051
 31
0.0
  0
LINE
  5
EF
330
1F
100
AcDbEntity
  8
0
 62
     7
370
    30
100
AcDbLine
 10
-8.111914
 20
19.313051
 30
0.0
 11
-9.733378
 21
19.353337
 31
0.0
  0
LINE
  5
F0
330
1F
100
AcDbEntity
  8
0
 62
     7
370
    30
100
AcDbLine
 10
-9.733378
 20
19.353337
 30
0.0
 11
-11.354843
 21
19.371832
 31
0.0
  0
LINE
  5
F1
330
1F
100
AcDbEntity
  8
0
 62
     7
370
    30
100
AcDbLine
 10
-11.354843
 20
19.371832
 30
0.0
 11
-14.597772
 21
19.370264
 31
0.0
  0
LINE
  5
F2
330
1F
100
AcDbEntity
  8
0
 62
     7
370
    30
100
AcDbLine
 10
-14.597772
 20
19.370264
 30
0.0
 11
-16.219236
 21
19.370036
 31
0.0
  0
LINE
  5
F3
330
1F
100
AcDbEntity
  8
0
 62
     7
370
    30
100
AcDbLine
 10
-16.219236
 20
19.370036
 30
0.0
 11
-17.649736
 21
19.376414
 31
0.0
  0
LINE
  5
F4
330
1F
100
AcDbEntity
  8
0
 62
     7
370
    30
100
AcDbLine
 10
-17.649736
 20
19.376414
 30
0.0
 11
-17.767774
 21
19.378819
 31
0.0
  0
LINE
  5
F5
330
1F
100
AcDbEntity
  8
0
 62
     7
370
    30
100
AcDbLine
 10
-17.767774
 20
19.378819
 30
0.0
 11
-17.884047
 21
19.382898
 31
0.0
  0
LINE
  5
F6
330
1F
100
AcDbEntity
  8
0
 62
     7
370
    30
100
AcDbLine
 10
-17.884047
 20
19.382898
 30
0.0
 11
-18.000494
 21
19.385493
 31
0.0
  0
LINE
  5
F7
330
1F
100
AcDbEntity
  8
0
 62
     7
370
    30
100
AcDbLine
 10
-18.000494
 20
19.385493
 30
0.0
 11
-18.119224
 21
19.38563
 31
0.0
  0
LINE
  5
F8
330
1F
100
AcDbEntity
  8
0
 62
     7
370
    30
100
AcDbLine
 10
-18.119224
 20
19.38563
 30
0.0
 11
-19.585328
 21
19.368528
 31
0.0
  0
LINE
  5
F9
330
1F
100
AcDbEntity
  8
0
 62
     7
370
    30
100
AcDbLine
 10
-19.585328
 20
19.368528
 30
0.0
 11
-21.083629
 21
19.353476
 31
0.0
  0
LINE
  5
FA
330
1F
100
AcDbEntity
  8
0
 62
     7
370
    30
100
AcDbLine
 10
-21.083629
 20
19.353476
 30
0.0
 11
-22.529498
 21
19.344759
 31
0.0
  0
LINE
  5
FB
330
1F
100
AcDbEntity
  8
0
 62
     7
370
    30
100
AcDbLine
 10
-22.529498
 20
19.344759
 30
0.0
 11
-24.001844
 21
19.338167
 31
0.0
  0
LINE
  5
FC
330
1F
100
AcDbEntity
  8
0
 62
     7
370
    30
100
AcDbLine
 10
-24.001844
 20
19.338167
 30
0.0
 11
-24.000001
 21
18.286705
 31
0.0
  0
LINE
  5
FD
330
1F
100
AcDbEntity
  8
0
 62
     7
370
    30
100
AcDbLine
 10
-24.000001
 20
18.286705
 30
0.0
 11
-23.999955
 21
17.399318
 31
0.0
  0
LINE
  5
FE
330
1F
100
AcDbEntity
  8
0
 62
     7
370
    30
100
AcDbLine
 10
-23.999955
 20
17.399318
 30
0.0
 11
-24.003559
 21
15.84653
 31
0.0
  0
LINE
  5
FF
330
1F
100
AcDbEntity
  8
0
 62
     7
370
    30
100
AcDbLine
 10
-24.003559
 20
15.84653
 30
0.0
 11
-24.011465
 21
14.293936
 31
0.0
  0
LINE
  5
100
330
1F
100
AcDbEntity
  8
0
 62
     7
370
    30
100
AcDbLine
 10
-24.011465
 20
14.293936
 30
0.0
 11
-24.024724
 21
12.741477
 31
0.0
  0
LINE
  5
101
330
1F
100
AcDbEntity
  8
0
 62
     7
370
    30
100
AcDbLine
 10
-24.024724
 20
12.741477
 30
0.0
 11
-24.024166
 21
11.164189
 31
0.0
  0
LINE
  5
102
330
1F
100
AcDbEntity
  8
0
 62
     7
370
    30
100
AcDbLine
 10
-24.024166
 20
11.164189
 30
0.0
 11
-24.011525
 21
9.543616
 31
0.0
  0
LINE
  5
103
330
1F
100
AcDbEntity
  8
0
 62
     7
370
    30
100
AcDbLine
 10
-24.011525
 20
9.543616
 30
0.0
 11
-23.993822
 21
6.172068
 31
0.0
  0
LINE
  5
104
330
1F
100
AcDbEntity
  8
0
 62
     7
370
    30
100
AcDbLine
 10
-23.993822
 20
6.172068
 30
0.0
 11
-23.983406
 21
4.679222
 31
0.0
  0
LINE
  5
105
330
1F
100
AcDbEntity
  8
0
 62
     7
370
    30
100
AcDbLine
 10
-23.983406
 20
4.679222
 30
0.0
 11
-24.056239
 21
3.057758
 31
0.0
  0
LINE
  5
106
330
1F
100
AcDbEntity
  8
0
 62
     7
370
    30
100
AcDbLine
 10
-24.056239
 20
3.057758
 30
0.0
 11
-24.196217
 21
2.441584
 31
0.0
  0
LINE
  5
107
330
1F
100
AcDbEntity
  8
0
 62
     7
370
    30
100
AcDbLine
 10
-24.196217
 20
2.441584
 30
0.0
 11
-24.326558
 21
1.907313
 31
0.0
  0
LINE
  5
108
330
1F
100
AcDbEntity
  8
0
 62
     7
370
    30
100
AcDbLine
 10
-24.326558
 20
1.907313
 30
0.0
 11
-24.424998
 21
1.490493
 31
0.0
  0
LINE
  5
109
330
1F
100
AcDbEntity
  8
0
 62
     7
370
    30
100
AcDbLine
 10
-24.424998
 20
1.490493
 30
0.0
 11
-24.437051
 21
1.436294
 31
0.0
  0
LINE
  5
10A
330
1F
100
AcDbEntity
  8
0
 62
     7
370
    30
100
AcDbLine
 10
-24.437051
 20
1.436294
 30
0.0
 11
-24.568442
 21
-0.185171
 31
0.0
  0
LINE
  5
10B
330
1F
100
AcDbEntity
  8
0
 62
     7
370
    30
100
AcDbLine
 10
-24.568442
 20
-0.185171
 30
0.0
 11
-24.365408
 21
-1.806635
 31
0.0
  0
ENDSEC
  0
SECTION
  2
OBJECTS
  0
DICTIONARY
  5
C
330
0
100
AcDbDictionary
281
     1
  3
ACAD_GROUP
350
D
  3
ACAD_LAYOUT
350
1A
  3
ACAD_MLINESTYLE
350
17
  3
ACAD_PLOTSETTINGS
350
19
  3
ACAD_PLOTSTYLENAME
350
E
  3
ACAD_SCALELIST
350
47
  0
DICTIONARY
  5
D
102
{ACAD_REACTORS
330
C
102
}
330
C
100
AcDbDictionary
281
     1
  0
DICTIONARY
  5
1A
102
{ACAD_REACTORS
330
C
102
}
330
C
100
AcDbDictionary
281
     1
  3
Layout1
350
1E
  3
Layout2
350
26
  3
Model
350
22
  0
DICTIONARY
  5
17
102
{ACAD_REACTORS
330
C
102
}
330
C
100
AcDbDictionary
281
     1
  3
Standard
350
18
  0
DICTIONARY
  5
19
102
{ACAD_REACTORS
330
C
102
}
330
C
100
AcDbDictionary
281
     1
  0
ACDBDICTIONARYWDFLT
  5
E
102
{ACAD_REACTORS
330
C
102
}
330
C
100
AcDbDictionary
281
     1
  3
Normal
350
F
100
AcDbDictionaryWithDefault
340
F
  0
DICTIONARY
  5
47
102
{ACAD_REACTORS
330
C
102
}
330
C
100
AcDbDictionary
281
     1
  3
A0
350
48
  3
A1
350
49
  3
A2
350
4A
  3
A3
350
4B
  3
A4
350
4C
  3
A5
350
4D
  3
A6
350
4E
  3
A7
350
4F
  3
A8
350
50
  3
A9
350
51
  3
B0
350
52
  3
B1
350
53
  3
B2
350
54
  3
B3
350
55
  3
B4
350
56
  3
B5
350
57
  3
B6
350
58
  3
B7
350
59
  3
B8
350
5A
  3
B9
350
5B
  3
C0
350
5C
  3
C1
350
5D
  3
C2
350
5E
  3
C3
350
5F
  3
C4
350
60
  3
C5
350
61
  3
C6
350
62
  3
C7
350
63
  3
C8
350
64
  3
C9
350
65
  3
D0
350
66
  3
D1
350
67
  3
D2
350
68
  0
LAYOUT
  5
1E
102
{ACAD_REACTORS
330
1A
102
}
330
1A
100
AcDbPlotSettings
  1

  2
none_device
  4

  6

 40
0.0
 41
0.0
 42
0.0
 43
0.0
 44
0.0
 45
0.0
 46
0.0
 47
0.0
 48
0.0
 49
0.0
140
0.0
141
0.0
142
1.0
143
1.0
 70
  4784
 72
     0
 73
     0
 74
     5
  7

 75
    16
147
1.0
148
0.0
149
0.0
100
AcDbLayout
  1
Layout1
 70
     1
 71
     1
 10
0.0
 20
0.0
 11
12.0
 21
9.0
 12
0.0
 22
0.0
 32
0.0
 14
0.0
 24
0.0
 34
0.0
 15
20.952862
 25
0.215058
 35
2.0
146
0.0
 13
0.0
 23
0.0
 33
0.0
 16
1.0
 26
0.0
 36
0.0
 17
0.0
 27
1.0
 37
0.0
 76
     0
330
1B
  0
LAYOUT
  5
26
102
{ACAD_REACTORS
330
1A
102
}
330
1A
100
AcDbPlotSettings
  1

  2
none_device
  4

  6

 40
0.0
 41
0.0
 42
0.0
 43
0.0
 44
0.0
 45
0.0
 46
0.0
 47
0.0
 48
0.0
 49
0.0
140
0.0
141
0.0
142
1.0
143
1.0
 70
  4784
 72
     0
 73
     0
 74
     5
  7

 75
    16
147
1.0
148
0.0
149
0.0
100
AcDbLayout
  1
Layout2
 70
     1
 71
     2
 10
0.0
 20
0.0
 11
0.0
 21
0.0
 12
0.0
 22
0.0
 32
0.0
 14
0.0
 24
0.0
 34
0.0
 15
0.0
 25
0.0
 35
0.0
146
0.0
 13
0.0
 23
0.0
 33
0.0
 16
1.0
 26
0.0
 36
0.0
 17
0.0
 27
1.0
 37
0.0
 76
     0
330
23
  0
LAYOUT
  5
22
102
{ACAD_REACTORS
330
1A
102
}
330
1A
100
AcDbPlotSettings
  1

  2
none_device
  4
Letter_(8.50_x_11.00_Inches)
  6

 40
6.35
 41
6.35
 42
6.350005
 43
6.350005
 44
215.9
 45
279.4
 46
0.0
 47
0.0
 48
0.0
 49
0.0
140
0.0
141
0.0
142
1.0
143
1.0
 70
  5808
 72
     0
 73
     0
 74
     0
  7

 75
     0
147
1.0
148
0.0
149
0.0
100
AcDbLayout
  1
Model
 70
     1
 71
     0
 10
0.0
 20
0.0
 11
17.0
 21
11.0
 12
0.0
 22
0.0
 32
0.0
 14
0.0
 24
0.0
 34
0.0
 15
20.952862
 25
0.215058
 35
2.0
146
0.0
 13
0.0
 23
0.0
 33
0.0
 16
1.0
 26
0.0
 36
0.0
 17
0.0
 27
1.0
 37
0.0
 76
     0
330
1F
331
29
  0
MLINESTYLE
  5
18
102
{ACAD_REACTORS
330
17
102
}
330
17
100
AcDbMlineStyle
  2
Standard
 70
     0
  3

 62
   256
 51
90.0
 52
90.0
 71
     2
 49
0.5
 62
   256
  6
BYLAYER
 49
-0.5
 62
   256
  6
BYLAYER
  0
ACDBPLACEHOLDER
  5
F
102
{ACAD_REACTORS
330
E
102
}
330
E
  0
SCALE
  5
48
102
{ACAD_REACTORS
330
47
102
}
330
47
100
AcDbScale
 70
     0
300
1:1
140
1.0
141
1.0
290
     1
  0
SCALE
  5
49
102
{ACAD_REACTORS
330
47
102
}
330
47
100
AcDbScale
 70
     0
300
1:2
140
1.0
141
2.0
290
     0
  0
SCALE
  5
4A
102
{ACAD_REACTORS
330
47
102
}
330
47
100
AcDbScale
 70
     0
300
1:4
140
1.0
141
4.0
290
     0
  0
SCALE
  5
4B
102
{ACAD_REACTORS
330
47
102
}
330
47
100
AcDbScale
 70
     0
300
1:5
140
1.0
141
5.0
290
     0
  0
SCALE
  5
4C
102
{ACAD_REACTORS
330
47
102
}
330
47
100
AcDbScale
 70
     0
300
1:8
140
1.0
141
8.0
290
     0
  0
SCALE
  5
4D
102
{ACAD_REACTORS
330
47
102
}
330
47
100
AcDbScale
 70
     0
300
1:10
140
1.0
141
10.0
290
     0
  0
SCALE
  5
4E
102
{ACAD_REACTORS
330
47
102
}
330
47
100
AcDbScale
 70
     0
300
1:16
140
1.0
141
16.0
290
     0
  0
SCALE
  5
4F
102
{ACAD_REACTORS
330
47
102
}
330
47
100
AcDbScale
 70
     0
300
1:20
140
1.0
141
20.0
290
     0
  0
SCALE
  5
50
102
{ACAD_REACTORS
330
47
102
}
330
47
100
AcDbScale
 70
     0
300
1:30
140
1.0
141
30.0
290
     0
  0
SCALE
  5
51
102
{ACAD_REACTORS
330
47
102
}
330
47
100
AcDbScale
 70
     0
300
1:40
140
1.0
141
40.0
290
     0
  0
SCALE
  5
52
102
{ACAD_REACTORS
330
47
102
}
330
47
100
AcDbScale
 70
     0
300
1:50
140
1.0
141
50.0
290
     0
  0
SCALE
  5
53
102
{ACAD_REACTORS
330
47
102
}
330
47
100
AcDbScale
 70
     0
300
1:100
140
1.0
141
100.0
290
     0
  0
SCALE
  5
54
102
{ACAD_REACTORS
330
47
102
}
330
47
100
AcDbScale
 70
     0
300
2:1
140
2.0
141
1.0
290
     0
  0
SCALE
  5
55
102
{ACAD_REACTORS
330
47
102
}
330
47
100
AcDbScale
 70
     0
300
4:1
140
4.0
141
1.0
290
     0
  0
SCALE
  5
56
102
{ACAD_REACTORS
330
47
102
}
330
47
100
AcDbScale
 70
     0
300
8:1
140
8.0
141
1.0
290
     0
  0
SCALE
  5
57
102
{ACAD_REACTORS
330
47
102
}
330
47
100
AcDbScale
 70
     0
300
10:1
140
10.0
141
1.0
290
     0
  0
SCALE
  5
58
102
{ACAD_REACTORS
330
47
102
}
330
47
100
AcDbScale
 70
     0
300
100:1
140
100.0
141
1.0
290
     0
  0
SCALE
  5
59
102
{ACAD_REACTORS
330
47
102
}
330
47
100
AcDbScale
 70
     0
300
1/128" = 1'-0"
140
0.007812
141
12.0
290
     0
  0
SCALE
  5
5A
102
{ACAD_REACTORS
330
47
102
}
330
47
100
AcDbScale
 70
     0
300
1/64" = 1'-0"
140
0.015625
141
12.0
290
     0
  0
SCALE
  5
5B
102
{ACAD_REACTORS
330
47
102
}
330
47
100
AcDbScale
 70
     0
300
1/32" = 1'-0"
140
0.03125
141
12.0
290
     0
  0
SCALE
  5
5C
102
{ACAD_REACTORS
330
47
102
}
330
47
100
AcDbScale
 70
     0
300
1/16" = 1'-0"
140
0.0625
141
12.0
290
     0
  0
SCALE
  5
5D
102
{ACAD_REACTORS
330
47
102
}
330
47
100
AcDbScale
 70
     0
300
3/32" = 1'-0"
140
0.09375
141
12.0
290
     0
  0
SCALE
  5
5E
102
{ACAD_REACTORS
330
47
102
}
330
47
100
AcDbScale
 70
     0
300
1/8" = 1'-0"
140
0.125
141
12.0
290
     0
  0
SCALE
  5
5F
102
{ACAD_REACTORS
330
47
102
}
330
47
100
AcDbScale
 70
     0
300
3/16" = 1'-0"
140
0.1875
141
12.0
290
     0
  0
SCALE
  5
60
102
{ACAD_REACTORS
330
47
102
}
330
47
100
AcDbScale
 70
     0
300
1/4" = 1'-0"
140
0.25
141
12.0
290
     0
  0
SCALE
  5
61
102
{ACAD_REACTORS
330
47
102
}
330
47
100
AcDbScale
 70
     0
300
3/8" = 1'-0"
140
0.375
141
12.0
290
     0
  0
SCALE
  5
62
102
{ACAD_REACTORS
330
47
102
}
330
47
100
AcDbScale
 70
     0
300
1/2" = 1'-0"
140
0.5
141
12.0
290
     0
  0
SCALE
  5
63
102
{ACAD_REACTORS
330
47
102
}
330
47
100
AcDbScale
 70
     0
300
3/4" = 1'-0"
140
0.75
141
12.0
290
     0
  0
SCALE
  5
64
102
{ACAD_REACTORS
330
47
102
}
330
47
100
AcDbScale
 70
     0
300
1" = 1'-0"
140
1.0
141
12.0
290
     0
  0
SCALE
  5
65
102
{ACAD_REACTORS
330
47
102
}
330
47
100
AcDbScale
 70
     0
300
1-1/2" = 1'-0"
140
1.5
141
12.0
290
     0
  0
SCALE
  5
66
102
{ACAD_REACTORS
330
47
102
}
330
47
100
AcDbScale
 70
     0
300
3" = 1'-0"
140
3.0
141
12.0
290
     0
  0
SCALE
  5
67
102
{ACAD_REACTORS
330
47
102
}
330
47
100
AcDbScale
 70
     0
300
6" = 1'-0"
140
6.0
141
12.0
290
     0
  0
SCALE
  5
68
102
{ACAD_REACTORS
330
47
102
}
330
47
100
AcDbScale
 70
     0
300
1'-0" = 1'-0"
140
12.0
141
12.0
290
     0
  0
ENDSEC
  0
EOF
